<svg xmlns="http://www.w3.org/2000/svg" viewBox="0 0 197.55 197.7"><defs><style>.cls-1{fill:#fff;}</style></defs><title>phone</title><g id="Layer_2" data-name="Layer 2"><g id="Layer_1-2" data-name="Layer 1"><path class="cls-1" d="M158,197.69c-17.51,0-36.13-5-55.36-14.75C85,173.92,67.44,161,52,145.58A203.56,203.56,0,0,1,14.73,94.9C5,75.67,0,57,0,39.54,0,28.19,10.58,17.23,15.11,13.05,21.65,7,31.93,0,39.4,0c3.72,0,8.07,2.43,13.71,7.65A130.7,130.7,0,0,1,66.78,22.91c2.86,3.68,17.1,22.45,17.1,31.46,0,7.38-8.35,12.52-17.19,17.95a98.44,98.44,0,0,0-9.5,6.31C54.46,80.82,54,82,53.9,82.23c9.38,23.39,38.06,52.06,61.43,61.43.21-.07,1.37-.52,3.59-3.29a99.67,99.67,0,0,0,6.32-9.5c5.43-8.83,10.56-17.19,18-17.19,9,0,27.77,14.25,31.45,17.1a130.78,130.78,0,0,1,15.26,13.67c5.22,5.64,7.65,10,7.65,13.71,0,7.48-7,17.79-13,24.35-4.19,4.57-15.16,15.19-26.5,15.19ZM39.35,9.88c-2.65,0-9.78,3.3-17.52,10.43C14.47,27.09,9.89,34.46,9.89,39.54c0,66.51,81.69,148.27,148.14,148.27,5.07,0,12.43-4.6,19.21-12,7.15-7.79,10.39-14.95,10.44-17.61-.32-1.87-5.52-9.18-19.74-20.13-12.23-9.41-22.14-14.46-24.69-14.52-.18,0-1.29.47-3.53,3.32a106.87,106.87,0,0,0-6.06,9.15c-5.54,9-10.76,17.52-18.37,17.52a9.63,9.63,0,0,1-3.58-.7c-25.95-10.38-56.63-41.06-67-67-1.25-3.12-1.44-8,4.68-13.55,3.27-3,7.77-5.73,12.14-8.42a102.62,102.62,0,0,0,9.16-6C73.52,55.57,74,54.46,74,54.29c-.07-2.55-5.11-12.47-14.52-24.7-11-14.22-18.26-19.41-20.14-19.74Z"/></g></g></svg>