<svg xmlns="http://www.w3.org/2000/svg" viewBox="0 0 210.61 133.01"><defs><style>.cls-1{fill:#fff;}</style></defs><title>envelope</title><g id="Layer_2" data-name="Layer 2"><g id="Layer_1-2" data-name="Layer 1"><path class="cls-1" d="M194,0H16.63A16.65,16.65,0,0,0,0,16.63v99.76A16.65,16.65,0,0,0,16.63,133H194a16.65,16.65,0,0,0,16.63-16.62V16.63A16.65,16.65,0,0,0,194,0Zm0,11.08a6.12,6.12,0,0,1,1,.09L111.46,66.83c-3.22,2.14-9.08,2.14-12.3,0L15.67,11.17a6.14,6.14,0,0,1,1-.09H194Zm0,110.85H16.63a5.55,5.55,0,0,1-5.55-5.54V21.44L93,76.05a23.63,23.63,0,0,0,24.59,0l81.92-54.61v95A5.54,5.54,0,0,1,194,121.93Z"/></g></g></svg>