<svg xmlns="http://www.w3.org/2000/svg" xmlns:xlink="http://www.w3.org/1999/xlink" viewBox="0 0 641.83 329.63"><defs><style>.cls-1{mask:url(#mask);filter:url(#luminosity-noclip-5);}.cls-153,.cls-2,.cls-24,.cls-4,.cls-6,.cls-8{mix-blend-mode:multiply;}.cls-2{fill:url(#linear-gradient);}.cls-3{mask:url(#mask-2);filter:url(#luminosity-noclip-6);}.cls-4{fill:url(#linear-gradient-2);}.cls-5{mask:url(#mask-3);filter:url(#luminosity-noclip-7);}.cls-6{fill:url(#linear-gradient-3);}.cls-7{mask:url(#mask-4);filter:url(#luminosity-noclip-8);}.cls-8{fill:url(#linear-gradient-4);}.cls-9{isolation:isolate;}.cls-10{mask:url(#mask-5);}.cls-11{fill:url(#linear-gradient-5);}.cls-12{mask:url(#mask-6);}.cls-13,.cls-15{opacity:0.5;}.cls-13{fill:url(#linear-gradient-6);}.cls-14{mask:url(#mask-7);}.cls-15{fill:url(#linear-gradient-7);}.cls-16,.cls-20{fill:#163f59;}.cls-16{opacity:0.1;}.cls-17{mask:url(#mask-8);}.cls-18{fill:url(#linear-gradient-8);}.cls-153,.cls-19{opacity:0.3;}.cls-21{fill:#e5e8ec;}.cls-22{fill:#909697;}.cls-23{fill:#b7bec0;}.cls-24{opacity:0.2;}.cls-25{fill:#fff;}.cls-26{fill:#fefefe;}.cls-27{fill:#fdfdfe;}.cls-28{fill:#fcfdfd;}.cls-29{fill:#fbfcfd;}.cls-30{fill:#fafbfc;}.cls-31{fill:#f9fafb;}.cls-32{fill:#f8f9fb;}.cls-33{fill:#f7f9fa;}.cls-34{fill:#f6f8f9;}.cls-35{fill:#f5f7f9;}.cls-36{fill:#f4f6f8;}.cls-37{fill:#f3f5f8;}.cls-38{fill:#f2f4f7;}.cls-39{fill:#f1f4f6;}.cls-40{fill:#f0f3f6;}.cls-41{fill:#eff2f5;}.cls-42{fill:#eef1f4;}.cls-43{fill:#edf0f4;}.cls-44{fill:#ecf0f3;}.cls-45{fill:#ebeff3;}.cls-46{fill:#eaeef2;}.cls-47{fill:#e9edf1;}.cls-48{fill:#e8ecf1;}.cls-49{fill:#e7ecf0;}.cls-50{fill:#e6ebef;}.cls-51{fill:#e5eaef;}.cls-52{fill:#e4e9ee;}.cls-53{fill:#e3e8ee;}.cls-54{fill:#e2e7ed;}.cls-55{fill:#e1e7ec;}.cls-56{fill:#e0e6ec;}.cls-57{fill:#dfe5eb;}.cls-58{fill:#dee4ea;}.cls-59{fill:#dde3ea;}.cls-60{fill:#dce3e9;}.cls-61{fill:#dbe2e9;}.cls-62{fill:#dae1e8;}.cls-63{fill:#d9e0e7;}.cls-64{fill:#d8dfe7;}.cls-65{fill:#d7dfe6;}.cls-66{fill:#d6dee5;}.cls-67{fill:#d5dde5;}.cls-68{fill:#d4dce4;}.cls-69{fill:#d3dbe4;}.cls-70{fill:#d2dae3;}.cls-71{fill:#d1dae2;}.cls-72{fill:#d0d9e2;}.cls-73{fill:#cfd8e1;}.cls-74{fill:#ced7e0;}.cls-75{fill:#cdd6e0;}.cls-76{fill:#ccd6df;}.cls-77{fill:#cbd5df;}.cls-78{fill:#cbd4de;}.cls-79{fill:#cad3dd;}.cls-80{fill:#c9d2dd;}.cls-81{fill:#c8d2dc;}.cls-82{fill:#c7d1dc;}.cls-83{fill:#c6d0db;}.cls-84{fill:#c5cfda;}.cls-85{fill:#c4ceda;}.cls-86{fill:#c3ced9;}.cls-87{fill:#c2cdd8;}.cls-88{fill:#c1ccd8;}.cls-89{fill:#c0cbd7;}.cls-90{fill:#bfcad7;}.cls-91{fill:#bec9d6;}.cls-92{fill:#bdc9d5;}.cls-93{fill:#bcc8d5;}.cls-94{fill:#bbc7d4;}.cls-95{fill:#bac6d3;}.cls-96{fill:#b9c5d3;}.cls-97{fill:#b8c5d2;}.cls-98{fill:#b7c4d2;}.cls-99{fill:#b6c3d1;}.cls-100{fill:#b5c2d0;}.cls-101{fill:#b4c1d0;}.cls-102{fill:#b3c1cf;}.cls-103{fill:#b2c0ce;}.cls-104{fill:#b1bfce;}.cls-105{fill:#b0becd;}.cls-106{fill:#afbdcd;}.cls-107{fill:#aebccc;}.cls-108{fill:#adbccb;}.cls-109{fill:#acbbcb;}.cls-110{fill:#abbaca;}.cls-111{fill:#aab9c9;}.cls-112{fill:#a9b8c9;}.cls-113{fill:#a8b8c8;}.cls-114{fill:#a7b7c8;}.cls-115{fill:#a6b6c7;}.cls-116{fill:#a5b5c6;}.cls-117{fill:#a4b4c6;}.cls-118{fill:#a3b4c5;}.cls-119{fill:#a2b3c4;}.cls-120{fill:#a1b2c4;}.cls-121{fill:#a0b1c3;}.cls-122{fill:#9fb0c3;}.cls-123{fill:#9eafc2;}.cls-124{fill:#9dafc1;}.cls-125{fill:#9caec1;}.cls-126{fill:#9badc0;}.cls-127{fill:#9aacbf;}.cls-128{fill:#99abbf;}.cls-129{fill:#98abbe;}.cls-130{fill:#97aabe;}.cls-131{fill:#96a9bd;}.cls-132{fill:#edeef0;}.cls-133{fill:#d1dbea;}.cls-134{fill:#b0bfde;}.cls-135{fill:#ff7f41;}.cls-136{fill:#dee7ec;}.cls-137{fill:#212322;}.cls-138{fill:#081832;}.cls-139{fill:#1f2a44;}.cls-140{fill:#f3f3f3;}.cls-141{fill:url(#linear-gradient-9);}.cls-142,.cls-143,.cls-144,.cls-161{fill:none;}.cls-142{stroke:#a5b6be;}.cls-142,.cls-143,.cls-144{stroke-width:1.62px;}.cls-143{stroke:#d9e1e4;}.cls-144{stroke:#fff;}.cls-145{fill:#969c9e;}.cls-146{fill:#ff876c;}.cls-147{fill:#484f59;}.cls-148{fill:#003a70;}.cls-149{fill:#01c6da;}.cls-150{fill:#ef3c24;}.cls-151{fill:#f80;}.cls-152{fill:#dde5ed;}.cls-154{fill:#e4eef3;}.cls-155{fill:#161711;}.cls-156{fill:#194866;}.cls-157{fill:#3c463b;}.cls-158{fill:#d9e1e2;}.cls-159{fill:#ee7f00;}.cls-160{fill:#b5d1de;}.cls-161{stroke:#879ba6;stroke-width:2.28px;}.cls-162,.cls-165{fill:#d8e5ed;}.cls-162{stroke:#b5d1de;stroke-width:1.52px;}.cls-163{fill:#f5b1ae;}.cls-164{fill:#b0d9ef;}.cls-166{fill:#b2ddc9;}.cls-167{filter:url(#luminosity-noclip-4);}.cls-168{filter:url(#luminosity-noclip-3);}.cls-169{filter:url(#luminosity-noclip-2);}.cls-170{filter:url(#luminosity-noclip);}</style><filter id="luminosity-noclip" x="0" y="-8569.3" width="180.77" height="32766" filterUnits="userSpaceOnUse" color-interpolation-filters="sRGB"><feFlood flood-color="#fff" result="bg"/><feBlend in="SourceGraphic" in2="bg"/></filter><mask id="mask" x="0" y="-8569.3" width="180.77" height="32766" maskUnits="userSpaceOnUse"><g class="cls-170"/></mask><linearGradient id="linear-gradient" x1="90.38" y1="252.13" x2="90.38" y2="292.82" gradientUnits="userSpaceOnUse"><stop offset="0" stop-color="#fff"/><stop offset="1"/></linearGradient><filter id="luminosity-noclip-2" x="22.86" y="-8569.3" width="76.4" height="32766" filterUnits="userSpaceOnUse" color-interpolation-filters="sRGB"><feFlood flood-color="#fff" result="bg"/><feBlend in="SourceGraphic" in2="bg"/></filter><mask id="mask-2" x="22.86" y="-8569.3" width="76.4" height="32766" maskUnits="userSpaceOnUse"><g class="cls-169"/></mask><linearGradient id="linear-gradient-2" x1="22.86" y1="167.86" x2="99.26" y2="167.86" xlink:href="#linear-gradient"/><filter id="luminosity-noclip-3" x="572.5" y="-8569.3" width="69.33" height="32766" filterUnits="userSpaceOnUse" color-interpolation-filters="sRGB"><feFlood flood-color="#fff" result="bg"/><feBlend in="SourceGraphic" in2="bg"/></filter><mask id="mask-3" x="572.5" y="-8569.3" width="69.33" height="32766" maskUnits="userSpaceOnUse"><g class="cls-168"/></mask><linearGradient id="linear-gradient-3" x1="572.5" y1="53.89" x2="641.83" y2="53.89" xlink:href="#linear-gradient"/><filter id="luminosity-noclip-4" x="151.78" y="-8569.3" width="443.04" height="32766" filterUnits="userSpaceOnUse" color-interpolation-filters="sRGB"><feFlood flood-color="#fff" result="bg"/><feBlend in="SourceGraphic" in2="bg"/></filter><mask id="mask-4" x="151.78" y="-8569.3" width="443.04" height="32766" maskUnits="userSpaceOnUse"><g class="cls-167"/></mask><linearGradient id="linear-gradient-4" x1="151.78" y1="11.02" x2="594.82" y2="11.02" gradientUnits="userSpaceOnUse"><stop offset="0"/><stop offset="1" stop-color="gray"/></linearGradient><filter id="luminosity-noclip-5" x="0" y="275.3" width="180.77" height="20.08" filterUnits="userSpaceOnUse" color-interpolation-filters="sRGB"><feFlood flood-color="#fff" result="bg"/><feBlend in="SourceGraphic" in2="bg"/></filter><mask id="mask-5" x="0" y="275.3" width="180.77" height="20.08" maskUnits="userSpaceOnUse"><g class="cls-1"><path class="cls-2" d="M0,295.26s4.18-.91,10.17-5c5.79-4,8.51-6.37,14.49-6.37s14.28,6.37,25.5,2.39,17.91-7.69,27.36-8.22,28.42,7.16,36.84,9.28,13.49-9.19,23.5-11.4c14.38-3.19,19.3,7.16,26.31,11.93,8.61,5.86,11.23,7.17,16.49,7.43S0,295.26,0,295.26Z"/></g></mask><linearGradient id="linear-gradient-5" x1="90.38" y1="252.13" x2="90.38" y2="292.82" gradientUnits="userSpaceOnUse"><stop offset="0" stop-color="#fff"/><stop offset="1" stop-color="#fff"/></linearGradient><filter id="luminosity-noclip-6" x="22.86" y="151.96" width="76.4" height="31.8" filterUnits="userSpaceOnUse" color-interpolation-filters="sRGB"><feFlood flood-color="#fff" result="bg"/><feBlend in="SourceGraphic" in2="bg"/></filter><mask id="mask-6" x="22.86" y="151.96" width="76.4" height="31.8" maskUnits="userSpaceOnUse"><g class="cls-3"><path class="cls-4" d="M22.91,183.77c0-.44-.05-.88-.05-1.33a16.29,16.29,0,0,1,16.29-16.29h.25A16.29,16.29,0,0,1,71,163,13,13,0,0,1,82.8,175.15a16.72,16.72,0,0,1,2-.13,16.29,16.29,0,0,1,14.44,8.75"/></g></mask><linearGradient id="linear-gradient-6" x1="22.86" y1="167.86" x2="99.26" y2="167.86" xlink:href="#linear-gradient-5"/><filter id="luminosity-noclip-7" x="572.5" y="38.26" width="69.33" height="31.25" filterUnits="userSpaceOnUse" color-interpolation-filters="sRGB"><feFlood flood-color="#fff" result="bg"/><feBlend in="SourceGraphic" in2="bg"/></filter><mask id="mask-7" x="572.5" y="38.26" width="69.33" height="31.25" maskUnits="userSpaceOnUse"><g class="cls-5"><path class="cls-6" d="M572.5,69.51h69.32c0-.06,0-.12,0-.19a13.94,13.94,0,0,0-13.94-13.93,14.11,14.11,0,0,0-3.76.52,20.46,20.46,0,0,0-40.72,2.8s0,.09,0,.14A12.47,12.47,0,0,0,572.5,69.51Z"/></g></mask><linearGradient id="linear-gradient-7" x1="572.5" y1="53.89" x2="641.83" y2="53.89" xlink:href="#linear-gradient-5"/><filter id="luminosity-noclip-8" x="151.78" y="0" width="443.04" height="22.04" filterUnits="userSpaceOnUse" color-interpolation-filters="sRGB"><feFlood flood-color="#fff" result="bg"/><feBlend in="SourceGraphic" in2="bg"/></filter><mask id="mask-8" x="151.78" y="0" width="443.04" height="22.04" maskUnits="userSpaceOnUse"><g class="cls-7"><rect class="cls-8" x="151.78" width="443.04" height="22.04"/></g></mask><linearGradient id="linear-gradient-8" x1="151.78" y1="11.02" x2="594.82" y2="11.02" xlink:href="#linear-gradient-5"/><linearGradient id="linear-gradient-9" x1="520.83" y1="174.02" x2="586.58" y2="174.02" gradientUnits="userSpaceOnUse"><stop offset="0" stop-color="#a5b6be"/><stop offset="1" stop-color="#d9e1e4"/></linearGradient></defs><title>services-art</title><g class="cls-9"><g id="Layer_2" data-name="Layer 2"><g id="Layer_1-2" data-name="Layer 1"><g class="cls-10"><path class="cls-11" d="M0,295.26s4.18-.91,10.17-5c5.79-4,8.51-6.37,14.49-6.37s14.28,6.37,25.5,2.39,17.91-7.69,27.36-8.22,28.42,7.16,36.84,9.28,13.49-9.19,23.5-11.4c14.38-3.19,19.3,7.16,26.31,11.93,8.61,5.86,11.23,7.17,16.49,7.43S0,295.26,0,295.26Z"/></g><g class="cls-12"><path class="cls-13" d="M22.91,183.77c0-.44-.05-.88-.05-1.33a16.29,16.29,0,0,1,16.29-16.29h.25A16.29,16.29,0,0,1,71,163,13,13,0,0,1,82.8,175.15a16.72,16.72,0,0,1,2-.13,16.29,16.29,0,0,1,14.44,8.75"/></g><g class="cls-14"><path class="cls-15" d="M572.5,69.51h69.32c0-.06,0-.12,0-.19a13.94,13.94,0,0,0-13.94-13.93,14.11,14.11,0,0,0-3.76.52,20.46,20.46,0,0,0-40.72,2.8s0,.09,0,.14A12.47,12.47,0,0,0,572.5,69.51Z"/></g><rect class="cls-16" x="151.78" width="443.04" height="295.38"/><g class="cls-17"><rect class="cls-18" x="151.78" width="443.04" height="22.04"/></g><g class="cls-19"><rect class="cls-20" x="158.92" y="8.13" width="6.4" height="5.32"/></g><g class="cls-19"><rect class="cls-20" x="171.39" y="8.13" width="6.4" height="5.32"/></g><g class="cls-19"><rect class="cls-20" x="183.87" y="8.13" width="6.4" height="5.32"/></g><rect class="cls-21" x="318.07" y="33.41" width="122.19" height="43.57"/><rect class="cls-22" x="325.14" y="41.71" width="93.22" height="3.04"/><rect class="cls-23" x="325.14" y="48.21" width="103.32" height="2.29"/><rect class="cls-23" x="324.7" y="53.53" width="92.84" height="2.27"/><rect class="cls-23" x="324.7" y="58.65" width="100.34" height="2.28"/><rect class="cls-23" x="324.7" y="64.18" width="23.1" height="2.28"/><g class="cls-24"><rect class="cls-25" x="428.05" y="16.69" width="99.65" height="56.98"/><rect class="cls-26" x="428.08" y="16.74" width="99.51" height="56.86"/><rect class="cls-27" x="428.1" y="16.79" width="99.38" height="56.74"/><rect class="cls-28" x="428.13" y="16.84" width="99.24" height="56.63"/><rect class="cls-29" x="428.16" y="16.88" width="99.1" height="56.51"/><rect class="cls-30" x="428.19" y="16.93" width="98.97" height="56.4"/><rect class="cls-31" x="428.22" y="16.98" width="98.83" height="56.28"/><rect class="cls-32" x="428.24" y="17.03" width="98.69" height="56.16"/><rect class="cls-33" x="428.27" y="17.08" width="98.55" height="56.05"/><rect class="cls-34" x="428.3" y="17.13" width="98.42" height="55.93"/><rect class="cls-35" x="428.33" y="17.18" width="98.28" height="55.82"/><rect class="cls-36" x="428.36" y="17.22" width="98.14" height="55.7"/><rect class="cls-37" x="428.38" y="17.27" width="98.01" height="55.59"/><rect class="cls-38" x="428.41" y="17.32" width="97.87" height="55.47"/><rect class="cls-39" x="428.44" y="17.37" width="97.73" height="55.35"/><rect class="cls-40" x="428.47" y="17.42" width="97.59" height="55.24"/><rect class="cls-41" x="428.5" y="17.47" width="97.46" height="55.12"/><rect class="cls-42" x="428.52" y="17.52" width="97.32" height="55.01"/><rect class="cls-43" x="428.55" y="17.56" width="97.18" height="54.89"/><rect class="cls-44" x="428.58" y="17.61" width="97.05" height="54.77"/><rect class="cls-45" x="428.61" y="17.66" width="96.91" height="54.66"/><rect class="cls-46" x="428.63" y="17.71" width="96.77" height="54.54"/><rect class="cls-47" x="428.66" y="17.76" width="96.63" height="54.43"/><rect class="cls-48" x="428.69" y="17.81" width="96.5" height="54.31"/><rect class="cls-49" x="428.72" y="17.86" width="96.36" height="54.19"/><rect class="cls-50" x="428.75" y="17.91" width="96.22" height="54.08"/><rect class="cls-51" x="428.77" y="17.95" width="96.09" height="53.96"/><rect class="cls-52" x="428.8" y="18" width="95.95" height="53.85"/><rect class="cls-53" x="428.83" y="18.05" width="95.81" height="53.73"/><rect class="cls-54" x="428.86" y="18.1" width="95.68" height="53.61"/><rect class="cls-55" x="428.89" y="18.15" width="95.54" height="53.5"/><rect class="cls-56" x="428.91" y="18.2" width="95.4" height="53.38"/><rect class="cls-57" x="428.94" y="18.25" width="95.26" height="53.27"/><rect class="cls-58" x="428.97" y="18.29" width="95.13" height="53.15"/><rect class="cls-59" x="429" y="18.34" width="94.99" height="53.03"/><rect class="cls-60" x="429.03" y="18.39" width="94.85" height="52.92"/><rect class="cls-61" x="429.05" y="18.44" width="94.72" height="52.8"/><rect class="cls-62" x="429.08" y="18.49" width="94.58" height="52.69"/><rect class="cls-63" x="429.11" y="18.54" width="94.44" height="52.57"/><rect class="cls-64" x="429.14" y="18.59" width="94.3" height="52.46"/><rect class="cls-65" x="429.17" y="18.63" width="94.17" height="52.34"/><rect class="cls-66" x="429.19" y="18.68" width="94.03" height="52.22"/><rect class="cls-67" x="429.22" y="18.73" width="93.89" height="52.11"/><rect class="cls-68" x="429.25" y="18.78" width="93.76" height="51.99"/><rect class="cls-69" x="429.28" y="18.83" width="93.62" height="51.88"/><rect class="cls-70" x="429.31" y="18.88" width="93.48" height="51.76"/><rect class="cls-71" x="429.33" y="18.93" width="93.34" height="51.64"/><rect class="cls-72" x="429.36" y="18.98" width="93.21" height="51.53"/><rect class="cls-73" x="429.39" y="19.02" width="93.07" height="51.41"/><rect class="cls-74" x="429.42" y="19.07" width="92.93" height="51.3"/><rect class="cls-75" x="429.45" y="19.12" width="92.8" height="51.18"/><rect class="cls-76" x="429.47" y="19.17" width="92.66" height="51.06"/><rect class="cls-77" x="429.5" y="19.22" width="92.52" height="50.95"/><rect class="cls-78" x="429.53" y="19.27" width="92.39" height="50.83"/><rect class="cls-79" x="429.56" y="19.32" width="92.25" height="50.72"/><rect class="cls-80" x="429.59" y="19.36" width="92.11" height="50.6"/><rect class="cls-81" x="429.61" y="19.41" width="91.97" height="50.48"/><rect class="cls-82" x="429.64" y="19.46" width="91.84" height="50.37"/><rect class="cls-83" x="429.67" y="19.51" width="91.7" height="50.25"/><rect class="cls-84" x="429.7" y="19.56" width="91.56" height="50.14"/><rect class="cls-85" x="429.72" y="19.61" width="91.43" height="50.02"/><rect class="cls-86" x="429.75" y="19.66" width="91.29" height="49.91"/><rect class="cls-87" x="429.78" y="19.7" width="91.15" height="49.79"/><rect class="cls-88" x="429.81" y="19.75" width="91.01" height="49.67"/><rect class="cls-89" x="429.84" y="19.8" width="90.88" height="49.56"/><rect class="cls-90" x="429.86" y="19.85" width="90.74" height="49.44"/><rect class="cls-91" x="429.89" y="19.9" width="90.6" height="49.33"/><rect class="cls-92" x="429.92" y="19.95" width="90.47" height="49.21"/><rect class="cls-93" x="429.95" y="20" width="90.33" height="49.09"/><rect class="cls-94" x="429.98" y="20.05" width="90.19" height="48.98"/><rect class="cls-95" x="430" y="20.09" width="90.05" height="48.86"/><rect class="cls-96" x="430.03" y="20.14" width="89.92" height="48.75"/><rect class="cls-97" x="430.06" y="20.19" width="89.78" height="48.63"/><rect class="cls-98" x="430.09" y="20.24" width="89.64" height="48.51"/><rect class="cls-99" x="430.12" y="20.29" width="89.51" height="48.4"/><rect class="cls-100" x="430.14" y="20.34" width="89.37" height="48.28"/><rect class="cls-101" x="430.17" y="20.39" width="89.23" height="48.17"/><rect class="cls-102" x="430.2" y="20.43" width="89.1" height="48.05"/><rect class="cls-103" x="430.23" y="20.48" width="88.96" height="47.93"/><rect class="cls-104" x="430.26" y="20.53" width="88.82" height="47.82"/><rect class="cls-105" x="430.28" y="20.58" width="88.68" height="47.7"/><rect class="cls-106" x="430.31" y="20.63" width="88.55" height="47.59"/><rect class="cls-107" x="430.34" y="20.68" width="88.41" height="47.47"/><rect class="cls-108" x="430.37" y="20.73" width="88.27" height="47.35"/><rect class="cls-109" x="430.4" y="20.77" width="88.14" height="47.24"/><rect class="cls-110" x="430.42" y="20.82" width="88" height="47.12"/><rect class="cls-111" x="430.45" y="20.87" width="87.86" height="47.01"/><rect class="cls-112" x="430.48" y="20.92" width="87.72" height="46.89"/><rect class="cls-113" x="430.51" y="20.97" width="87.59" height="46.78"/><rect class="cls-114" x="430.54" y="21.02" width="87.45" height="46.66"/><rect class="cls-115" x="430.56" y="21.07" width="87.31" height="46.54"/><rect class="cls-116" x="430.59" y="21.12" width="87.18" height="46.43"/><rect class="cls-117" x="430.62" y="21.16" width="87.04" height="46.31"/><rect class="cls-118" x="430.65" y="21.21" width="86.9" height="46.2"/><rect class="cls-119" x="430.68" y="21.26" width="86.77" height="46.08"/><rect class="cls-120" x="430.7" y="21.31" width="86.63" height="45.96"/><rect class="cls-121" x="430.73" y="21.36" width="86.49" height="45.85"/><rect class="cls-122" x="430.76" y="21.41" width="86.35" height="45.73"/><rect class="cls-123" x="430.79" y="21.46" width="86.22" height="45.62"/><rect class="cls-124" x="430.82" y="21.5" width="86.08" height="45.5"/><rect class="cls-125" x="430.84" y="21.55" width="85.94" height="45.38"/><rect class="cls-126" x="430.87" y="21.6" width="85.81" height="45.27"/><rect class="cls-127" x="430.9" y="21.65" width="85.67" height="45.15"/><rect class="cls-128" x="430.93" y="21.7" width="85.53" height="45.04"/><rect class="cls-129" x="430.95" y="21.75" width="85.39" height="44.92"/><rect class="cls-130" x="430.98" y="21.8" width="85.26" height="44.8"/><rect class="cls-131" x="431.01" y="21.84" width="85.12" height="44.69"/></g><path class="cls-132" d="M482.36,65.15l2.58-3.49a14.57,14.57,0,0,1,3.15-3.22c2-1.51,4.09-.87,5.89.77a6.36,6.36,0,0,1,2.07,3s-1.05,2.93-3.62,2.74-8,2.77-8.47,1.82A4.41,4.41,0,0,0,482.36,65.15Z"/><polygon class="cls-132" points="495.64 63.42 498.95 59.89 501.88 56.48 500.93 56.13 498.51 58.27 493.25 59.68 494.05 60.93 495.64 63.42"/><polygon class="cls-132" points="497.12 57.23 498.73 53.57 497.9 52.99 495.67 56.31 492.24 58.84 494.05 60.93 497.12 57.23"/><polygon class="cls-132" points="496.26 52.43 495.17 55.42 494.71 57.51 492.93 59.05 490.98 57.86 492.95 56.27 495.05 52.57 496.26 52.43"/><polygon class="cls-132" points="493.1 52 492.05 57.66 490.72 58.66 489.33 57.93 490.73 55.57 492.2 52.46 493.1 52"/><path class="cls-132" d="M482.66,68.47a5.88,5.88,0,0,1,4.44-1.72s6.84.35,7.89-.72,3.91-1.9,3.91-1.9,1-.92-1.75-1.09a11,11,0,0,0-3.39.34s-3.83-1.58-5-1.36c-2.46.45-6.49,5.2-6.49,5.2S482.44,68.72,482.66,68.47Z"/><path class="cls-132" d="M558.34,180.71c-.75,1.4-5.55,2.77-5.55,2.77l-3.43-3.84h2.18l1.56-3.5,4.67,1.79S558.8,179.86,558.34,180.71Z"/><path class="cls-133" d="M518.82,112.77s-1.56,7.78-24.9,3.29-21.42-9.56-21.42-9.56l-.36-6,12.14-13L490.81,93l-.31,1.3A3.27,3.27,0,0,0,493,95.74c1.56,0,8.4,2.09,21.78,2.69C520.94,98.7,519.13,111.28,518.82,112.77Z"/><path class="cls-134" d="M514.77,98.43l-.79,0a30,30,0,0,1,.94,9s-.53,7.89-24.26,6.26a103.23,103.23,0,0,1-10.51-1.19,83.34,83.34,0,0,0,13.77,3.63c23.34,4.49,24.9-3.29,24.9-3.29C519.13,111.28,520.94,98.7,514.77,98.43Z"/><path class="cls-132" d="M484.28,89.16s-10.18-13.74,3.42-24.8c4.05-3.29-.93-1.5-5.6.59s-14.31,12.56-13.38,23,2.18,14.34,6.22,15.84S484.28,89.16,484.28,89.16Z"/><path class="cls-134" d="M489.86,101.35l1.91-4,.66-1.66a3.47,3.47,0,0,1-1.93-1.42l-.83,3.26L488,101.17l-3.8,4Z"/><path class="cls-133" d="M511,161.19l27.69-.59L550.25,122s7.46-23.31-6.85-23.61-30.8-.3-30.8-.3S503,106.5,511,161.19Z"/><path class="cls-132" d="M536.24,69.2s-14.56,13.54-12.75,18.23c.07.21,2.37,2.41,2.62,4.64s-.76,3.33-.76,4.16c0,.27-.73,2.07-.81,2.61-.34,2.41.89,4.4,1.91,4.15a68.44,68.44,0,0,0,7.43-2.88c.63-.35,1.23-.41,1.39-1.41.34-2.13,1.46-5.76,2.53-6.79,3.14-3,12-5.92,9.5-14.58C546.59,74.8,537.49,68.6,536.24,69.2Z"/><path class="cls-135" d="M526.42,103.55s-12.55,21.63-9,45.57c.29,1.89,2.53,3.24,2.53,3.24l3.09-2.7S522.8,122.56,526.42,103.55Z"/><polygon class="cls-134" points="526.87 102.97 527.55 107.75 536.35 100.44 535.33 98.66 526.87 102.97"/><polygon class="cls-134" points="524.29 99.89 524.54 98.28 522.93 101.04 522.85 106.11 526.32 103.08 524.29 99.89"/><path class="cls-136" d="M523.65,87.18s.69.16,2,.34A11.13,11.13,0,0,1,528,88c2.56,1.16,2.34,1.3,4,1.7a46.35,46.35,0,0,0,6.17.6s-2.14.8-3,1.14a5.56,5.56,0,0,1-4,0c-4.7-1.58-4.7-1.13-5.18-1.52A22.65,22.65,0,0,0,523.65,87.18Z"/><path class="cls-132" d="M531.07,75.44a40.56,40.56,0,0,1-3.85,2.09c-.57.28-1.31.62-1.36.85a5.76,5.76,0,0,0,.06,1.41c.05.35.22,1.7,1.35.68A44.79,44.79,0,0,0,531.07,75.44Z"/><path class="cls-137" d="M548.11,76.91c-.85-4.59-6.91-8.89-13.87-8.61a3.47,3.47,0,0,0,0,2.89,9.1,9.1,0,0,1,7.93,2.66c3.38,3.74-.8,3.28-.74,5,.06,1.41.17,2.67.17,2.67l-1.27,2.59.89,1s2.51-1.78,2.42-.68c-.1,1.34-1.86,2.79-2.08,3s-.61.59-.55.76a34.35,34.35,0,0,0-3,3.62c.46.41,1.6.28,3.09-.86C544.51,88.36,549.14,82.51,548.11,76.91Z"/><path class="cls-132" d="M543.61,84.07a2,2,0,1,1-2.56,3.17"/><path class="cls-136" d="M528.62,80.73A20.61,20.61,0,0,0,527,78.61c-.23-.12-.74-.46-.91-.29s-.29.88.16,2.15C526.35,80.79,526.62,80.22,528.62,80.73Z"/><rect class="cls-135" x="511.76" y="280.21" width="7.13" height="10.87"/><rect class="cls-135" x="563.73" y="280.21" width="5.77" height="10.87"/><path class="cls-138" d="M518.55,294.25h-5.21v-1.58l-2.26,1.58H498s.22-2.15,9.05-2.49c2.27-.08,3.85-3.17,3.85-3.17s1.14-1,2.84,1.36c.44.62,5.2-.56,5.2-.56S519.35,292.56,518.55,294.25Z"/><path class="cls-139" d="M512,160.3l-.62,58.88,12.45,6.87a85,85,0,0,0,8.4-32C533.13,176.14,512,160.3,512,160.3Z"/><path class="cls-139" d="M512,160.3l27.39,64.55,5,6.88,18.89,53.64,7.14-2s2.6-29.48-4.87-42-11.2-19.42-11.2-19.42L537.8,158.5Z"/><rect class="cls-25" x="519.48" y="130.92" width="68.46" height="48.81"/><rect class="cls-140" x="520.83" y="140.73" width="65.76" height="9.2"/><rect class="cls-140" x="520.83" y="159.26" width="65.76" height="9.2"/><rect class="cls-141" x="520.83" y="169.42" width="65.76" height="9.2"/><rect class="cls-21" x="519.48" y="130.92" width="68.46" height="9.12"/><line class="cls-142" x1="524.18" y1="135.48" x2="553.06" y2="135.48"/><line class="cls-142" x1="566.65" y1="135.48" x2="572.26" y2="135.48"/><line class="cls-142" x1="576.18" y1="135.48" x2="581.79" y2="135.48"/><line class="cls-143" x1="524.18" y1="145.31" x2="553.06" y2="145.31"/><line class="cls-143" x1="566.65" y1="145.31" x2="572.26" y2="145.31"/><line class="cls-143" x1="576.18" y1="145.31" x2="581.79" y2="145.31"/><line class="cls-143" x1="524.18" y1="154.63" x2="553.06" y2="154.63"/><line class="cls-143" x1="566.65" y1="154.63" x2="572.26" y2="154.63"/><line class="cls-143" x1="576.18" y1="154.63" x2="581.79" y2="154.63"/><line class="cls-143" x1="524.18" y1="163.95" x2="553.06" y2="163.95"/><line class="cls-143" x1="566.65" y1="163.95" x2="572.26" y2="163.95"/><line class="cls-143" x1="576.18" y1="163.95" x2="581.79" y2="163.95"/><line class="cls-144" x1="524.18" y1="174.23" x2="553.06" y2="174.23"/><line class="cls-144" x1="566.65" y1="174.23" x2="572.26" y2="174.23"/><line class="cls-144" x1="576.18" y1="174.23" x2="581.79" y2="174.23"/><path class="cls-139" d="M519.53,286.39c2.25-11.55,7.21-31.7,7.38-39.12A104.89,104.89,0,0,0,525,224l-13.69-4.78-.06,67.21Z"/><path class="cls-138" d="M563,296.24h3.53l1.11-1.12.48-2.72,1.12,1.12,3.68-3.68c-.64-1.76-3.2-3.68-3.2-3.68s-2.53,4.21-3.28,4.08c-2.89-.48-3,1-3,1S564.49,294.57,563,296.24Z"/><path class="cls-138" d="M566.62,292.25a4,4,0,0,1-2.72,1.55c-8.83.34-9.06,2.49-9.06,2.49h11.78Z"/><path class="cls-133" d="M548.38,120.85l16.18,24.8,2.18.3-.62,2.09,11.72-.89L580.43,137l-22.72-33.47s-7.07-6.43-18.67-4.78C530.64,99.92,547.13,118.75,548.38,120.85Z"/><path class="cls-132" d="M566.74,147.15l-12,33.39s2.62.79,4.14-.56c4.12-3.66,11.29-13.62,13.79-19.09a93.3,93.3,0,0,0,5.29-15.54Z"/><path class="cls-134" d="M576.87,140.67s-7.24,3.47-11.08,5.15l1,.13-.62,2.09,4-.34,5.68-1.34.31-2.4H574.4Z"/><rect class="cls-25" x="426.46" y="6.98" width="93.66" height="56.79"/><rect class="cls-145" x="430.77" y="10.14" width="27.9" height="2.41"/><rect class="cls-23" x="434.88" y="16.9" width="7.33" height="1.48"/><rect class="cls-23" x="449.21" y="16.9" width="7.33" height="1.48"/><rect class="cls-23" x="464.8" y="16.9" width="7.33" height="1.48"/><rect class="cls-23" x="507.23" y="16.9" width="7.33" height="1.48"/><rect class="cls-146" x="430.67" y="16.23" width="2.81" height="2.81"/><rect class="cls-147" x="444.96" y="16.23" width="2.81" height="2.81"/><rect class="cls-148" x="460.47" y="16.23" width="2.81" height="2.81"/><rect class="cls-23" x="436.58" y="58.91" width="78.19" height="0.19"/><rect class="cls-23" x="436.58" y="47.55" width="78.19" height="0.19"/><rect class="cls-23" x="436.58" y="36.19" width="78.19" height="0.19"/><polygon class="cls-147" points="514.75 39.52 505.14 34.32 495.08 38.29 485.38 31.48 477.85 37.97 469.3 38.52 463.68 29.7 457.15 26.69 450.35 32.43 443.76 32.17 436.74 38.41 436.22 37.81 443.47 31.37 450.08 31.63 457.02 25.75 464.23 29.08 469.71 37.7 477.54 37.2 485.33 30.48 495.18 37.4 505.19 33.45 515.13 38.82 514.75 39.52"/><rect class="cls-23" x="436.58" y="24.83" width="78.19" height="0.19"/><rect class="cls-23" x="430.77" y="58.61" width="3.68" height="0.79"/><rect class="cls-23" x="430.77" y="47.25" width="3.68" height="0.79"/><rect class="cls-23" x="430.77" y="35.89" width="3.68" height="0.79"/><rect class="cls-23" x="430.77" y="24.53" width="3.68" height="0.79"/><polygon class="cls-135" points="487 54.63 478.88 53.81 471.02 50.93 462.47 51.19 457.42 45.88 448.61 44.62 444.67 53.27 436.53 54.35 436.43 53.57 444.13 52.54 448.13 43.75 457.81 45.13 462.8 50.39 471.15 50.13 479.1 53.04 486.88 53.82 491.97 51.78 497.76 44.07 503.2 50.87 506.03 50.17 514.14 42.58 514.69 43.16 506.42 50.89 502.9 51.76 497.78 45.36 492.47 52.44 487 54.63"/><polygon class="cls-148" points="451.29 51.31 444.34 45.7 436.37 49.04 436.06 48.31 444.47 44.79 451.26 50.27 463.08 39.5 471.76 43.03 480.71 48.9 484.32 42.02 488.49 38.89 493.66 30.46 499.91 33.61 505.04 39 510.24 38.01 514.38 33.1 514.98 33.61 510.66 38.74 504.76 39.86 499.38 34.21 493.95 31.49 489.02 39.48 484.87 42.6 481.01 50.04 471.4 43.72 463.24 40.42 451.29 51.31"/><path class="cls-149" d="M445.59,45.18a1.12,1.12,0,1,1-1.12-1.12A1.12,1.12,0,0,1,445.59,45.18Z"/><path class="cls-149" d="M452.33,50.66a1.12,1.12,0,1,1-1.12-1.12A1.12,1.12,0,0,1,452.33,50.66Z"/><path class="cls-149" d="M464.35,40a1.12,1.12,0,1,1-1.12-1.13A1.12,1.12,0,0,1,464.35,40Z"/><path class="cls-149" d="M472.81,43.26a1.13,1.13,0,1,1-1.13-1.12A1.13,1.13,0,0,1,472.81,43.26Z"/><path class="cls-149" d="M481.92,49.4a1.12,1.12,0,1,1-1.12-1.12A1.12,1.12,0,0,1,481.92,49.4Z"/><path class="cls-149" d="M485.62,42.34a1.13,1.13,0,0,1-2.25,0,1.13,1.13,0,1,1,2.25,0Z"/><path class="cls-149" d="M490,39.1A1.12,1.12,0,1,1,488.92,38,1.12,1.12,0,0,1,490,39.1Z"/><path class="cls-149" d="M494.8,31.11A1.13,1.13,0,1,1,493.68,30,1.12,1.12,0,0,1,494.8,31.11Z"/><path class="cls-149" d="M501,33.88a1.13,1.13,0,1,1-1.13-1.12A1.12,1.12,0,0,1,501,33.88Z"/><path class="cls-149" d="M506,39.43a1.13,1.13,0,1,1-1.13-1.12A1.13,1.13,0,0,1,506,39.43Z"/><path class="cls-149" d="M511.31,38.18a1.12,1.12,0,1,1-1.12-1.13A1.12,1.12,0,0,1,511.31,38.18Z"/><rect class="cls-23" x="487.31" y="21.71" width="11.71" height="5.73" rx="0.74"/><polygon class="cls-23" points="493.16 29.19 492.42 27.91 491.69 26.63 493.16 26.63 494.64 26.63 493.9 27.91 493.16 29.19"/><rect class="cls-21" x="489.5" y="23.83" width="7.33" height="1.48"/><rect class="cls-21" x="318.07" y="127.84" width="122.19" height="43.57"/><rect class="cls-22" x="325.14" y="136.15" width="93.22" height="3.04"/><rect class="cls-23" x="325.14" y="142.64" width="103.32" height="2.29"/><rect class="cls-23" x="324.7" y="147.96" width="92.84" height="2.27"/><rect class="cls-23" x="324.7" y="153.08" width="100.34" height="2.28"/><rect class="cls-23" x="324.7" y="158.61" width="23.1" height="2.28"/><g class="cls-24"><rect class="cls-25" x="312.11" y="184.96" width="132.59" height="48.31"/><rect class="cls-26" x="312.15" y="185" width="132.5" height="48.21"/><rect class="cls-27" x="312.19" y="185.04" width="132.41" height="48.11"/><rect class="cls-28" x="312.23" y="185.08" width="132.32" height="48.01"/><rect class="cls-29" x="312.27" y="185.13" width="132.23" height="47.92"/><rect class="cls-30" x="312.31" y="185.17" width="132.15" height="47.82"/><rect class="cls-31" x="312.35" y="185.21" width="132.06" height="47.72"/><rect class="cls-32" x="312.39" y="185.25" width="131.97" height="47.62"/><rect class="cls-33" x="312.43" y="185.29" width="131.88" height="47.52"/><rect class="cls-34" x="312.47" y="185.33" width="131.79" height="47.42"/><rect class="cls-35" x="312.51" y="185.37" width="131.71" height="47.33"/><rect class="cls-36" x="312.55" y="185.41" width="131.62" height="47.23"/><rect class="cls-37" x="312.59" y="185.46" width="131.53" height="47.13"/><rect class="cls-38" x="312.63" y="185.5" width="131.44" height="47.03"/><rect class="cls-39" x="312.68" y="185.54" width="131.35" height="46.93"/><rect class="cls-40" x="312.72" y="185.58" width="131.26" height="46.83"/><rect class="cls-41" x="312.76" y="185.62" width="131.18" height="46.74"/><rect class="cls-42" x="312.8" y="185.66" width="131.09" height="46.64"/><rect class="cls-43" x="312.84" y="185.7" width="131" height="46.54"/><rect class="cls-44" x="312.88" y="185.74" width="130.91" height="46.44"/><rect class="cls-45" x="312.92" y="185.79" width="130.82" height="46.34"/><rect class="cls-46" x="312.96" y="185.83" width="130.74" height="46.24"/><rect class="cls-47" x="313" y="185.87" width="130.65" height="46.15"/><rect class="cls-48" x="313.04" y="185.91" width="130.56" height="46.05"/><rect class="cls-49" x="313.08" y="185.95" width="130.47" height="45.95"/><rect class="cls-50" x="313.12" y="185.99" width="130.38" height="45.85"/><rect class="cls-51" x="313.16" y="186.03" width="130.29" height="45.75"/><rect class="cls-52" x="313.2" y="186.07" width="130.21" height="45.66"/><rect class="cls-53" x="313.24" y="186.12" width="130.12" height="45.56"/><rect class="cls-54" x="313.28" y="186.16" width="130.03" height="45.46"/><rect class="cls-55" x="313.32" y="186.2" width="129.94" height="45.36"/><rect class="cls-56" x="313.36" y="186.24" width="129.85" height="45.26"/><rect class="cls-57" x="313.4" y="186.28" width="129.76" height="45.16"/><rect class="cls-58" x="313.44" y="186.32" width="129.68" height="45.07"/><rect class="cls-59" x="313.48" y="186.36" width="129.59" height="44.97"/><rect class="cls-60" x="313.52" y="186.4" width="129.5" height="44.87"/><rect class="cls-61" x="313.56" y="186.45" width="129.41" height="44.77"/><rect class="cls-62" x="313.61" y="186.49" width="129.32" height="44.67"/><rect class="cls-63" x="313.65" y="186.53" width="129.24" height="44.57"/><rect class="cls-64" x="313.69" y="186.57" width="129.15" height="44.48"/><rect class="cls-65" x="313.73" y="186.61" width="129.06" height="44.38"/><rect class="cls-66" x="313.77" y="186.65" width="128.97" height="44.28"/><rect class="cls-67" x="313.81" y="186.69" width="128.88" height="44.18"/><rect class="cls-68" x="313.85" y="186.73" width="128.79" height="44.08"/><rect class="cls-69" x="313.89" y="186.78" width="128.71" height="43.98"/><rect class="cls-70" x="313.93" y="186.82" width="128.62" height="43.89"/><rect class="cls-71" x="313.97" y="186.86" width="128.53" height="43.79"/><rect class="cls-72" x="314.01" y="186.9" width="128.44" height="43.69"/><rect class="cls-73" x="314.05" y="186.94" width="128.35" height="43.59"/><rect class="cls-74" x="314.09" y="186.98" width="128.26" height="43.49"/><rect class="cls-75" x="314.13" y="187.02" width="128.18" height="43.39"/><rect class="cls-76" x="314.17" y="187.06" width="128.09" height="43.3"/><rect class="cls-77" x="314.21" y="187.11" width="128" height="43.2"/><rect class="cls-78" x="314.25" y="187.15" width="127.91" height="43.1"/><rect class="cls-79" x="314.29" y="187.19" width="127.82" height="43"/><rect class="cls-80" x="314.33" y="187.23" width="127.74" height="42.9"/><rect class="cls-81" x="314.37" y="187.27" width="127.65" height="42.8"/><rect class="cls-82" x="314.41" y="187.31" width="127.56" height="42.71"/><rect class="cls-83" x="314.45" y="187.35" width="127.47" height="42.61"/><rect class="cls-84" x="314.5" y="187.39" width="127.38" height="42.51"/><rect class="cls-85" x="314.54" y="187.44" width="127.29" height="42.41"/><rect class="cls-86" x="314.58" y="187.48" width="127.21" height="42.31"/><rect class="cls-87" x="314.62" y="187.52" width="127.12" height="42.21"/><rect class="cls-88" x="314.66" y="187.56" width="127.03" height="42.12"/><rect class="cls-89" x="314.7" y="187.6" width="126.94" height="42.02"/><rect class="cls-90" x="314.74" y="187.64" width="126.85" height="41.92"/><rect class="cls-91" x="314.78" y="187.68" width="126.76" height="41.82"/><rect class="cls-92" x="314.82" y="187.72" width="126.68" height="41.72"/><rect class="cls-93" x="314.86" y="187.76" width="126.59" height="41.62"/><rect class="cls-94" x="314.9" y="187.81" width="126.5" height="41.53"/><rect class="cls-95" x="314.94" y="187.85" width="126.41" height="41.43"/><rect class="cls-96" x="314.98" y="187.89" width="126.32" height="41.33"/><rect class="cls-97" x="315.02" y="187.93" width="126.24" height="41.23"/><rect class="cls-98" x="315.06" y="187.97" width="126.15" height="41.13"/><rect class="cls-99" x="315.1" y="188.01" width="126.06" height="41.04"/><rect class="cls-100" x="315.14" y="188.05" width="125.97" height="40.94"/><rect class="cls-101" x="315.18" y="188.09" width="125.88" height="40.84"/><rect class="cls-102" x="315.22" y="188.14" width="125.79" height="40.74"/><rect class="cls-103" x="315.26" y="188.18" width="125.71" height="40.64"/><rect class="cls-104" x="315.3" y="188.22" width="125.62" height="40.54"/><rect class="cls-105" x="315.34" y="188.26" width="125.53" height="40.45"/><rect class="cls-106" x="315.38" y="188.3" width="125.44" height="40.35"/><rect class="cls-107" x="315.43" y="188.34" width="125.35" height="40.25"/><rect class="cls-108" x="315.47" y="188.38" width="125.26" height="40.15"/><rect class="cls-109" x="315.51" y="188.42" width="125.18" height="40.05"/><rect class="cls-110" x="315.55" y="188.47" width="125.09" height="39.95"/><rect class="cls-111" x="315.59" y="188.51" width="125" height="39.86"/><rect class="cls-112" x="315.63" y="188.55" width="124.91" height="39.76"/><rect class="cls-113" x="315.67" y="188.59" width="124.82" height="39.66"/><rect class="cls-114" x="315.71" y="188.63" width="124.74" height="39.56"/><rect class="cls-115" x="315.75" y="188.67" width="124.65" height="39.46"/><rect class="cls-116" x="315.79" y="188.71" width="124.56" height="39.36"/><rect class="cls-117" x="315.83" y="188.75" width="124.47" height="39.27"/><rect class="cls-118" x="315.87" y="188.8" width="124.38" height="39.17"/><rect class="cls-119" x="315.91" y="188.84" width="124.29" height="39.07"/><rect class="cls-120" x="315.95" y="188.88" width="124.21" height="38.97"/><rect class="cls-121" x="315.99" y="188.92" width="124.12" height="38.87"/><rect class="cls-122" x="316.03" y="188.96" width="124.03" height="38.77"/><rect class="cls-123" x="316.07" y="189" width="123.94" height="38.68"/><rect class="cls-124" x="316.11" y="189.04" width="123.85" height="38.58"/><rect class="cls-125" x="316.15" y="189.08" width="123.76" height="38.48"/><rect class="cls-126" x="316.19" y="189.13" width="123.68" height="38.38"/><rect class="cls-127" x="316.23" y="189.17" width="123.59" height="38.28"/><rect class="cls-128" x="316.27" y="189.21" width="123.5" height="38.18"/><rect class="cls-129" x="316.31" y="189.25" width="123.41" height="38.09"/><rect class="cls-130" x="316.36" y="189.29" width="123.32" height="37.99"/><rect class="cls-131" x="316.4" y="189.33" width="123.24" height="37.89"/></g><rect class="cls-25" x="312.74" y="177.44" width="121.73" height="46.89"/><rect class="cls-145" x="322.91" y="213" width="43.11" height="2"/><rect class="cls-23" x="322.91" y="216.66" width="16.21" height="2"/><path class="cls-23" d="M326.4,197.17a1.6,1.6,0,0,0,0-3.19,1.6,1.6,0,1,0,0,3.19Z"/><path class="cls-23" d="M329.59,198.22a.7.7,0,0,0-.62-.65l-.1,0a36.87,36.87,0,0,0-4.93,0l-.15,0a.69.69,0,0,0-.58.65l-.31,5.54a.71.71,0,0,0,.67.75h0a.7.7,0,0,0,.71-.67l0-.64h.17s0,.07,0,.12v5.55a.89.89,0,1,0,1.77,0v-5.55c0-.07,0-.12,0-.18h.3a1,1,0,0,0,0,.18v5.55a.89.89,0,1,0,1.77,0v-5.55a.42.42,0,0,0,0-.12h.16l.05.64a.71.71,0,0,0,.71.67h0a.7.7,0,0,0,.68-.75Z"/><rect class="cls-21" x="333.94" y="193.76" width="88.42" height="3.42"/><rect class="cls-21" x="333.94" y="199.65" width="88.42" height="3.41"/><rect class="cls-21" x="333.94" y="205.55" width="88.42" height="3.42"/><rect class="cls-135" x="333.94" y="193.76" width="82.47" height="3.42"/><rect class="cls-148" x="333.94" y="199.65" width="31.14" height="3.41"/><rect class="cls-150" x="333.94" y="205.55" width="41.53" height="3.41"/><rect class="cls-145" x="322.49" y="185.23" width="46.74" height="3.25"/><g class="cls-24"><rect class="cls-25" x="314.39" y="85.08" width="132.59" height="48.31"/><rect class="cls-26" x="314.43" y="85.13" width="132.45" height="48.19"/><rect class="cls-27" x="314.47" y="85.17" width="132.32" height="48.07"/><rect class="cls-28" x="314.51" y="85.21" width="132.18" height="47.95"/><rect class="cls-29" x="314.55" y="85.25" width="132.05" height="47.84"/><rect class="cls-30" x="314.59" y="85.29" width="131.91" height="47.72"/><rect class="cls-31" x="314.63" y="85.33" width="131.78" height="47.6"/><rect class="cls-32" x="314.67" y="85.37" width="131.64" height="47.48"/><rect class="cls-33" x="314.71" y="85.41" width="131.51" height="47.37"/><rect class="cls-34" x="314.75" y="85.46" width="131.37" height="47.25"/><rect class="cls-35" x="314.79" y="85.5" width="131.24" height="47.13"/><rect class="cls-36" x="314.83" y="85.54" width="131.1" height="47.01"/><rect class="cls-37" x="314.87" y="85.58" width="130.97" height="46.89"/><rect class="cls-38" x="314.91" y="85.62" width="130.83" height="46.78"/><rect class="cls-39" x="314.95" y="85.66" width="130.7" height="46.66"/><rect class="cls-40" x="315" y="85.7" width="130.56" height="46.54"/><rect class="cls-41" x="315.04" y="85.74" width="130.43" height="46.42"/><rect class="cls-42" x="315.08" y="85.79" width="130.3" height="46.31"/><rect class="cls-43" x="315.12" y="85.83" width="130.16" height="46.19"/><rect class="cls-44" x="315.16" y="85.87" width="130.03" height="46.07"/><rect class="cls-45" x="315.2" y="85.91" width="129.89" height="45.95"/><rect class="cls-46" x="315.24" y="85.95" width="129.76" height="45.83"/><rect class="cls-47" x="315.28" y="85.99" width="129.62" height="45.72"/><rect class="cls-48" x="315.32" y="86.03" width="129.49" height="45.6"/><rect class="cls-49" x="315.36" y="86.07" width="129.35" height="45.48"/><rect class="cls-50" x="315.4" y="86.12" width="129.22" height="45.36"/><rect class="cls-51" x="315.44" y="86.16" width="129.08" height="45.24"/><rect class="cls-52" x="315.48" y="86.2" width="128.95" height="45.13"/><rect class="cls-53" x="315.52" y="86.24" width="128.81" height="45.01"/><rect class="cls-54" x="315.56" y="86.28" width="128.68" height="44.89"/><rect class="cls-55" x="315.6" y="86.32" width="128.54" height="44.77"/><rect class="cls-56" x="315.64" y="86.36" width="128.41" height="44.66"/><rect class="cls-57" x="315.68" y="86.4" width="128.27" height="44.54"/><rect class="cls-58" x="315.72" y="86.45" width="128.14" height="44.42"/><rect class="cls-59" x="315.76" y="86.49" width="128" height="44.3"/><rect class="cls-60" x="315.8" y="86.53" width="127.87" height="44.18"/><rect class="cls-61" x="315.84" y="86.57" width="127.73" height="44.07"/><rect class="cls-62" x="315.89" y="86.61" width="127.6" height="43.95"/><rect class="cls-63" x="315.93" y="86.65" width="127.46" height="43.83"/><rect class="cls-64" x="315.97" y="86.69" width="127.33" height="43.71"/><rect class="cls-65" x="316.01" y="86.73" width="127.19" height="43.6"/><rect class="cls-66" x="316.05" y="86.77" width="127.06" height="43.48"/><rect class="cls-67" x="316.09" y="86.82" width="126.92" height="43.36"/><rect class="cls-68" x="316.13" y="86.86" width="126.79" height="43.24"/><rect class="cls-69" x="316.17" y="86.9" width="126.66" height="43.12"/><rect class="cls-70" x="316.21" y="86.94" width="126.52" height="43.01"/><rect class="cls-71" x="316.25" y="86.98" width="126.39" height="42.89"/><rect class="cls-72" x="316.29" y="87.02" width="126.25" height="42.77"/><rect class="cls-73" x="316.33" y="87.06" width="126.12" height="42.65"/><rect class="cls-74" x="316.37" y="87.1" width="125.98" height="42.54"/><rect class="cls-75" x="316.41" y="87.15" width="125.85" height="42.42"/><rect class="cls-76" x="316.45" y="87.19" width="125.71" height="42.3"/><rect class="cls-77" x="316.49" y="87.23" width="125.58" height="42.18"/><rect class="cls-78" x="316.53" y="87.27" width="125.44" height="42.06"/><rect class="cls-79" x="316.57" y="87.31" width="125.31" height="41.95"/><rect class="cls-80" x="316.61" y="87.35" width="125.17" height="41.83"/><rect class="cls-81" x="316.65" y="87.39" width="125.04" height="41.71"/><rect class="cls-82" x="316.69" y="87.43" width="124.9" height="41.59"/><rect class="cls-83" x="316.73" y="87.48" width="124.77" height="41.47"/><rect class="cls-84" x="316.77" y="87.52" width="124.63" height="41.36"/><rect class="cls-85" x="316.82" y="87.56" width="124.5" height="41.24"/><rect class="cls-86" x="316.86" y="87.6" width="124.36" height="41.12"/><rect class="cls-87" x="316.9" y="87.64" width="124.23" height="41"/><rect class="cls-88" x="316.94" y="87.68" width="124.09" height="40.89"/><rect class="cls-89" x="316.98" y="87.72" width="123.96" height="40.77"/><rect class="cls-90" x="317.02" y="87.76" width="123.82" height="40.65"/><rect class="cls-91" x="317.06" y="87.81" width="123.69" height="40.53"/><rect class="cls-92" x="317.1" y="87.85" width="123.55" height="40.41"/><rect class="cls-93" x="317.14" y="87.89" width="123.42" height="40.3"/><rect class="cls-94" x="317.18" y="87.93" width="123.28" height="40.18"/><rect class="cls-95" x="317.22" y="87.97" width="123.15" height="40.06"/><rect class="cls-96" x="317.26" y="88.01" width="123.02" height="39.94"/><rect class="cls-97" x="317.3" y="88.05" width="122.88" height="39.83"/><rect class="cls-98" x="317.34" y="88.09" width="122.75" height="39.71"/><rect class="cls-99" x="317.38" y="88.14" width="122.61" height="39.59"/><rect class="cls-100" x="317.42" y="88.18" width="122.48" height="39.47"/><rect class="cls-101" x="317.46" y="88.22" width="122.34" height="39.35"/><rect class="cls-102" x="317.5" y="88.26" width="122.21" height="39.24"/><rect class="cls-103" x="317.54" y="88.3" width="122.07" height="39.12"/><rect class="cls-104" x="317.58" y="88.34" width="121.94" height="39"/><rect class="cls-105" x="317.62" y="88.38" width="121.8" height="38.88"/><rect class="cls-106" x="317.66" y="88.42" width="121.67" height="38.77"/><rect class="cls-107" x="317.71" y="88.47" width="121.53" height="38.65"/><rect class="cls-108" x="317.75" y="88.51" width="121.4" height="38.53"/><rect class="cls-109" x="317.79" y="88.55" width="121.26" height="38.41"/><rect class="cls-110" x="317.83" y="88.59" width="121.13" height="38.29"/><rect class="cls-111" x="317.87" y="88.63" width="120.99" height="38.18"/><rect class="cls-112" x="317.91" y="88.67" width="120.86" height="38.06"/><rect class="cls-113" x="317.95" y="88.71" width="120.72" height="37.94"/><rect class="cls-114" x="317.99" y="88.75" width="120.59" height="37.82"/><rect class="cls-115" x="318.03" y="88.8" width="120.45" height="37.7"/><rect class="cls-116" x="318.07" y="88.84" width="120.32" height="37.59"/><rect class="cls-117" x="318.11" y="88.88" width="120.18" height="37.47"/><rect class="cls-118" x="318.15" y="88.92" width="120.05" height="37.35"/><rect class="cls-119" x="318.19" y="88.96" width="119.91" height="37.23"/><rect class="cls-120" x="318.23" y="89" width="119.78" height="37.12"/><rect class="cls-121" x="318.27" y="89.04" width="119.64" height="37"/><rect class="cls-122" x="318.31" y="89.08" width="119.51" height="36.88"/><rect class="cls-123" x="318.35" y="89.13" width="119.38" height="36.76"/><rect class="cls-124" x="318.39" y="89.17" width="119.24" height="36.64"/><rect class="cls-125" x="318.43" y="89.21" width="119.11" height="36.53"/><rect class="cls-126" x="318.47" y="89.25" width="118.97" height="36.41"/><rect class="cls-127" x="318.51" y="89.29" width="118.84" height="36.29"/><rect class="cls-128" x="318.55" y="89.33" width="118.7" height="36.17"/><rect class="cls-129" x="318.59" y="89.37" width="118.57" height="36.06"/><rect class="cls-130" x="318.64" y="89.41" width="118.43" height="35.94"/><rect class="cls-131" x="318.68" y="89.45" width="118.3" height="35.82"/></g><rect class="cls-25" x="312.75" y="82.84" width="121.77" height="39.6"/><rect class="cls-22" x="368.16" y="89.71" width="44.68" height="2.98"/><rect class="cls-23" x="368.16" y="96.1" width="50.96" height="2.23"/><rect class="cls-23" x="367.96" y="101.32" width="44.49" height="2.25"/><rect class="cls-23" x="367.96" y="106.37" width="49.54" height="2.24"/><rect class="cls-23" x="367.96" y="111.81" width="11.07" height="2.23"/><rect class="cls-135" x="319.01" y="89.87" width="44.96" height="26.23"/><path class="cls-25" d="M341.49,98.56a4.42,4.42,0,1,0,4.43,4.42A4.41,4.41,0,0,0,341.49,98.56Zm1.8,4.46-2.94,1.69-.05,0v-3.5h.05l2.94,1.7s0,0,0,0S343.31,103,343.29,103Z"/><path class="cls-151" d="M292.7,94.71l-1-12.71a9.61,9.61,0,0,0-8.06-3.85c-5.87.46-10.13,7.17-9.52,15s5.86,13.79,11.73,13.34c4.1-.32,7.42-3.71,8.83-8.39A4.59,4.59,0,0,1,292.7,94.71Z"/><path class="cls-151" d="M269.15,100.46c-.35,2,1.64,4,4.47,4.52l6.42,1.14c2.82.5,5.39-.71,5.74-2.71L289,85.18c.35-2-1.64-4-4.46-4.52l-6.43-1.14c-2.82-.5-5.39.72-5.74,2.71Z"/><path class="cls-25" d="M285.51,109.45c3.73,1.92.53,1.93.27,2.2-1.52,1.64-17-1.59-17.82-3.89-.13-.39,7.25-1,7.31-1.25a23.22,23.22,0,0,0,.35-9.63.55.55,0,0,1,.52-.47c1.36.13,2.74.23,4.1.36.23,0,2.87.79,2.19,2C281.91,102.32,281.56,107.43,285.51,109.45Z"/><path class="cls-25" d="M284,99.65l.27-.35.09-.11c.11-.14.22-.3.33-.46a.83.83,0,0,1,.08-.12c.08-.12.16-.24.23-.37l.13-.2.19-.32.13-.23.23-.43.17-.33.15-.31.15-.31.12-.27c0-.08.07-.15.1-.22h0a37.75,37.75,0,0,0,1.39-10.89,1,1,0,0,0-.86-.85c-3.17-.42-12.43-3.25-12.21,6.32h0s0,.83-.07,1.2v.1c0,.37,0,.74,0,1.11v.06c0,.38,0,.74.05,1.1v0c.3,4.55,2,7.94,4.5,8.39,1.47.26,3-.52,4.42-2h0l0,0c.1-.11.21-.23.31-.36Z"/><path class="cls-151" d="M282.18,84.65c-.61-.88-3.49-1.89-3.49-1.89-.06-1,.64-1.35,1.55-2.08a5.24,5.24,0,0,1,6.5.47c1.85,1.65,1.92,4.12.17,5.51a5,5,0,0,1-4.62.63A2.2,2.2,0,0,0,282.18,84.65Z"/><path class="cls-136" d="M326.76,123.64s.47.58.94.23a10.09,10.09,0,0,0,2.05-2.86c.36-.68,1.48-4.17,1.48-4.17a4.28,4.28,0,0,0-1.61,2.13A18.48,18.48,0,0,1,326.76,123.64Z"/><path class="cls-136" d="M327,123.22c1.07-.87,1.45-2.43,1.44-4.36a3.14,3.14,0,0,1,.94-2.55,21,21,0,0,1-.16,4,6.87,6.87,0,0,1-.58,2.38C327.57,124.87,324.26,125.45,327,123.22Z"/><path class="cls-132" d="M285.68,315.36a30.9,30.9,0,0,0-5.42-1.37c-2.32-.44-4.09-.42-4.92-1.3-1.38-1.44-.5-6-1.17-5.82-3.29.75-4.53,8.56-2.61,9.52s12.75.62,13.64.55S286,315.16,285.68,315.36Z"/><path class="cls-132" d="M261.1,237.73q.4-3,.84-5.83c1.31-2.9,2.54-4.49,3.6-4.41,4,.31,8.91,15.29-.09,53.47-.45,1.92-5.65,34.87-5.85,34.11C257.15,305.66,257.06,267,261.1,237.73Z"/><path class="cls-132" d="M265.88,172c3.14-.51,3.17,1.3,5.33,5.84,4.24,8.89,6.47,22,4.66,35.94-2.13,16.33-6.61,30.54-11.88,39.46-3-7.68-4.44-16.9-5.57-27.11C254.9,194.31,256.24,173.52,265.88,172Z"/><path class="cls-136" d="M269,208.36A46.21,46.21,0,0,0,256.85,207c.25,5.36.73,11.23,1.41,17.56,4.67-5,13.71-2.26,15.75.23.74-3.53,1.36-7.21,1.86-11,.14-1.09.25-2.18.34-3.26C273.91,209.69,271.52,209,269,208.36Z"/><path class="cls-25" d="M247.71,129.67c4.65,4.25,8.86,23.59,8.86,23.59s-.55,7.67-10.88-16.55C242.59,129.44,246.56,128.62,247.71,129.67Z"/><path class="cls-25" d="M295.8,126.37c3.52,5.62.7,25.23.7,25.23s-3.57,7-5.66-19.34C290.21,124.35,294.93,125,295.8,126.37Z"/><path class="cls-25" d="M293.91,149.88c3.27-7,24.27-19.57,24.27-19.57s9.12-2.5-15.35,19C295.47,155.74,293.1,151.6,293.91,149.88Z"/><path class="cls-25" d="M327.64,121.84l.38.58-.63,2.3s-2.72,3.34-4.19,4.23-5.5,6.12-6.16,6.61-4.09-1.15-4.09-1.15,5.34-4.26,7.31-6.13,3.87-5.51,4.61-6.27c1.27-1.3,1.85-2,1.85-2s.6.78-1.28,2.93c-.5.57.4.82.4.82Z"/><path class="cls-132" d="M289.56,179.41c-2.31-.68-2.48,1-4.48,5.08-3.92,8-6.69,20-6.49,33.15.23,15.34,2.4,28.88,5.6,37.53,2.91-6.94,4.74-15.43,6.44-24.86C295.92,201,296.65,181.52,289.56,179.41Z"/><path class="cls-136" d="M287.59,214.77c.44-5.18.74-9.87.89-14-.76-.93-1.19-.41-2.55.06-2.64.9-5.29,3.56-7.14,7.85-.16,2.92-.24,5.93-.21,9q.06,5.1.27,9.89a40.07,40.07,0,0,0,3.13-3.85A61.88,61.88,0,0,0,287.59,214.77Z"/><path class="cls-132" d="M284.19,231.09c-1.53-.79-4.32,1.15-6.26,5-3.8,7.55-5,17.91-5.67,30.71-.71,13.54-.74,23.63-.55,32s-3.29,19.76,2.93,18.66c-.73-11.33,1.15-28.12,4.48-36.93C290.49,250.46,288.9,233.5,284.19,231.09Z"/><polygon class="cls-152" points="288.17 136.11 264.13 134.37 262.94 106.68 292.83 111.34 288.17 136.11"/><path class="cls-137" d="M253.46,217l41.17-3.38c8.57-24.48,3.46-52.64-6.39-77.75l-24.22-2C254.5,159.81,245.56,189.87,253.46,217Z"/><path class="cls-152" d="M250,133.6l17.25-24.09a3.85,3.85,0,0,0-1.37-1.81l-.45-.32a3.84,3.84,0,0,0-5.36.88L245,129.32Z"/><path class="cls-152" d="M291.7,141.63l-2.64-29.51a3.78,3.78,0,0,1,2.1-.87l.55,0a3.83,3.83,0,0,1,4.16,3.48l2.31,25.79Z"/><rect class="cls-25" x="252.79" y="154.28" width="6.58" height="2.74" rx="0.82" transform="matrix(0.3, -0.95, 0.95, 0.3, 30.78, 353.24)"/><path class="cls-151" d="M259.47,318.33c-2,5.38-4.71,9.32-6.13,8.81s-1-5.31,1-10.69,4.7-9.32,6.13-8.8S261.44,313,259.47,318.33Z"/><path class="cls-132" d="M259.91,315.23c-.85,4.13-3.28,7.32-4.7,6.8s-1.31-4,.32-7.9c2-4.93,2.88-6.37,2.74-9.73C258.13,301.25,263.13,299.67,259.91,315.23Z"/><path class="cls-132" d="M272,310.91a.14.14,0,0,0,.14.14h.27a.14.14,0,0,0,.14-.14h0a.14.14,0,0,0-.14-.14h-.27a.14.14,0,0,0-.14.14Z"/><path class="cls-151" d="M283.41,314.66c.62,2.59-7.33,1.55-9.38.88a23.06,23.06,0,0,0-3.22-.85l-.25,0c0,.07,0,.13,0,.19,0,1.42-.62,3.31,1.65,3.31h14.25C298.08,318.17,283.4,314.61,283.41,314.66Z"/><path class="cls-25" d="M326.55,124.62a7.27,7.27,0,0,0,1.62-2.73c.09-.76-.05-4.42-.05-4.42a4.25,4.25,0,0,0-.78,2.55A14.63,14.63,0,0,1,326.55,124.62Z"/><path class="cls-136" d="M325.84,123.73s-.61-.12-.71-.39a3.29,3.29,0,0,0-.19.55c-.12.35-1.34,2.5-1.34,2.5a20.57,20.57,0,0,1,1.61-1.71,10.47,10.47,0,0,0,1.13-1.3,2.69,2.69,0,0,0,.14-.32Z"/><path class="cls-136" d="M325.44,122.91c1.26-1.45,1.4-2.27,1.36-2.66-.3.35-.78.89-1.5,1.62a13.32,13.32,0,0,0-1.15,1.65,3.34,3.34,0,0,1,0,2c-.07.26,1.06-1,1.54-1.85C325.5,123.6,325.06,123.35,325.44,122.91Z"/><g class="cls-153"><path class="cls-25" d="M265.59,77.67a1.64,1.64,0,0,1-1.58,1.7h-3.07v6.37l-7.54-6.37H233.78a1.65,1.65,0,0,1-1.58-1.7V58.36a1.65,1.65,0,0,1,1.58-1.7H264a1.64,1.64,0,0,1,1.58,1.7Z"/><path class="cls-26" d="M233.81,56.69H264a1.65,1.65,0,0,1,1.58,1.7v19.2A1.64,1.64,0,0,1,264,79.28l-3,0v6.34l-3.71-3.1-1.55-1.3-2.27-1.92H233.81a1.64,1.64,0,0,1-1.57-1.7V58.39A1.64,1.64,0,0,1,233.81,56.69Z"/><path class="cls-27" d="M233.84,56.72H264a1.64,1.64,0,0,1,1.56,1.69v19.1A1.64,1.64,0,0,1,264,79.2l-3,0v6.3l-3.72-3.07-1.54-1.26-2.27-1.92h-19.6a1.65,1.65,0,0,1-1.56-1.7V58.42A1.65,1.65,0,0,1,233.84,56.72Z"/><path class="cls-28" d="M233.87,56.75H264a1.63,1.63,0,0,1,1.54,1.68v19A1.64,1.64,0,0,1,264,79.12l-3,0v6.27l-3.73-3-1.52-1.23-2.27-1.92H233.87a1.65,1.65,0,0,1-1.55-1.7V58.44A1.64,1.64,0,0,1,233.87,56.75Z"/><path class="cls-29" d="M233.9,56.78h30a1.62,1.62,0,0,1,1.53,1.67V77.36A1.62,1.62,0,0,1,264,79l-2.95.06v6.24l-3.74-3-1.51-1.21-2.27-1.92H233.9a1.63,1.63,0,0,1-1.53-1.69v-19A1.63,1.63,0,0,1,233.9,56.78Z"/><path class="cls-30" d="M233.92,56.81h30a1.61,1.61,0,0,1,1.51,1.67v18.8A1.61,1.61,0,0,1,263.94,79L261,79v6.21l-3.74-3-1.5-1.17-2.27-1.92H233.92a1.64,1.64,0,0,1-1.51-1.69v-19A1.64,1.64,0,0,1,233.92,56.81Z"/><path class="cls-31" d="M234,56.84h30a1.61,1.61,0,0,1,1.49,1.66V77.2a1.61,1.61,0,0,1-1.49,1.67L261,79v6.17l-3.76-3L255.79,81l-2.27-1.92H234a1.64,1.64,0,0,1-1.5-1.69V58.53A1.63,1.63,0,0,1,234,56.84Z"/><path class="cls-32" d="M234,56.86h29.93a1.61,1.61,0,0,1,1.48,1.66v18.6a1.61,1.61,0,0,1-1.48,1.67l-2.87.09V85l-3.76-2.93L255.82,81l-2.28-1.93H234a1.63,1.63,0,0,1-1.48-1.69V58.55A1.64,1.64,0,0,1,234,56.86Z"/><path class="cls-33" d="M234,56.89H263.9a1.6,1.6,0,0,1,1.46,1.66v18.5a1.59,1.59,0,0,1-1.46,1.65l-2.84.11v6.11L257.29,82l-1.45-1.08L253.56,79H234a1.63,1.63,0,0,1-1.47-1.69V58.58A1.63,1.63,0,0,1,234,56.89Z"/><path class="cls-34" d="M234,56.92h29.84a1.59,1.59,0,0,1,1.46,1.65V77a1.59,1.59,0,0,1-1.46,1.65l-2.81.12v6.07L257.29,82l-1.43-1L253.58,79H234a1.63,1.63,0,0,1-1.46-1.69V58.61A1.63,1.63,0,0,1,234,56.92Z"/><path class="cls-35" d="M234.06,57h29.81a1.59,1.59,0,0,1,1.44,1.64v18.3a1.59,1.59,0,0,1-1.44,1.65l-2.78.13v6l-3.79-2.84-1.42-1-2.27-1.92H234.06a1.63,1.63,0,0,1-1.43-1.69V58.64A1.63,1.63,0,0,1,234.06,57Z"/><path class="cls-36" d="M234.09,57h29.77a1.58,1.58,0,0,1,1.42,1.64V76.81a1.59,1.59,0,0,1-1.42,1.65l-2.76.14v6l-3.8-2.81-1.4-1-2.27-1.93H234.09a1.63,1.63,0,0,1-1.42-1.68V58.66A1.63,1.63,0,0,1,234.09,57Z"/><path class="cls-37" d="M234.12,57h29.72a1.58,1.58,0,0,1,1.41,1.63v18.1a1.58,1.58,0,0,1-1.41,1.63l-2.72.16v6l-3.81-2.77-1.39-1-2.27-1.93H234.12a1.64,1.64,0,0,1-1.41-1.69V58.69A1.63,1.63,0,0,1,234.12,57Z"/><path class="cls-38" d="M234.15,57h29.68a1.57,1.57,0,0,1,1.39,1.62v18a1.58,1.58,0,0,1-1.39,1.63l-2.7.17V84.4l-3.81-2.75-1.38-.92-2.27-1.92H234.15a1.65,1.65,0,0,1-1.4-1.69V58.72A1.63,1.63,0,0,1,234.15,57Z"/><path class="cls-39" d="M234.18,57.06h29.64a1.57,1.57,0,0,1,1.37,1.63V76.58a1.57,1.57,0,0,1-1.37,1.63l-2.67.18V84.3l-3.83-2.72L256,80.69l-2.27-1.93H234.18a1.63,1.63,0,0,1-1.38-1.68V58.74A1.63,1.63,0,0,1,234.18,57.06Z"/><path class="cls-40" d="M234.2,57.09h29.6a1.56,1.56,0,0,1,1.36,1.62V76.5a1.57,1.57,0,0,1-1.36,1.63l-2.63.19v5.87l-3.84-2.68L256,80.65l-2.27-1.93H234.2c-.75,0-1.36-.88-1.36-1.68V58.77C232.84,58,233.45,57.09,234.2,57.09Z"/><path class="cls-41" d="M234.23,57.12h29.56a1.56,1.56,0,0,1,1.35,1.61V76.42A1.56,1.56,0,0,1,263.79,78l-2.61.21v5.84l-3.84-2.66L256,80.61l-2.27-1.93h-19.5c-.74,0-1.35-.89-1.35-1.68V58.8C232.88,58,233.49,57.12,234.23,57.12Z"/><path class="cls-42" d="M234.26,57.15h29.52a1.56,1.56,0,0,1,1.33,1.61V76.35A1.57,1.57,0,0,1,263.78,78l-2.58.22V84l-3.86-2.63-1.31-.8-2.28-1.93H234.26c-.74,0-1.33-.89-1.33-1.68V58.83C232.93,58,233.52,57.15,234.26,57.15Z"/><path class="cls-43" d="M234.29,57.18h29.47a1.55,1.55,0,0,1,1.32,1.6V76.27a1.56,1.56,0,0,1-1.32,1.61l-2.55.23v5.77l-3.86-2.59-1.3-.77-2.28-1.93H234.29c-.73,0-1.32-.9-1.32-1.68V58.85C233,58.08,233.56,57.18,234.29,57.18Z"/><path class="cls-44" d="M234.32,57.21h29.43a1.54,1.54,0,0,1,1.3,1.59V76.19a1.55,1.55,0,0,1-1.3,1.6l-2.52.25v5.74l-3.88-2.57-1.28-.73-2.28-1.93H234.32c-.72,0-1.31-.91-1.31-1.68v-18C233,58.11,233.6,57.21,234.32,57.21Z"/><path class="cls-45" d="M234.34,57.24h29.39A1.54,1.54,0,0,1,265,58.82V76.11c0,.76-.57,1.6-1.29,1.6l-2.49.26v5.71l-3.88-2.54-1.27-.7-2.28-1.93H234.34c-.71,0-1.28-.92-1.28-1.68V58.91C233.06,58.15,233.63,57.24,234.34,57.24Z"/><path class="cls-46" d="M234.37,57.27h29.35c.71,0,1.27.83,1.27,1.58V76c0,.75-.56,1.59-1.27,1.59l-2.46.27v5.68l-3.89-2.52-1.26-.67-2.28-1.93H234.37c-.7,0-1.27-.92-1.27-1.67V58.94C233.1,58.18,233.67,57.27,234.37,57.27Z"/><path class="cls-47" d="M234.4,57.29h29.31c.69,0,1.25.84,1.25,1.58V76c0,.74-.56,1.59-1.25,1.59l-2.44.28v5.64L257.37,81l-1.24-.64-2.28-1.93H234.4c-.69,0-1.26-.93-1.26-1.68V59C233.14,58.22,233.71,57.29,234.4,57.29Z"/><path class="cls-48" d="M234.43,57.32h29.26c.69,0,1.24.84,1.24,1.57v17c0,.74-.55,1.58-1.24,1.58l-2.4.3v5.61l-3.91-2.45-1.23-.61-2.28-1.93H234.43c-.69,0-1.25-.94-1.25-1.68V59C233.18,58.26,233.74,57.32,234.43,57.32Z"/><path class="cls-49" d="M234.46,57.35h29.22c.68,0,1.23.84,1.23,1.57V75.8c0,.73-.55,1.58-1.23,1.58l-2.38.31v5.58l-3.91-2.43-1.22-.57-2.28-1.94H234.46c-.68,0-1.23-.94-1.23-1.67V59C233.23,58.29,233.78,57.35,234.46,57.35Z"/><path class="cls-50" d="M234.48,57.38h29.19c.67,0,1.21.84,1.21,1.56V75.73c0,.71-.54,1.57-1.21,1.57l-2.35.32v5.54l-3.93-2.39-1.2-.55-2.28-1.93H234.48c-.67,0-1.21-1-1.21-1.67V59C233.27,58.33,233.81,57.38,234.48,57.38Z"/><path class="cls-51" d="M234.51,57.41h29.14c.67,0,1.2.85,1.2,1.55V75.65c0,.71-.53,1.57-1.2,1.57l-2.32.33v5.51L257.4,80.7l-1.18-.52-2.29-1.93H234.51c-.66,0-1.2-1-1.2-1.67V59.07C233.31,58.36,233.85,57.41,234.51,57.41Z"/><path class="cls-52" d="M234.54,57.44h29.1c.65,0,1.18.85,1.18,1.55V75.57c0,.7-.53,1.56-1.18,1.56l-2.29.35V83l-4-2.34-1.16-.48L254,78.21H234.54c-.65,0-1.18-1-1.18-1.68V59.1C233.36,58.4,233.89,57.44,234.54,57.44Z"/><path class="cls-53" d="M234.57,57.47h29.05c.65,0,1.17.85,1.17,1.54V75.49c0,.69-.52,1.56-1.17,1.56l-2.26.36v5.44l-3.95-2.3-1.15-.45L254,78.16h-19.4c-.65,0-1.17-1-1.17-1.67V59.13C233.4,58.44,233.92,57.47,234.57,57.47Z"/><path class="cls-54" d="M234.6,57.49h29c.64,0,1.15.86,1.15,1.54V75.42c0,.68-.51,1.55-1.15,1.55l-2.23.37v5.41l-4-2.27-1.14-.43L254,78.12H234.6c-.64,0-1.16-1-1.16-1.67V59.15C233.44,58.47,234,57.49,234.6,57.49Z"/><path class="cls-55" d="M234.62,57.52h29c.63,0,1.13.86,1.13,1.54V75.34c0,.67-.5,1.55-1.13,1.55l-2.21.38v5.38l-4-2.25L256.3,80,254,78.08H234.62c-.62,0-1.14-1-1.14-1.67V59.18C233.48,58.51,234,57.52,234.62,57.52Z"/><path class="cls-56" d="M234.65,57.55h28.93c.63,0,1.13.87,1.13,1.53V75.26c0,.66-.5,1.54-1.13,1.54l-2.17.4v5.34l-4-2.21L256.32,80,254,78H234.65c-.62,0-1.12-1-1.12-1.66V59.21C233.53,58.55,234,57.55,234.65,57.55Z"/><path class="cls-57" d="M234.68,57.58h28.89c.61,0,1.11.87,1.11,1.52V75.18c0,.66-.5,1.54-1.11,1.54l-2.14.41v5.31l-4-2.18-1.1-.33L254.05,78H234.68c-.61,0-1.11-1-1.11-1.66V59.24C233.57,58.58,234.07,57.58,234.68,57.58Z"/><path class="cls-58" d="M234.71,57.61h28.85c.6,0,1.09.87,1.09,1.52v16c0,.64-.49,1.53-1.09,1.53l-2.12.42v5.28l-4-2.16-1.08-.29L254.07,78H234.71c-.61,0-1.1-1-1.1-1.67v-17C233.61,58.62,234.1,57.61,234.71,57.61Z"/><path class="cls-59" d="M234.74,57.64h28.8c.6,0,1.08.87,1.08,1.51V75c0,.63-.48,1.52-1.08,1.52l-2.08.44v5.24l-4-2.12-1.07-.27-2.29-1.94H234.74c-.6,0-1.08-1-1.08-1.66V59.29C233.66,58.65,234.14,57.64,234.74,57.64Z"/><path class="cls-60" d="M234.76,57.67h28.77c.59,0,1.06.87,1.06,1.5V75c0,.63-.47,1.52-1.06,1.52l-2.06.45v5.21l-4-2.1-1.05-.23-2.29-1.94H234.76c-.58,0-1.06-1-1.06-1.66V59.32C233.7,58.69,234.18,57.67,234.76,57.67Z"/><path class="cls-61" d="M234.79,57.7h28.73c.58,0,1,.88,1,1.5V74.87c0,.62-.46,1.52-1,1.52l-2,.46V82l-4-2.07-1-.2-2.3-1.94H234.79c-.58,0-1-1-1-1.66V59.34C233.74,58.73,234.21,57.7,234.79,57.7Z"/><path class="cls-62" d="M234.82,57.72H263.5c.57,0,1,.89,1,1.5V74.79c0,.62-.46,1.52-1,1.52l-2,.47v5.15l-4-2-1-.17-2.3-1.94H234.82c-.57,0-1-1-1-1.66V59.37C233.79,58.76,234.25,57.72,234.82,57.72Z"/><path class="cls-63" d="M234.85,57.75h28.64c.56,0,1,.89,1,1.49V74.72c0,.6-.46,1.5-1,1.5l-2,.49v5.11l-4-2-1-.14-2.3-1.94H234.85c-.56,0-1-1-1-1.66V59.4C233.83,58.8,234.29,57.75,234.85,57.75Z"/><path class="cls-64" d="M234.88,57.78h28.59c.56,0,1,.89,1,1.48V74.64c0,.59-.45,1.5-1,1.5l-1.94.5v5.08l-4-2-1-.11-2.3-1.94H234.88c-.56,0-1-1.07-1-1.66V59.43C233.87,58.83,234.32,57.78,234.88,57.78Z"/><path class="cls-65" d="M234.9,57.81h28.56c.55,0,1,.89,1,1.48V74.56c0,.59-.44,1.5-1,1.5l-1.91.51v5.05l-4.06-2-1-.08-2.3-1.94H234.9c-.54,0-1-1.08-1-1.66V59.45C233.91,58.87,234.36,57.81,234.9,57.81Z"/><path class="cls-66" d="M234.93,57.84h28.52c.54,0,1,.9,1,1.47V74.48c0,.58-.43,1.5-1,1.5l-1.89.52v5l-4.07-1.92-1,0-2.3-2h-19.3c-.54,0-1-1.08-1-1.65V59.48C234,58.91,234.39,57.84,234.93,57.84Z"/><path class="cls-67" d="M235,57.87h28.47c.53,0,1,.9,1,1.46V74.41c0,.56-.43,1.48-1,1.48l-1.85.54v5l-4.08-1.89-.95,0-2.3-1.94H235c-.53,0-1-1.09-1-1.65V59.51C234,58.94,234.43,57.87,235,57.87Z"/><path class="cls-68" d="M235,57.9h28.43c.52,0,.94.9.94,1.46v15c0,.56-.42,1.48-.94,1.48l-1.83.55v5l-4.09-1.86h-.93l-2.29-1.94H235c-.52,0-1-1.1-1-1.66V59.54C234,59,234.47,57.9,235,57.9Z"/><path class="cls-69" d="M235,57.92h28.39c.51,0,.92.91.92,1.46V74.25c0,.55-.41,1.48-.92,1.48l-1.8.56V81.2l-4.1-1.83-.92,0-2.29-2H235c-.52,0-.93-1.1-.93-1.65V59.56C234.09,59,234.5,57.92,235,57.92Z"/><path class="cls-70" d="M235,58h28.35c.51,0,.91.91.91,1.45V74.17c0,.54-.4,1.48-.91,1.48l-1.77.57V81.1l-4.1-1.8-.91.08-2.29-1.95H235c-.5,0-.91-1.11-.91-1.65V59.59C234.13,59.05,234.54,58,235,58Z"/><path class="cls-71" d="M235.07,58h28.31c.5,0,.9.92.9,1.45V74.1c0,.53-.4,1.46-.9,1.46l-1.74.6V81l-4.12-1.78-.88.11-2.3-1.94H235.07c-.49,0-.9-1.12-.9-1.65V59.62C234.17,59.09,234.58,58,235.07,58Z"/><path class="cls-72" d="M235.1,58h28.26c.49,0,.89.92.89,1.44V74c0,.52-.4,1.46-.89,1.46l-1.71.61v4.8l-4.12-1.74-.87.14-2.3-1.94H235.1c-.49,0-.88-1.13-.88-1.65V59.64C234.22,59.12,234.61,58,235.1,58Z"/><path class="cls-73" d="M235.13,58h28.22c.48,0,.87.92.87,1.43V73.94c0,.51-.39,1.46-.87,1.46l-1.68.62v4.77l-4.13-1.71-.86.17-2.3-2H235.13c-.48,0-.87-1.13-.87-1.65v-16C234.26,59.16,234.65,58,235.13,58Z"/><path class="cls-74" d="M235.16,58.07h28.18c.47,0,.85.92.85,1.43V73.86c0,.51-.38,1.45-.85,1.45l-1.65.64v4.74L257.54,79l-.84.21-2.3-1.95H235.16c-.48,0-.86-1.14-.86-1.65V59.7C234.3,59.2,234.68,58.07,235.16,58.07Z"/><path class="cls-75" d="M235.18,58.1h28.14c.47,0,.84.92.84,1.42V73.79c0,.49-.37,1.44-.84,1.44l-1.62.65v4.7l-4.15-1.65-.83.24-2.3-2H235.18c-.46,0-.84-1.15-.84-1.65V59.73C234.34,59.23,234.72,58.1,235.18,58.1Z"/><path class="cls-76" d="M235.21,58.12h28.1c.46,0,.82.94.82,1.42V73.71c0,.48-.36,1.44-.82,1.44l-1.59.66v4.67l-4.17-1.62-.81.26-2.3-2H235.21c-.45,0-.82-1.15-.82-1.64V59.75C234.39,59.27,234.76,58.12,235.21,58.12Z"/><path class="cls-77" d="M235.24,58.15H263.3c.44,0,.8.94.8,1.42V73.63c0,.48-.36,1.44-.8,1.44l-1.57.67v4.64l-4.17-1.6-.8.3-2.3-2H235.24c-.45,0-.81-1.17-.81-1.64V59.78C234.43,59.3,234.79,58.15,235.24,58.15Z"/><path class="cls-78" d="M235.27,58.18h28c.44,0,.8.94.8,1.41v14c0,.47-.36,1.43-.8,1.43l-1.53.69v4.61l-4.18-1.57-.79.33-2.3-2H235.27c-.44,0-.8-1.18-.8-1.64V59.81C234.47,59.34,234.83,58.18,235.27,58.18Z"/><path class="cls-79" d="M235.3,58.21h28c.43,0,.78.94.78,1.4V73.48c0,.46-.35,1.42-.78,1.42l-1.51.7v4.57l-4.19-1.53-.77.36-2.3-2H235.3c-.43,0-.78-1.18-.78-1.64V59.84C234.52,59.38,234.87,58.21,235.3,58.21Z"/><path class="cls-80" d="M235.32,58.24h27.94c.42,0,.76.94.76,1.39V73.4c0,.45-.34,1.42-.76,1.42l-1.48.71v4.54l-4.2-1.51-.76.39-2.3-2h-19.2c-.42,0-.76-1.19-.76-1.64V59.86C234.56,59.41,234.9,58.24,235.32,58.24Z"/><path class="cls-81" d="M235.35,58.27h27.89c.42,0,.75.95.75,1.39V73.32c0,.44-.33,1.42-.75,1.42l-1.45.72V80l-4.2-1.48-.74.42-2.31-2H235.35c-.41,0-.75-1.2-.75-1.64V59.89C234.6,59.45,234.94,58.27,235.35,58.27Z"/><path class="cls-82" d="M235.38,58.3h27.85c.4,0,.73,1,.73,1.38V73.24c0,.44-.33,1.41-.73,1.41l-1.42.74v4.47l-4.22-1.44-.72.45-2.31-2H235.38c-.41,0-.73-1.21-.73-1.64V59.92C234.65,59.48,235,58.3,235.38,58.3Z"/><path class="cls-83" d="M235.41,58.33h27.8c.4,0,.72,1,.72,1.37V73.17c0,.42-.32,1.4-.72,1.4l-1.39.75v4.44l-4.22-1.42-.71.49-2.31-2H235.41c-.4,0-.72-1.21-.72-1.63V59.94C234.69,59.52,235,58.33,235.41,58.33Z"/><path class="cls-84" d="M235.44,58.35H263.2c.39,0,.7,1,.7,1.38V73.09c0,.41-.31,1.4-.7,1.4l-1.36.76v4.41l-4.24-1.39-.69.51-2.31-2H235.44c-.39,0-.71-1.22-.71-1.64V60C234.73,59.56,235.05,58.35,235.44,58.35Z"/><path class="cls-85" d="M235.46,58.38h27.73c.38,0,.69,1,.69,1.37V73c0,.41-.31,1.39-.69,1.39l-1.34.78v4.37l-4.24-1.36-.68.55-2.31-1.95H235.46c-.38,0-.69-1.23-.69-1.64V60C234.77,59.59,235.08,58.38,235.46,58.38Z"/><path class="cls-86" d="M235.49,58.41h27.68c.38,0,.68,1,.68,1.36V72.93c0,.4-.3,1.39-.68,1.39l-1.3.79v4.34l-4.25-1.33-.67.58-2.31-2H235.49c-.37,0-.67-1.23-.67-1.63V60C234.82,59.63,235.12,58.41,235.49,58.41Z"/><path class="cls-87" d="M235.52,58.44h27.64c.36,0,.66,1,.66,1.36v13c0,.39-.3,1.39-.66,1.39l-1.28.8v4.31l-4.26-1.3-.65.61-2.31-2H235.52c-.36,0-.66-1.24-.66-1.63v-15C234.86,59.67,235.16,58.44,235.52,58.44Z"/><path class="cls-88" d="M235.55,58.47h27.6c.35,0,.64,1,.64,1.35v13c0,.38-.29,1.38-.64,1.38L261.9,75v4.27L257.63,78l-.64.64-2.31-2H235.55c-.36,0-.65-1.25-.65-1.63v-15C234.9,59.7,235.19,58.47,235.55,58.47Z"/><path class="cls-89" d="M235.58,58.5h27.55c.35,0,.63,1,.63,1.34V72.7c0,.37-.28,1.37-.63,1.37l-1.22.83v4.24l-4.27-1.24-.63.67-2.31-2H235.58c-.35,0-.63-1.25-.63-1.63V60.11C235,59.74,235.23,58.5,235.58,58.5Z"/><path class="cls-90" d="M235.6,58.53h27.52c.34,0,.61,1,.61,1.34V72.62c0,.36-.27,1.37-.61,1.37l-1.19.84V79l-4.29-1.21-.6.7-2.32-2H235.6c-.34,0-.61-1.26-.61-1.63V60.14C235,59.77,235.26,58.53,235.6,58.53Z"/><path class="cls-91" d="M235.63,58.55H263.1c.34,0,.6,1,.6,1.34V72.54c0,.36-.26,1.37-.6,1.37l-1.15.85v4.17l-4.3-1.18-.59.74-2.32-2H235.63c-.33,0-.6-1.28-.6-1.63V60.16C235,59.81,235.3,58.55,235.63,58.55Z"/><path class="cls-92" d="M235.66,58.58h27.43c.32,0,.58,1,.58,1.33V72.47c0,.34-.26,1.36-.58,1.36l-1.13.86v4.14l-4.31-1.15-.57.76-2.32-2h-19.1c-.32,0-.58-1.29-.58-1.63V60.19C235.08,59.85,235.34,58.58,235.66,58.58Z"/><path class="cls-93" d="M235.69,58.61h27.39c.31,0,.57,1,.57,1.33V72.39c0,.34-.26,1.35-.57,1.35l-1.1.88v4.11l-4.32-1.12-.56.79-2.32-2H235.69c-.32,0-.57-1.29-.57-1.62V60.22C235.12,59.88,235.37,58.61,235.69,58.61Z"/><path class="cls-94" d="M235.72,58.64h27.34c.31,0,.56,1,.56,1.32V72.31c0,.33-.25,1.35-.56,1.35l-1.07.89v4.07l-4.32-1.09-.55.83-2.32-2H235.72c-.31,0-.56-1.3-.56-1.63V60.25C235.16,59.92,235.41,58.64,235.72,58.64Z"/><path class="cls-95" d="M235.74,58.67h27.31c.3,0,.54,1,.54,1.31V72.23c0,.32-.24,1.35-.54,1.35l-1,.9v4l-4.34-1.06-.53.86-2.32-2H235.74c-.29,0-.54-1.31-.54-1.63V60.27C235.2,60,235.45,58.67,235.74,58.67Z"/><path class="cls-96" d="M235.77,58.7H263c.29,0,.52,1,.52,1.3V72.16c0,.31-.23,1.34-.52,1.34l-1,.91v4l-4.34-1-.52.9-2.32-2H235.77c-.29,0-.52-1.31-.52-1.62V60.3C235.25,60,235.48,58.7,235.77,58.7Z"/><path class="cls-97" d="M235.8,58.73H263c.28,0,.51,1,.51,1.3v12c0,.3-.23,1.33-.51,1.33l-1,.93v4l-4.35-1-.51.92-2.32-2H235.8c-.28,0-.51-1.32-.51-1.62V60.33C235.29,60,235.52,58.73,235.8,58.73Z"/><path class="cls-98" d="M235.83,58.76H263c.27,0,.49,1,.49,1.29V72c0,.29-.22,1.33-.49,1.33l-1,.94v3.94l-4.36-1-.49,1-2.32-2h-19c-.28,0-.5-1.33-.5-1.62V60.35C235.33,60.06,235.55,58.76,235.83,58.76Z"/><path class="cls-99" d="M235.86,58.78H263c.26,0,.47,1,.47,1.29V71.92c0,.29-.21,1.33-.47,1.33l-.93,1v3.91l-4.37-1-.48,1-2.32-2h-19c-.27,0-.48-1.33-.48-1.61V60.38C235.38,60.1,235.59,58.78,235.86,58.78Z"/><path class="cls-100" d="M235.88,58.81H263c.26,0,.47,1,.47,1.29V71.85c0,.27-.21,1.31-.47,1.31l-.9,1V78l-4.38-.92-.45,1-2.33-2h-19c-.25,0-.46-1.34-.46-1.62V60.41C235.42,60.13,235.63,58.81,235.88,58.81Z"/><path class="cls-101" d="M235.91,58.84H263c.25,0,.45,1,.45,1.28V71.77c0,.26-.2,1.31-.45,1.31l-.87,1V77.9L257.71,77l-.44,1-2.33-2h-19c-.25,0-.45-1.35-.45-1.62v-14C235.46,60.17,235.66,58.84,235.91,58.84Z"/><path class="cls-102" d="M235.94,58.87h27c.24,0,.44,1,.44,1.27V71.69c0,.26-.2,1.31-.44,1.31l-.84,1V77.8l-4.39-.86L257.29,78l-2.32-2h-19c-.24,0-.43-1.36-.43-1.62v-14C235.51,60.21,235.7,58.87,235.94,58.87Z"/><path class="cls-103" d="M236,58.9h27c.23,0,.42,1,.42,1.27V71.61c0,.25-.19,1.31-.42,1.31l-.81,1V77.7l-4.41-.83L257.31,78,255,76H236c-.23,0-.42-1.36-.42-1.61V60.49C235.55,60.24,235.74,58.9,236,58.9Z"/><path class="cls-104" d="M236,58.93h26.93c.22,0,.4,1,.4,1.26V71.54c0,.23-.18,1.29-.4,1.29l-.79,1v3.74l-4.41-.79-.4,1.14L255,76H236c-.23,0-.41-1.38-.41-1.61V60.52C235.59,60.28,235.77,58.93,236,58.93Z"/><path class="cls-105" d="M236,59h26.89c.22,0,.39,1,.39,1.25V71.46c0,.23-.17,1.29-.39,1.29l-.75,1v3.71l-4.42-.77-.39,1.17-2.32-2H236c-.21,0-.39-1.39-.39-1.62V60.55C235.63,60.32,235.81,59,236,59Z"/><path class="cls-106" d="M236.05,59H262.9c.21,0,.37,1,.37,1.26V71.38c0,.22-.16,1.29-.37,1.29l-.72,1v3.68l-4.44-.74-.37,1.2-2.32-2h-19c-.2,0-.37-1.39-.37-1.61V60.57C235.68,60.35,235.85,59,236.05,59Z"/><path class="cls-107" d="M236.08,59h26.81c.19,0,.36,1,.36,1.25v11c0,.21-.17,1.29-.36,1.29l-.7,1v3.64l-4.44-.7-.36,1.23-2.32-2h-19c-.2,0-.36-1.4-.36-1.61V60.6C235.72,60.39,235.88,59,236.08,59Z"/><path class="cls-108" d="M236.11,59h26.76c.19,0,.35,1,.35,1.24V71.22c0,.21-.16,1.28-.35,1.28l-.66,1.07v3.61l-4.46-.68-.34,1.27-2.32-2h-19c-.19,0-.35-1.41-.35-1.61V60.63C235.76,60.42,235.92,59,236.11,59Z"/><path class="cls-109" d="M236.14,59.07h26.72c.18,0,.33,1,.33,1.24V71.15c0,.19-.15,1.27-.33,1.27l-.64,1.08v3.58l-4.46-.65-.33,1.29-2.32-2h-19c-.19,0-.33-1.41-.33-1.6V60.65C235.81,60.46,236,59.07,236.14,59.07Z"/><path class="cls-110" d="M236.16,59.1h26.68c.18,0,.32,1,.32,1.23V71.07c0,.19-.14,1.27-.32,1.27l-.6,1.09V77l-4.47-.62-.31,1.33-2.33-2h-19c-.17,0-.31-1.42-.31-1.61V60.68C235.85,60.5,236,59.1,236.16,59.1Z"/><path class="cls-111" d="M236.19,59.13h26.64c.17,0,.3,1,.3,1.22V71c0,.18-.13,1.27-.3,1.27l-.58,1.1v3.51l-4.48-.59-.29,1.36-2.33-2h-19c-.16,0-.3-1.43-.3-1.61V60.71C235.89,60.53,236,59.13,236.19,59.13Z"/><path class="cls-112" d="M236.22,59.16h26.6c.16,0,.28,1.05.28,1.21V70.91c0,.17-.12,1.26-.28,1.26l-.55,1.12v3.48l-4.49-.56-.28,1.39-2.33-2H236.22c-.16,0-.28-1.44-.28-1.61V60.74C235.94,60.57,236.06,59.16,236.22,59.16Z"/><path class="cls-113" d="M236.25,59.19H262.8c.15,0,.27,1.05.27,1.21V70.84c0,.16-.12,1.25-.27,1.25l-.52,1.13v3.45l-4.49-.54-.27,1.43-2.33-2H236.25c-.15,0-.27-1.44-.27-1.6V60.76C236,60.6,236.1,59.19,236.25,59.19Z"/><path class="cls-114" d="M236.28,59.21h26.51c.14,0,.25,1.06.25,1.21V70.76c0,.15-.11,1.25-.25,1.25l-.49,1.14v3.41l-4.51-.5-.25,1.45-2.33-2H236.28c-.14,0-.26-1.45-.26-1.6V60.79C236,60.64,236.14,59.21,236.28,59.21Z"/><path class="cls-115" d="M236.3,59.24h26.48c.13,0,.24,1.06.24,1.2V70.68c0,.14-.11,1.24-.24,1.24l-.47,1.16v3.38L257.8,76l-.24,1.48-2.33-2H236.3a5.87,5.87,0,0,1-.24-1.61V60.82A5.7,5.7,0,0,1,236.3,59.24Z"/><path class="cls-116" d="M236.33,59.27h26.43c.13,0,.23,1.06.23,1.2V70.6c0,.14-.1,1.24-.23,1.24L262.33,73v3.35l-4.53-.45-.22,1.52-2.33-2H236.33a6.31,6.31,0,0,1-.22-1.6v-13A6.15,6.15,0,0,1,236.33,59.27Z"/><path class="cls-117" d="M236.36,59.3h26.39c.12,0,.21,1.07.21,1.19v10c0,.12-.09,1.23-.21,1.23l-.41,1.18v3.31l-4.53-.41-.21,1.55-2.33-2H236.36a6.46,6.46,0,0,1-.21-1.6V60.87A6.21,6.21,0,0,1,236.36,59.3Z"/><path class="cls-118" d="M236.39,59.33h26.35a4.11,4.11,0,0,1,.19,1.18v9.94a4.47,4.47,0,0,1-.19,1.23l-.38,1.19v3.28l-4.54-.38-.2,1.57-2.33-2h-18.9a7.07,7.07,0,0,1-.2-1.6V60.9A6.8,6.8,0,0,1,236.39,59.33Z"/><path class="cls-119" d="M236.42,59.36h26.3c.1,0,.18,1.07.18,1.18v9.83a4.42,4.42,0,0,1-.18,1.22l-.35,1.21v3.25l-4.55-.36-.17,1.61-2.34-2H236.42a7.72,7.72,0,0,1-.18-1.59V60.93A7.45,7.45,0,0,1,236.42,59.36Z"/><path class="cls-120" d="M236.44,59.39h26.27a4.53,4.53,0,0,1,.16,1.17v9.73a4.94,4.94,0,0,1-.16,1.22l-.32,1.23v3.2l-4.56-.32-.16,1.64-2.34-2H236.44a8.64,8.64,0,0,1-.16-1.59V61A8.31,8.31,0,0,1,236.44,59.39Z"/><path class="cls-121" d="M236.47,59.41h26.22a4.61,4.61,0,0,1,.15,1.17v9.64a5,5,0,0,1-.15,1.21l-.29,1.24v3.17l-4.57-.3-.14,1.68-2.34-2H236.47a9.78,9.78,0,0,1-.15-1.6V61A9.4,9.4,0,0,1,236.47,59.41Z"/><path class="cls-122" d="M236.5,59.44h26.18a5.21,5.21,0,0,1,.14,1.17v9.53a5.58,5.58,0,0,1-.14,1.21l-.26,1.25v3.14l-4.58-.27-.13,1.7-2.34-2H236.5a11.27,11.27,0,0,1-.13-1.6V61A10.83,10.83,0,0,1,236.5,59.44Z"/><path class="cls-123" d="M236.53,59.47h26.14a6.78,6.78,0,0,1,.12,1.16v9.43a7.27,7.27,0,0,1-.12,1.2l-.23,1.27v3.1l-4.59-.23-.12,1.73-2.34-2H236.53a11.29,11.29,0,0,1-.12-1.59V61A11,11,0,0,1,236.53,59.47Z"/><path class="cls-124" d="M236.56,59.5h26.09a6.8,6.8,0,0,1,.11,1.15V70a7.42,7.42,0,0,1-.11,1.2l-.2,1.28v3.07l-4.6-.21-.1,1.77-2.34-2H236.56a13.23,13.23,0,0,1-.11-1.59V61.06A12.73,12.73,0,0,1,236.56,59.5Z"/><path class="cls-125" d="M236.58,59.53h26.06a8.13,8.13,0,0,1,.09,1.15v9.23a8.85,8.85,0,0,1-.09,1.19l-.17,1.29v3l-4.61-.18-.09,1.8-2.34-2H236.58c-.05,0-.09-1.54-.09-1.59V61.09A15.42,15.42,0,0,1,236.58,59.53Z"/><path class="cls-126" d="M236.61,59.56h26a10.11,10.11,0,0,1,.07,1.14v9.13a11.2,11.2,0,0,1-.07,1.19l-.15,1.3v3l-4.61-.14L257.79,77l-2.34-2H236.61s-.07-1.54-.07-1.59V61.12S236.57,59.56,236.61,59.56Z"/><path class="cls-127" d="M236.64,59.59h26a10.28,10.28,0,0,1,.06,1.13v9a11.09,11.09,0,0,1-.06,1.18l-.11,1.32v3l-4.63-.12L257.81,77l-2.34-2H236.64s-.06-1.55-.06-1.59V61.15S236.61,59.59,236.64,59.59Z"/><path class="cls-128" d="M236.67,59.62H262.6s0,1.1,0,1.13v8.92s0,1.18,0,1.18l-.09,1.33v2.94L257.88,75l-.05,1.89-2.34-2H236.67s0-1.56,0-1.59V61.17S236.64,59.62,236.67,59.62Z"/><path class="cls-129" d="M236.7,59.64h25.88s0,1.11,0,1.13v8.82s0,1.18,0,1.18l-.05,1.34V75L257.88,75l0,1.92-2.35-2H236.7s0-1.56,0-1.58V61.2S236.68,59.64,236.7,59.64Z"/><path class="cls-130" d="M236.72,59.67h25.85s0,1.11,0,1.12v8.73s0,1.16,0,1.16l0,1.36v2.87l-4.65,0v2l-2.35-2H236.72s0-1.57,0-1.58V59.67Z"/><polygon class="cls-131" points="257.9 74.81 262.56 74.81 262.56 59.7 236.75 59.7 236.75 74.81 255.55 74.81 257.9 76.79 257.9 74.81"/></g><path class="cls-25" d="M268.12,71.84a1.64,1.64,0,0,1-1.58,1.7h-3.07v6.38l-7.54-6.38H236.31a1.64,1.64,0,0,1-1.58-1.7V52.54a1.64,1.64,0,0,1,1.58-1.7h30.23a1.64,1.64,0,0,1,1.58,1.7Z"/><rect class="cls-131" x="239.73" y="57.04" width="23.39" height="1.46"/><rect class="cls-131" x="239.73" y="61.66" width="23.39" height="1.46"/><rect class="cls-131" x="239.73" y="66.29" width="18.21" height="1.46"/><rect class="cls-25" x="318.07" y="232.01" width="122.28" height="70.28"/><rect class="cls-23" x="327.33" y="248.55" width="101.37" height="1.75"/><rect class="cls-23" x="327.33" y="251.76" width="84.15" height="1.75"/><rect class="cls-145" x="327.33" y="241.53" width="39.97" height="2.85"/><rect class="cls-145" x="327.33" y="266.05" width="20.23" height="1.75"/><rect class="cls-23" x="327.33" y="269.26" width="7.6" height="1.75"/><rect class="cls-23" x="327.45" y="283.57" width="18.48" height="1.76"/><rect class="cls-23" x="327.45" y="286.78" width="19.16" height="1.75"/><rect class="cls-23" x="327.45" y="289.99" width="18.59" height="1.75"/><rect class="cls-23" x="327.45" y="293.19" width="13.32" height="1.75"/><rect class="cls-154" x="354.56" y="266.05" width="2.94" height="28.9"/><rect class="cls-154" x="358.88" y="266.05" width="2.94" height="28.9"/><rect class="cls-154" x="363.19" y="266.05" width="2.94" height="28.9"/><rect class="cls-154" x="367.5" y="266.05" width="2.94" height="28.9"/><rect class="cls-154" x="371.81" y="266.05" width="2.94" height="28.9"/><rect class="cls-154" x="376.13" y="266.05" width="2.94" height="28.9"/><rect class="cls-154" x="380.43" y="266.05" width="2.95" height="28.9"/><rect class="cls-154" x="384.75" y="266.05" width="2.94" height="28.9"/><rect class="cls-154" x="389.05" y="266.05" width="2.94" height="28.9"/><rect class="cls-154" x="393.37" y="266.05" width="2.94" height="28.9"/><rect class="cls-154" x="397.68" y="266.05" width="2.94" height="28.9"/><rect class="cls-154" x="401.99" y="266.05" width="2.94" height="28.9"/><rect class="cls-154" x="406.3" y="266.05" width="2.94" height="28.9"/><rect class="cls-154" x="410.61" y="266.05" width="2.94" height="28.9"/><rect class="cls-154" x="414.92" y="266.05" width="2.94" height="28.9"/><rect class="cls-154" x="419.24" y="266.05" width="2.94" height="28.9"/><rect class="cls-154" x="423.55" y="266.05" width="2.94" height="28.9"/><rect class="cls-154" x="427.86" y="266.05" width="2.94" height="28.9"/><rect class="cls-151" x="354.56" y="271.33" width="2.94" height="23.62"/><rect class="cls-151" x="358.88" y="274.82" width="2.94" height="20.13"/><rect class="cls-151" x="363.19" y="283.65" width="2.94" height="11.3"/><rect class="cls-151" x="367.5" y="278.86" width="2.94" height="16.08"/><rect class="cls-151" x="371.81" y="290.42" width="2.94" height="4.52"/><rect class="cls-151" x="376.13" y="283.64" width="2.94" height="11.31"/><rect class="cls-151" x="380.43" y="279.62" width="2.95" height="15.33"/><rect class="cls-151" x="384.75" y="283.14" width="2.94" height="11.81"/><rect class="cls-151" x="389.05" y="271.33" width="2.94" height="23.62"/><rect class="cls-151" x="393.37" y="274.34" width="2.94" height="20.61"/><rect class="cls-151" x="397.68" y="268.56" width="2.94" height="26.38"/><rect class="cls-151" x="401.99" y="278.11" width="2.94" height="16.83"/><rect class="cls-151" x="406.3" y="271.83" width="2.94" height="23.12"/><rect class="cls-151" x="410.61" y="276.1" width="2.94" height="18.84"/><rect class="cls-151" x="414.92" y="283.39" width="2.94" height="11.56"/><rect class="cls-151" x="419.24" y="293.18" width="2.94" height="1.76"/><rect class="cls-151" x="423.55" y="274.84" width="2.94" height="20.1"/><rect class="cls-151" x="427.86" y="270.83" width="2.94" height="24.12"/><path class="cls-25" d="M441.27,233.45s-.41,2.25-12.43.42-29.27-7.23-29.27-7.23l28.09,1.87S438.38,229.69,441.27,233.45Z"/><path class="cls-25" d="M408.91,228.89c-5.74-.71-8.51,1.6-10.88,2.13a40.84,40.84,0,0,0-4.78,1.47c1.54-2.08,3.4-1.91,4.41-2.52s.73-.27-1.3-.67c-1.15-.22-3.41,1.39-5,2.24a4.83,4.83,0,0,1-2.19.71,24,24,0,0,1,3.78-3,29.49,29.49,0,0,1,6.21-2.89c1.27-.28,5.13.07,7.82.74C410,227.87,413,229.4,408.91,228.89Z"/><path class="cls-25" d="M399.45,226.52s-4.51.47-5.34.91c-.58.3-3.08,2.16-3.08,2.16a6.12,6.12,0,0,0,2.72-.73A50.9,50.9,0,0,1,399.45,226.52Z"/><path class="cls-134" d="M436.52,228s11.05,2,9.6,7.89c-.82,3.36-3.49,4.23-6.82,3.58-6.19-1.22-13.16-2.9-13.16-2.9L424,226.9Z"/><path class="cls-134" d="M444.1,228l23.08-7.35s6.69-.47,7.63,1.68c1.35,3.11-2.6,5.5-4.18,6.73-3.12,2.42-1.26,1.75-14.47,6.25-12.08,4.12-17,6-19.22.35C434.88,230.44,444.1,228,444.1,228Z"/><polygon class="cls-132" points="460.72 278.28 463.07 299.08 452.36 301.98 446.64 302.23 457.67 296.55 454.12 277.31 460.72 278.28"/><path class="cls-155" d="M463.27,301.85l-2.25.2-1.23-1.54L451.2,303l-7.31.43a1.3,1.3,0,0,1,.29-.83c1.07-1,6.42-2.63,6.42-2.63s-.19,1.65.5,1.82,7.3-1.91,8.85-2.54c2.67-1.07,3.28-1.92,3.44-1.77C463.83,297.9,463.27,301.85,463.27,301.85Z"/><path class="cls-150" d="M460.81,260.93l2,18.69-10.38-.76-2.64-27.94s1.75-6.87,6.43-5C459.25,247.17,460.81,260.93,460.81,260.93Z"/><path class="cls-150" d="M465.26,253.05l15.36,27.72s7.14,7.51,4.7,9.21c-3.5,2.45-13.9-.82-15.85-2.54-3.86-3.41-.94-1.5-10.11-17.31-8.37-14.45-12-20.31-5.58-24.44C459.76,241.84,465.26,253.05,465.26,253.05Z"/><path class="cls-136" d="M522.46,296.45s-25.44.21-24.84.27,4.22-6.39,4.22-6.39l17.2,3Z"/><polygon class="cls-132" points="515.55 295.85 517.62 291.61 528.42 294.16 533.56 296.66 521.16 296.41 515.55 295.85"/><path class="cls-155" d="M518.76,289.08l2.07.89.35,1.94,8.76,1.87,6.63,3.1s-.27.5-.65.59c-1.4.34-6.9-.74-6.9-.74s1-1.36.43-1.84-7.33-1.79-9-2c-2.86-.33-3.8.13-3.88-.08C516.39,292.28,518.76,289.08,518.76,289.08Z"/><path class="cls-150" d="M466.05,285.54l39.41,2.95L502,298.07l-49.75-2s-6.73-4.5-3.57-9.29C450.52,284,466.05,285.54,466.05,285.54Z"/><path class="cls-137" d="M466.76,236.64a12.47,12.47,0,1,0,9.5-14.65A12.34,12.34,0,0,0,466.76,236.64Z"/><path class="cls-137" d="M463.35,220.76a11.95,11.95,0,1,0,9.1-14A11.84,11.84,0,0,0,463.35,220.76Z"/><path class="cls-137" d="M452.36,214.29a9,9,0,0,0,10.72,6.79l1.26-4.65a9,9,0,0,0,6.8-10.73l-.73-3.28a9,9,0,0,0-10.73-6.8l-2.19.49a9,9,0,0,0-6.8,10.72Z"/><path class="cls-25" d="M453,200.61a17.5,17.5,0,0,0,.77,2.43c2.14,5.42,6.52,8.93,10.38,8.62a27,27,0,0,0,2.76,6.51c1.2,2.06,4.32,3.83,4.32,3.83,1.51,3.78-9.75,12.18-10.39,11.85-1.38-.71-2.82-5.53-.34-8.35,1.17-1.32,2.35-2.88,2.38-3.77.09-3.13-.91-3.8-2.42-5.23a7.32,7.32,0,0,0-5.66-1.27,1.08,1.08,0,0,1-.81-.16,6.33,6.33,0,0,1-.69-1.77l-1.62-7.23A6.38,6.38,0,0,1,453,200.61Z"/><path class="cls-156" d="M487.53,276.08s-2.51,4.6-3.44,5.25c-1.25.88-5.7.55-5.7.55s-4.9-17.61-7.67-24.3-5.05-8.11-5.6-10.29a24.8,24.8,0,0,1-.88-7.21c-.09-2.85-.34-7.5.24-8.25a10.92,10.92,0,0,0,2.31-4.17C467,226.77,487.53,276.08,487.53,276.08Z"/><path class="cls-133" d="M460.27,220.38s-1.19,7.7-1.06,9.43c.2,2.72-.11,9.53,2.76,16.8s4.23,8.92,5.67,14.38.44,7,2.43,13.61c1.55,5.2,3.43,9.68,3.43,9.68a4.53,4.53,0,0,0,3.93-2.24c1.36-2.38-3.45-20.61-5.14-25s-7-15.64-7.59-18.83-1.74-13.17-1.4-14.29C464.13,221.14,460.73,220.55,460.27,220.38Z"/><path class="cls-134" d="M460.15,219.91a2.63,2.63,0,0,0,.78.54,11.85,11.85,0,0,1,1.8,1s-1.13-.26-1.32.71a17.91,17.91,0,0,0,0,3.69s-2.59-2.68-2.36-3.77C459.48,220.13,460.15,219.91,460.15,219.91Z"/><path class="cls-150" d="M457.3,281.5l36.92-8.33s10.71-5.27,12.16-2.37c2.09,4.19-4.32,13.86-6.86,15.38-5,3-2,.56-23.18,5.73-19.33,4.71-27.23,6.84-30.62-.71C442.55,284.15,457.3,281.5,457.3,281.5Z"/><path class="cls-133" d="M486.47,280.12s-6.71-17.21-10.09-25.31-8.8-24.09-9.6-26a25.38,25.38,0,0,1-1.22-5s1-5.16,3.95-5.75c2.58-.53,7.21.42,11.48.88,2.95.32,11.17,30.66,11.8,32.09,2.25,5.15,9,10.57,11.93,14.35a59.71,59.71,0,0,1,4.8,7.76S494.43,275.34,486.47,280.12Z"/><polygon class="cls-134" points="468.16 217.01 466.85 219.67 465.09 223.65 467.68 226.53 470.23 217.88 468.16 217.01"/><path class="cls-134" d="M474.49,253.8l.84-27.39s2-7.34,4.62-7.55c3.78-.32,4.84,4.8,5.54,6.93,1.4,4.22,1.39,2,1.22,17.79-.15,14.44,0,20.39-6.8,20.7C473.61,264.57,474.49,253.8,474.49,253.8Z"/><path class="cls-132" d="M466.44,259.36s-8.67,3.46-9.56,3.55-1.37-.4-3.27-1-2.27-.61-3.8-1a13.68,13.68,0,0,0-1.71-.38s-.09.88.47,1.17,1.79.58,2.21.82-1.09-.25-3.43-.32a32.3,32.3,0,0,0-5.63.33c-.63.1-.71.13-.72.16,0,.29,0,.55.24.63s1.13.11,1.07.14a11.38,11.38,0,0,1-1.89.48c-.26,0-.61.07-.83.12-.44.1-.3.64.42.93,0,0,.13.38.35.49l.3.13c.13.06.28.07.41.12a8.93,8.93,0,0,0,1.46.37,13.71,13.71,0,0,1,1.93.21,6.68,6.68,0,0,0-1.39.26c0,.24.26.55.51.56.44,0,1.11,0,2.95,0a14.28,14.28,0,0,1,5,.4A5.11,5.11,0,0,0,456,267c5.22-2.75,10.06-2.22,11.61-3S466.44,259.36,466.44,259.36Z"/><path class="cls-134" d="M473.47,255.1s10.87-2.75,12,3.22c.64,3.4-1.44,5.3-4.74,6.07-6.14,1.45-13.19,2.8-13.19,2.8l-5.92-8Z"/><path class="cls-157" d="M214.93,103.81a9.78,9.78,0,0,1-9.78,9.77l-2.44-4.64c-5.41,0-9.78-8.14-9.78-13.54V91.74A9.78,9.78,0,0,1,202.71,82h2.44a9.78,9.78,0,0,1,9.78,9.78Z"/><path class="cls-157" d="M194.5,91.59a13.67,13.67,0,0,0-1.58.1,13,13,0,0,1,.17,2,12.82,12.82,0,0,1-11.42,12.63A13,13,0,1,0,194.5,91.59Z"/><path class="cls-151" d="M194.52,115.85s17,.46,17.37-.39,2.15-2.75-.15-4.06-7.07-1.83-9.8-1.76-9.29.25-9.29,1.08C192.65,113.59,193.74,115.31,194.52,115.85Z"/><path class="cls-25" d="M188.19,114.69S194,126,200.87,127.61s16.35.1,17.33-2.64-1.42-8.13-3-9.5-7.41-2.74-8.78-5.29a6,6,0,0,1-.64-5.26c.29-1.18-3.56-1.68-4.38,1.24-.29,1-1.44,3.51-2.84,4.17C195.06,112,192.31,111.16,188.19,114.69Z"/><path class="cls-132" d="M190.83,300.89l-.15,16.89s6,7.34,8.23,8.52,1.91.14,1.76-.44-3.82-4.85-4.41-7.2.74-16.74.59-17.48S190.83,300.89,190.83,300.89Z"/><path class="cls-148" d="M189.17,184l4.12,64.81s-3.23,14.79-3.65,19.78c-.71,8.53.11,34.26.11,34.26l8.62.39s6.07-58.15,6.85-63.24,9.6-46.6,4.5-56.78S189.17,184,189.17,184Z"/><path class="cls-155" d="M190.54,316.9a3.65,3.65,0,0,0-.42,2.11c.13.88.86,3.47.86,3.47l1.61.73V322a37.86,37.86,0,0,0,4.41,4.55c1.47,1,4.54,3.59,6.31,2.94a1.09,1.09,0,0,0,.59-.74s-2.79-3.08-3.23-3.52-1.47.44-2.64-.3a42.81,42.81,0,0,1-5.44-5A18.49,18.49,0,0,1,190.54,316.9Z"/><path class="cls-132" d="M207,297.07,206.84,314s6,7.34,8.22,8.52,1.91.14,1.76-.44-3.82-4.85-4.4-7.2.73-16.74.58-17.47S207,297.07,207,297.07Z"/><path class="cls-148" d="M209.43,181.06l-1,60.7-2,58.15,8.62.39s6.07-58.74,6.85-63.83,9.6-46,4.5-56.19S209.43,181.06,209.43,181.06Z"/><path class="cls-148" d="M216.06,184.78l-6.83,8.82-.59,36.23c2.43-4.93,4.23-8.54,4.79-9.57.94-1.7,4.67-7.8,8.9-15.35,0-2.6.07-5.23.07-7.85A128.6,128.6,0,0,0,216.06,184.78Z"/><path class="cls-155" d="M206.69,313.08a3.65,3.65,0,0,0-.42,2.11c.13.89.86,3.47.86,3.47l1.61.73v-1.17a37.86,37.86,0,0,0,4.41,4.55c1.47,1,4.55,3.59,6.31,2.94a1.07,1.07,0,0,0,.59-.74s-2.79-3.08-3.23-3.52-1.47.44-2.64-.29a44.36,44.36,0,0,1-5.44-5A18.49,18.49,0,0,1,206.69,313.08Z"/><path class="cls-158" d="M225.45,182.78H193.88L198.43,156l-1-31.39a43.89,43.89,0,0,0,11,2.59c3.37.21,10.58-2.59,10.58-2.59Z"/><path class="cls-159" d="M208.36,184.2s-6.26-47.58-8-51.11-3.14-11.75-3.14-11.75l-.39-7.63-3.13-2.55s-7.64,3.33-9,5.29,2.55,11.35,3.52,14.29,5.1,12.53,5.29,14.69,0,7.1-1,9.4C185.06,173,185,185.09,185.26,185,191.13,182.43,208.36,184.2,208.36,184.2Z"/><path class="cls-159" d="M211.89,112s7.05,4.5,7.24,6.46,3.13,12.33,3.72,21.14,0,11.16,1.18,17.43,2.92,7.33,4.11,15.08c.93,6.07,1.17,11.55,1.17,11.55a5.1,5.1,0,0,1-5.09-.39c-2.54-1.77-6.46-22.72-6.85-28S217,135.83,216,132.31,211.4,118,210.52,117C208.32,114.59,211.5,112.34,211.89,112Z"/><path class="cls-25" d="M211,85.67a18.83,18.83,0,0,1-.24,2.76c-1,6.27-4.8,11-9,11.63a29.43,29.43,0,0,1-1.39,7.57c-.77,2.48-3.67,5.09-3.67,5.09-.71,4.39,14.21,10.83,13.86,10.12s-4-5.87-5.23-10.61a9.68,9.68,0,0,1,1.49-7.91,8,8,0,0,1,5.72-2.7,1.12,1.12,0,0,0,.82-.36,6.9,6.9,0,0,0,.31-2V91.15A6.92,6.92,0,0,0,211,85.67Z"/><rect class="cls-136" x="161.62" y="156.39" width="75.64" height="45.82"/><rect class="cls-160" x="161.62" y="156.39" width="75.64" height="6.65"/><line class="cls-161" x1="163.77" y1="159.65" x2="165.71" y2="159.65"/><line class="cls-161" x1="167.54" y1="159.65" x2="169.47" y2="159.65"/><line class="cls-161" x1="171.31" y1="159.65" x2="173.24" y2="159.65"/><line class="cls-162" x1="172.32" y1="185.68" x2="215.23" y2="185.68"/><line class="cls-162" x1="172.32" y1="190.53" x2="215.23" y2="190.53"/><line class="cls-162" x1="172.32" y1="195.37" x2="215.23" y2="195.37"/><line class="cls-162" x1="168.86" y1="185.68" x2="166.35" y2="185.68"/><line class="cls-162" x1="168.86" y1="190.53" x2="166.35" y2="190.53"/><line class="cls-162" x1="168.86" y1="195.37" x2="166.35" y2="195.37"/><path class="cls-163" d="M224.18,185.5a1.59,1.59,0,1,1-1.59-1.59A1.59,1.59,0,0,1,224.18,185.5Z"/><path class="cls-164" d="M231.08,185.5a1.59,1.59,0,1,1-1.59-1.59A1.59,1.59,0,0,1,231.08,185.5Z"/><path class="cls-165" d="M224.18,190.56a1.59,1.59,0,1,1-1.59-1.59A1.6,1.6,0,0,1,224.18,190.56Z"/><path class="cls-166" d="M231.08,190.56a1.59,1.59,0,1,1-1.59-1.59A1.6,1.6,0,0,1,231.08,190.56Z"/><path class="cls-165" d="M224.18,195.62a1.59,1.59,0,1,1-1.59-1.59A1.6,1.6,0,0,1,224.18,195.62Z"/><path class="cls-164" d="M231.08,195.62a1.59,1.59,0,1,1-1.59-1.59A1.6,1.6,0,0,1,231.08,195.62Z"/><path class="cls-160" d="M176.44,180.55v-1.36a2.73,2.73,0,0,0-2.73-2.74h-4.79a2.73,2.73,0,0,0-2.73,2.74v1.36Z"/><path class="cls-160" d="M173.71,172a2.4,2.4,0,1,0-2.4,2.39A2.4,2.4,0,0,0,173.71,172Z"/><line class="cls-162" x1="181.18" y1="173.02" x2="207.38" y2="173.02"/><line class="cls-162" x1="181.18" y1="177.11" x2="198.72" y2="177.11"/><path class="cls-25" d="M184.56,151.35s2.37.3,1.13,13-5.93,31-5.93,31l.39-29.5S180.78,154.58,184.56,151.35Z"/><path class="cls-151" d="M189.06,135.34l-3.37,34.22v2.05L175.55,171s2.94-27.32,3.38-28.64a113.09,113.09,0,0,0,1.32-14.83c-.15-2.06,3.6-15.85,7.55-10.13C193.48,125.65,189.06,135.34,189.06,135.34Z"/><path class="cls-25" d="M181.59,185.46c-.42,6,2.15,8.81,2.84,11.26a42,42,0,0,0,1.8,4.93c-2.26-1.5-2.19-3.46-2.88-4.48s-.33-.75-.63,1.39c-.17,1.22,1.65,3.5,2.62,5.12a5.12,5.12,0,0,1,.87,2.24,24.25,24.25,0,0,1-3.33-3.78,30.73,30.73,0,0,1-3.37-6.34c-.37-1.32-.21-5.37.33-8.22C180.47,184.35,181.89,181.1,181.59,185.46Z"/><path class="cls-25" d="M179.64,195.49s.74,4.69,1.24,5.54c.35.59,2.44,3.1,2.44,3.1a6.33,6.33,0,0,0-.91-2.8A52.5,52.5,0,0,1,179.64,195.49Z"/><path class="cls-150" d="M107.7,295.38a5.68,5.68,0,0,1,0-.59,7.21,7.21,0,0,1,7.21-7.21H115a7.21,7.21,0,0,1,14-1.4,5.75,5.75,0,0,1,5.24,5.39,6.54,6.54,0,0,1,.89-.06,7.2,7.2,0,0,1,6.39,3.87"/><path class="cls-135" d="M111.9,259.35c-1.38-2.75-4-.3-5.94-.14-2.17.19-1.55-1.28-1.15-3.48s3.33-2.75,6.1-5.5-.59-8.07-3.17-7.71-2.17,2.85-3.95,2.94c-2.39.12-2.28-1.19-2.18-2.94.21-3.7,1.38-6.78.59-9.54a6.84,6.84,0,0,0-4.2-4l0,0a3.61,3.61,0,0,0-2.69,0s0,0,0,0a6.84,6.84,0,0,0-4.2,4c-.79,2.76.38,5.84.6,9.54.09,1.75.2,3.06-2.18,2.94-1.79-.09-1.39-2.57-4-2.94s-5.95,5-3.17,7.71,5.71,3.3,6.1,5.5,1,3.67-1.15,3.48c-2-.16-4.56-2.61-5.94.14s.39,10.66,7.92,12.31c4.24.93,6,3.35,7.36,3.14,1.41.21,3.14-2.21,7.37-3.14C111.51,270,113.29,262.1,111.9,259.35Z"/><rect x="96.4" y="238.89" width="0.43" height="56.49"/><rect x="95.12" y="253.3" width="11.78" height="0.43" transform="translate(-144.77 134.91) rotate(-42.52)"/><polygon points="96.81 270.26 96.52 269.94 103.85 263.25 104.14 263.56 96.81 270.26"/><polygon points="96.42 257.65 96.71 257.33 88.01 249.38 87.72 249.7 96.42 257.65"/><polygon points="96.42 270.26 96.71 269.94 89.38 263.25 89.09 263.56 96.42 270.26"/><path class="cls-150" d="M141.65,235.54c-1.64-3.51-4.69-2.32-7-2.11-2.57.24-.93-1.63-.47-4.44s3-3.51,6.32-7-.7-10.29-3.74-9.82-2.58,3.63-4.68,3.74c-2.81.16-2.69-1.52-2.57-3.74.24-4.72,1.63-8.65.7-12.16a8.39,8.39,0,0,0-5-5.1l0,0a4.11,4.11,0,0,0-3.18,0l0,0a8.39,8.39,0,0,0-5,5.1c-.94,3.51.45,7.44.7,12.16.12,2.22.24,3.9-2.57,3.74-2.11-.11-1.64-3.27-4.68-3.74s-7,6.31-3.74,9.82,5.85,4.21,6.31,7,2.11,4.68-.46,4.44c-2.33-.21-5.38-1.4-7,2.11s.47,12.63,9.36,14.73c5,1.19,7,1.37,8.7,1.1,1.66.27,3.7.09,8.7-1.1C141.18,248.17,143.29,239.05,141.65,235.54Z"/><rect class="cls-156" x="123.36" y="207.01" width="0.47" height="88.37"/><polygon class="cls-156" points="123.8 227.45 123.49 227.1 132.97 218.44 133.28 218.79 123.8 227.45"/><polygon class="cls-156" points="123.8 246.16 123.49 245.82 131.48 238.52 131.79 238.86 123.8 246.16"/><rect class="cls-156" x="118.56" y="216.53" width="0.47" height="12.84" transform="translate(-125.87 160.06) rotate(-47.53)"/><rect class="cls-156" x="119.31" y="236.93" width="0.47" height="10.82" transform="translate(-139.99 167.09) rotate(-47.58)"/></g></g></g></svg>