<?xml version="1.0" encoding="utf-8"?>
<!-- Generator: Adobe Illustrator 23.0.1, SVG Export Plug-In . SVG Version: 6.00 Build 0)  -->
<svg version="1.1" id="Layer_1" xmlns="http://www.w3.org/2000/svg" xmlns:xlink="http://www.w3.org/1999/xlink" x="0px" y="0px"
	 viewBox="0 0 642 982" style="enable-background:new 0 0 642 982;" xml:space="preserve">
<style type="text/css">
	.st0{fill:#EF3C24;}
</style>
<g>
	<g>
		<path class="st0" d="M320.5,4.73l312.93,312.93L320.5,630.59L7.57,317.66L320.5,4.73 M320.5,0.49L3.32,317.66L320.5,634.83
			l317.17-317.17L320.5,0.49L320.5,0.49z"/>
	</g>
	<g>
		<path class="st0" d="M320.5,181.69l312.93,312.93L320.5,807.55L7.57,494.62L320.5,181.69 M320.5,177.45L3.32,494.62L320.5,811.79
			l317.17-317.17L320.5,177.45L320.5,177.45z"/>
	</g>
	<g>
		<path class="st0" d="M320.5,353.4l312.93,312.93L320.5,979.26L7.57,666.33L320.5,353.4 M320.5,349.16L3.32,666.33L320.5,983.5
			l317.17-317.17L320.5,349.16L320.5,349.16z"/>
	</g>
</g>
</svg>
