<svg xmlns="http://www.w3.org/2000/svg" viewBox="0 0 221.68 200.22"><defs><style>.cls-1{fill:#ef3c24;}</style></defs><title>home</title><g id="Layer_2" data-name="Layer 2"><g id="Layer_1-2" data-name="Layer 1"><path class="cls-1" d="M220.26,113.37,122.4,5.21A15.44,15.44,0,0,0,110.85,0h0A15.45,15.45,0,0,0,99.3,5.21L1.43,113.37a5.54,5.54,0,0,0,4.1,9.26,5.49,5.49,0,0,0,4.11-1.83l23.6-26.08v88.87a16.65,16.65,0,0,0,16.63,16.63H171.8a16.65,16.65,0,0,0,16.63-16.63V94.72L212,120.8a5.54,5.54,0,1,0,8.21-7.44ZM133,189.14H88.68V139.26a5.55,5.55,0,0,1,5.54-5.55h33.25a5.55,5.55,0,0,1,5.54,5.55Zm44.34-5.55a5.55,5.55,0,0,1-5.54,5.55H144.1V139.26a16.65,16.65,0,0,0-16.63-16.63H94.22a16.65,16.65,0,0,0-16.63,16.63v49.88H49.88a5.55,5.55,0,0,1-5.54-5.55V82.47l63.18-69.83a4.31,4.31,0,0,1,6.65,0l63.18,69.83Z"/></g></g></svg>