<svg xmlns="http://www.w3.org/2000/svg" viewBox="0 0 439.72 207.88"><defs><style>.cls-1{fill:#ff7f41;}</style></defs><title>cloud-3</title><g id="Layer_2" data-name="Layer 2"><g id="Layer_1-2" data-name="Layer 1"><path class="cls-1" d="M172.65,127.89A73.35,73.35,0,1,1,99.32,54.56,73.35,73.35,0,0,1,172.65,127.89Z"/><path class="cls-1" d="M407.19,140.82a78,78,0,0,0,.54-8.71,73.2,73.2,0,0,0-105.25-66A91.85,91.85,0,0,0,123.64,77a98.26,98.26,0,0,0-58.77,34.15,48.82,48.82,0,0,0-15.29-2.44,49.54,49.54,0,0,0-1,99.08s0,0,0,0H403.28l.1-.26c.93.07,1.81.26,2.75.26a33.54,33.54,0,0,0,1.06-67.06Z"/></g></g></svg>