<svg xmlns="http://www.w3.org/2000/svg" viewBox="0 0 821.41 208.84"><defs><style>.cls-1{fill:#ef3c24;}.cls-2{fill:#ff7f41;}</style></defs><title>clouds</title><g id="Layer_2" data-name="Layer 2"><g id="Layer_1-2" data-name="Layer 1"><path class="cls-1" d="M814.66,207.88a67,67,0,0,0,6.75-29.24c0-37.19-39.95-67.36-77.15-67.36a67.2,67.2,0,0,0-60.61,96.6Z"/><path class="cls-2" d="M476.29,127.89A73.36,73.36,0,1,1,403,54.56,73.35,73.35,0,0,1,476.29,127.89Z"/><path class="cls-2" d="M710.82,140.82a75.7,75.7,0,0,0,.55-8.71,73.21,73.21,0,0,0-105.26-66A91.85,91.85,0,0,0,427.28,77a98.26,98.26,0,0,0-58.77,34.15,48.82,48.82,0,0,0-15.29-2.44,49.54,49.54,0,0,0-1,99.08s0,0,0,0h354.7a2.67,2.67,0,0,0,.09-.26c.94.07,1.82.26,2.76.26a33.54,33.54,0,0,0,1.05-67.06Z"/><path class="cls-1" d="M422.07,158.29a70.77,70.77,0,0,0-37.68,10.86,108.32,108.32,0,0,0-210-36.44,108,108,0,0,0-138.09,63,58.06,58.06,0,0,0,34.44,12.15s0,.05,0,.06H489c0-.1.08-.21.12-.32l.74.07A71.3,71.3,0,0,0,422.07,158.29Z"/><path class="cls-2" d="M40.75,188.81c0,10.49-21.24,20.05-31.73,20S.07,199.63.09,189.13s11.22-19.34,21.69-19.32A19,19,0,0,1,40.75,188.81Z"/><path class="cls-2" d="M91.91,207.88A37.64,37.64,0,1,0,19,194.71a37,37,0,0,0,2.35,13.06Z"/></g></g></svg>