<svg xmlns="http://www.w3.org/2000/svg" viewBox="0 0 326.57 1364.7"><defs><style>.cls-1{fill:#ff7f41;}.cls-2{fill:#ef3c24;}.cls-3{fill:#30363d;}.cls-4{fill:#484f59;}.cls-5{fill:#e5e8ec;}.cls-6{fill:#f1fafc;}.cls-7{fill:#212322;}</style></defs><title>rocket-trail</title><g id="Layer_2" data-name="Layer 2"><g id="Layer_1-2" data-name="Layer 1"><path class="cls-1" d="M117.28,164.14C200.7,271.27,263.65,397,300.38,536.32c57.73,261,22.24,553.88-128.44,828.38l-54.66-89.55-54.64-89.54c129-170.47,191.53-392.68,165.73-625.81C220,432.29,184.89,297.3,117.28,164.14Z"/><path class="cls-2" d="M119.79,173.6c79.73,106.56,138.68,230.6,171.75,367C345,795.79,307,1080.27,157.87,1345.08l-38.08-79.39q-19-39.7-38.09-79.42C207.49,1013.72,265.82,791.89,237.19,561.4,225.93,435.49,188.5,303.23,119.79,173.6Z"/><path class="cls-1" d="M123.84,188.88c73.77,105.64,126.27,226.94,153.44,358.57,46.6,245.87,4.35,516.77-142.17,765.9q-5.64-31.47-11.27-62.92t-11.29-63.09C233.2,1011.41,284.66,790.22,251.47,564,235.54,440.66,194.36,312.83,123.84,188.88Z"/><path class="cls-3" d="M137.78,211.21c15.28-9.78,40.82,2.87,57.06,28.23a90.22,90.22,0,0,1,5.43,9.76L146.1,283.87a91.31,91.31,0,0,1-6.58-9C123.28,249.49,122.5,221,137.78,211.21Z"/><path class="cls-4" d="M145,206.6c11.3-7.23,33.63,7.48,49.87,32.84,2.06,3.22,3.92,6.46,5.58,9.66l-40.06,25.64q-3.33-4.28-6.43-9.11C137.69,240.26,133.68,213.83,145,206.6Z"/><path class="cls-4" d="M93.44,84.43c31.33,48.95,83.66,75.49,134.78,73.87,1.77.32,3.51.64,5.2.93C244.25,161.08,260.9,192,260.9,192l-70.31,45S92.37,83.55,81.42,66.43a110.57,110.57,0,0,0,6.9,9.39C89.94,78.72,91.63,81.6,93.44,84.43Z"/><path class="cls-5" d="M129.64,141.78a155.25,155.25,0,0,0,102.11,28.88q2.83.39,5.51.72c7,.88,15.84,12.74,21.67,21.88L190.59,237S159,187.63,129.64,141.78Z"/><path class="cls-6" d="M250.54,193.75a11.62,11.62,0,0,1,5,1.7L190.59,237l-36.13-56.45c27.07,12.24,58.33,16.71,90.09,12.79C246.59,193.49,248.6,193.63,250.54,193.75Z"/><path class="cls-4" d="M41.21,117.86c31.33,49,33.51,107.59,10.64,153.33q-.68,2.63-1.33,5.12C47.67,286.91,68.77,315,68.77,315l70.3-45L29.9,99.41a111.39,111.39,0,0,1,5.63,10.2C37.48,112.29,39.4,115,41.21,117.86Z"/><path class="cls-5" d="M78.12,174.75A155.21,155.21,0,0,1,61.6,279.58c-.55,1.81-1.11,3.59-1.65,5.3-2.14,6.73,4.93,19.72,10.78,28.84L139.07,270Z"/><path class="cls-6" d="M74.69,306.31a11.82,11.82,0,0,0-.53,5.21L139.07,270,103,213.53c-.22,29.7-9.26,60-26.11,87.16C76.11,302.61,75.4,304.49,74.69,306.31Z"/><path class="cls-6" d="M137.29,271.12,24.42,94.79C14.09,78.65-7.43,18.6,2.6,0,23.67-1.3,69.19,43.39,79.51,59.53L192.38,235.85Z"/><path class="cls-5" d="M2.6,0C2.81,0,3,0,3.26,0l162,253.16-28,17.93L24.42,94.79C14.09,78.65-7.43,18.6,2.6,0Z"/><path class="cls-4" d="M45.34,23.44,6,48.64C.49,29.19-2.44,9.37,2.6,0,13.2-.64,30,10.32,45.34,23.44Z"/><path class="cls-7" d="M26.12,35.74,6,48.64C.49,29.19-2.44,9.37,2.6,0,2.81,0,3,0,3.26,0Z"/><path class="cls-4" d="M27.39,76.1c2.78,1.85,5.91-1.52,9.25-6a25.5,25.5,0,0,1,15.67-10c5.43-1.19,9.81-2.6,9.29-5.9h0c-.44-3.25-7.08-7.59-14.22-6.15A32,32,0,0,0,27.77,60.61c-4.32,5.86-3.15,13.7-.38,15.49Z"/><path class="cls-7" d="M194,175.25c6.68-4.28,25.26,12.82,41.5,38.19,2.06,3.22,4,6.42,5.75,9.55l-23.69,15.16c-2.1-2.91-4.2-6-6.26-9.22C195,203.56,187.27,179.53,194,175.25Z"/><path class="cls-7" d="M194,175.25c1.74-1.12,4.3-.74,7.42.81-3.57,6.52,3.65,27.11,17.53,48.8,1.93,3,3.9,5.9,5.87,8.65l-7.26,4.64c-2.1-2.91-4.2-6-6.26-9.22C195,203.56,187.27,179.53,194,175.25Z"/><path class="cls-7" d="M81.59,247.17c6.68-4.27,25.27,12.82,41.51,38.19,2.06,3.22,4,6.42,5.75,9.55l-23.7,15.17c-2.1-2.92-4.2-6-6.26-9.22C82.66,275.49,74.91,251.45,81.59,247.17Z"/><path class="cls-7" d="M81.59,247.17c1.75-1.11,4.31-.75,7.43.82-3.58,6.51,3.65,27.11,17.53,48.79q2.9,4.53,5.86,8.65l-7.26,4.65c-2.1-2.92-4.2-6-6.26-9.22C82.66,275.49,74.91,251.45,81.59,247.17Z"/></g></g></svg>