<svg xmlns="http://www.w3.org/2000/svg" viewBox="0 0 263.94 1200.57"><defs><style>.cls-1{fill:#ff7f41;}.cls-2{fill:#ef3c24;}</style></defs><title>trail</title><g id="Layer_2" data-name="Layer 2"><g id="Layer_1-2" data-name="Layer 1"><path class="cls-1" d="M54.65,0C138.06,107.13,201,232.86,237.74,372.18c57.73,261,22.24,553.88-128.44,828.39Q82,1155.78,54.65,1111L0,1021.47C129,851,191.53,628.79,165.73,395.66,157.35,268.16,122.25,133.16,54.65,0Z"/><path class="cls-2" d="M57.15,9.46c79.73,106.57,138.68,230.6,171.76,367,53.48,255.22,15.41,539.69-133.68,804.5l-38.08-79.39q-19-39.71-38.09-79.42c125.8-172.55,184.12-394.38,155.49-624.87C163.29,271.36,125.86,139.09,57.15,9.46Z"/><path class="cls-1" d="M61.2,24.74C135,130.38,187.47,251.68,214.64,383.31c46.6,245.87,4.35,516.78-142.17,765.9q-5.64-31.47-11.27-62.92t-11.29-63.08C170.56,847.27,222,626.08,188.83,399.83,172.91,276.52,131.72,148.69,61.2,24.74Z"/></g></g></svg>