<svg id="Layer_1" data-name="Layer 1" xmlns="http://www.w3.org/2000/svg" xmlns:xlink="http://www.w3.org/1999/xlink" viewBox="0 0 800 800"><defs><style>.cls-1{fill:#fff;}.cls-2{fill:url(#New_Gradient_Swatch_1);}.cls-3{fill:url(#New_Gradient_Swatch_1-2);}</style><linearGradient id="New_Gradient_Swatch_1" x1="877.14" y1="386.67" x2="-1277.42" y2="265.95" gradientUnits="userSpaceOnUse"><stop offset="0" stop-color="#f39042"/><stop offset="0.46" stop-color="#e6332a"/><stop offset="1" stop-color="#981c1f"/></linearGradient><linearGradient id="New_Gradient_Swatch_1-2" x1="874.4" y1="435.55" x2="-1280.16" y2="314.83" xlink:href="#New_Gradient_Swatch_1"/></defs><title>app-icon-white-bg</title><path class="cls-1" d="M633.38,397.7a165.81,165.81,0,0,1-31.08,21.85,260.7,260.7,0,0,1-2.43-37.64,161.13,161.13,0,0,1,5.83-42.47,154.31,154.31,0,0,1,18.93-42Q637.76,276.83,662,260.8q4.37-2.93,1.7-8.25t-9.23-11.89A151.85,151.85,0,0,0,639,227.3q-9-6.78-17-12.13T603.28,203q-21.37,11.16-35.45,25t-27.91,37.38Q526.09,289,519.77,325.36q-11.17-.94-23.53,5.35a92.33,92.33,0,0,0-23.8,18,158.94,158.94,0,0,0-21.11,27.18A148,148,0,0,0,436,408.62a119.62,119.62,0,0,0-5.83,35.44A84.62,84.62,0,0,0,437,478.77q7,16.53,22.34,30.83t41,23.55q8.26,2.9,20.4,2.43a115.2,115.2,0,0,0,25.48-4.13,155.8,155.8,0,0,0,26.46-10,92.39,92.39,0,0,0,22.82-15.3,56.49,56.49,0,0,0,14.32-20.38q4.6-11.4,1.21-25a1.4,1.4,0,0,1-.48-1q25.73-6.78,50-25.48t45.15-52.68l-43.21-16.5A190.1,190.1,0,0,1,633.38,397.7Zm-132.54-8.26q2.43-11.15,5.83-21.85a163.78,163.78,0,0,1,8.25-20.86l1.94-3.39-.49.47a8.69,8.69,0,0,1,1-2.43q-4.36,37.88,3.4,87.89A36.51,36.51,0,0,1,505.21,414Q499.87,404,500.84,389.44Zm18.21,85.2q-3.16,8.5-7,13.11c-2.6,3.09-5.27,4.94-8,5.6s-5.1-.5-7-3.4q-3.88-4.86-4.85-19.18a240.42,240.42,0,0,1,.48-33.74,115,115,0,0,0,30.58,18A75.73,75.73,0,0,1,519.05,474.64Z"/><path class="cls-1" d="M105.65,671a177.37,177.37,0,0,0,14.43,27.2q83.81-12.78,152.64-22.76,29.41-4.45,58.28-8.6t53.29-7.5c16.27-2.22,94.19-12.57,105.67-13.86s19.23-2.14,23.31-2.5q11.09-.56,12.49-12.21a78.93,78.93,0,0,0-1.67-25.81,254.63,254.63,0,0,0-7.21-26.64q-4.17-12.49-3.61-14.71-2.79,1.11-22.76,3c-13.32,1.3-93.93,11.56-113.72,13.59s-41.63,4.44-65.5,7.21-47.45,5.65-70.76,8.61q11.66-47.73,33.58-106.57t51.06-120.73q29.15-61.87,63.55-123.22t71-114.06q1.11-1.11-6.94-4.17A211.54,211.54,0,0,0,432,120.92q-12.78-3.33-28.31-6.66t-28.86-6.38q-13.32-3-31.09-6.38Q319.9,137,294.65,178.37t-49.13,85.2q-23.86,43.86-45.24,88.81t-36.91,88a621,621,0,0,0-23.86,82.42q-8.32,39.42-6.66,72.16c0,1.11,2.22,2.95,6.66,5.55a139.88,139.88,0,0,0,17.76,8.32q-22.22,4.44-36.64,8.33t-17.2,8.32q-6.11,9.43-4.17,21.93A109.09,109.09,0,0,0,105.65,671Z"/><path class="cls-2" d="M634,397.35a165.36,165.36,0,0,1-31.19,21.94,261.11,261.11,0,0,1-2.44-37.78,161.52,161.52,0,0,1,5.85-42.64,155.1,155.1,0,0,1,19-42.16q13.15-20.7,37.53-36.78,4.38-2.94,1.7-8.29t-9.26-11.94a152.12,152.12,0,0,0-15.6-13.4q-9-6.83-17-12.18c-5.36-3.59-11.62-7.63-18.76-12.2Q582.36,213.14,568.23,227t-28,37.52Q526.32,288.19,520,324.73q-11.22-.94-23.63,5.38a92.54,92.54,0,0,0-23.89,18,160.75,160.75,0,0,0-21.2,27.29,148.42,148.42,0,0,0-15.34,32.9,119.85,119.85,0,0,0-5.85,35.57,84.94,84.94,0,0,0,6.82,34.85q7.07,16.59,22.42,30.95t41.17,23.64q8.29,2.91,20.48,2.44a116.08,116.08,0,0,0,25.58-4.14,155.35,155.35,0,0,0,26.56-10A92.62,92.62,0,0,0,596,506.28a56.79,56.79,0,0,0,14.37-20.46q4.64-11.46,1.22-25.11a1.4,1.4,0,0,1-.48-1q25.82-6.81,50.19-25.58t45.33-52.89l-43.38-16.56A191.17,191.17,0,0,1,634,397.35Zm-133-8.29q2.44-11.18,5.85-21.93a164.5,164.5,0,0,1,8.29-20.94l1.94-3.41-.48.47a8.58,8.58,0,0,1,1-2.43q-4.39,38,3.41,88.22a36.56,36.56,0,0,1-15.6-15.37Q500,403.71,501,389.06Zm18.28,85.53q-3.18,8.55-7.07,13.17t-8,5.61c-2.76.66-5.11-.49-7.07-3.41q-3.9-4.87-4.87-19.25a242.41,242.41,0,0,1,.49-33.87,115.27,115.27,0,0,0,30.7,18A76.17,76.17,0,0,1,519.26,474.59Z"/><path class="cls-3" d="M104.25,671.69A177.49,177.49,0,0,0,118.74,699Q202.88,686.18,272,676.15q29.53-4.46,58.51-8.63T384,660c16.34-2.22,94.57-12.62,106.08-13.91s19.31-2.15,23.41-2.51Q524.59,643,526,631.31a79,79,0,0,0-1.67-25.91,252.52,252.52,0,0,0-7.24-26.75q-4.19-12.52-3.62-14.76Q510.66,565,490.61,567c-13.37,1.31-94.29,11.6-114.16,13.64s-41.79,4.46-65.75,7.24-47.64,5.67-71,8.64q11.7-47.91,33.71-107T324.63,368.3q29.25-62.13,63.8-123.71t71.32-114.5q1.11-1.11-7-4.18a212.46,212.46,0,0,0-20.9-6.41q-12.83-3.34-28.41-6.69t-29-6.41q-13.37-3-31.21-6.4-24,35.67-49.31,77.17T244.67,262.7q-24,44-45.41,89.16T162.2,440.18a623.7,623.7,0,0,0-24,82.74q-8.36,39.57-6.68,72.44,0,1.67,6.68,5.57a140.9,140.9,0,0,0,17.83,8.36q-22.29,4.46-36.77,8.36C109.63,620.24,103.89,623,102,626q-6.12,9.48-4.18,22A109.1,109.1,0,0,0,104.25,671.69Z"/></svg>