<svg id="Layer_1" data-name="Layer 1" xmlns="http://www.w3.org/2000/svg" viewBox="0 0 253 245"><defs><style>.cls-1{fill:#212322;}</style></defs><title>Artboard 1</title><path class="cls-1" d="M218.34,121a63.46,63.46,0,0,1-12.15,8.54,101.9,101.9,0,0,1-.95-14.71,63,63,0,0,1,2.28-16.61,60.43,60.43,0,0,1,7.4-16.42,48.5,48.5,0,0,1,14.62-14.33c1.14-.76,1.36-1.83.67-3.23a18.7,18.7,0,0,0-3.61-4.64,60.51,60.51,0,0,0-6.08-5.23q-3.51-2.65-6.64-4.74c-2.09-1.4-4.52-3-7.3-4.75a57.51,57.51,0,0,0-13.87,9.78A71.33,71.33,0,0,0,181.8,69.24q-5.42,9.21-7.88,23.44a17.07,17.07,0,0,0-9.2,2.1,35.74,35.74,0,0,0-9.3,7,62.07,62.07,0,0,0-8.26,10.63,57.78,57.78,0,0,0-6,12.81,46.94,46.94,0,0,0-2.28,13.86,32.93,32.93,0,0,0,2.66,13.57,35.74,35.74,0,0,0,8.73,12.06q6,5.59,16,9.2a21.46,21.46,0,0,0,8,1,45.17,45.17,0,0,0,10-1.61,60.47,60.47,0,0,0,10.34-3.89,36.42,36.42,0,0,0,8.93-6,22.18,22.18,0,0,0,5.6-8,15.52,15.52,0,0,0,.47-9.78.56.56,0,0,1-.19-.38,55.17,55.17,0,0,0,19.55-10q9.5-7.32,17.66-20.6l-16.9-6.45A74.45,74.45,0,0,1,218.34,121Zm-51.82-3.23q.94-4.35,2.28-8.54A62.82,62.82,0,0,1,172,101l.75-1.33-.19.19a3.59,3.59,0,0,1,.39-1q-1.71,14.81,1.32,34.36a14.23,14.23,0,0,1-6.07-6,17.44,17.44,0,0,1-1.68-9.48Zm7.12,33.32a17.71,17.71,0,0,1-2.75,5.12,6.06,6.06,0,0,1-3.14,2.19A2.48,2.48,0,0,1,165,157q-1.51-1.91-1.9-7.5a95.19,95.19,0,0,1,.19-13.19,45,45,0,0,0,12,7,29.37,29.37,0,0,1-1.65,7.75Z"/><path class="cls-1" d="M12,227.82a67.66,67.66,0,0,0,5.64,10.64q32.76-5,59.68-8.9,11.5-1.74,22.79-3.36T121,223.27c6.36-.87,36.83-4.92,41.31-5.42s7.52-.84,9.12-1q4.33-.22,4.88-4.77a30.91,30.91,0,0,0-.65-10.1,98.75,98.75,0,0,0-2.82-10.41q-1.64-4.89-1.41-5.76c-.73.3-3.69.69-8.9,1.2s-36.73,4.52-44.47,5.31-16.27,1.74-25.61,2.82-18.55,2.21-27.67,3.37a377.73,377.73,0,0,1,13.13-41.67q8.58-23,20-47.21t24.85-48.18q13.45-24,27.78-44.6c.29-.29-.62-.83-2.71-1.63a83,83,0,0,0-8.14-2.49q-5-1.31-11.07-2.61T117.26,7.65Q112,6.45,105.1,5.15,95.77,19,85.89,35.21T66.69,68.52Q57.35,85.68,49,103.25t-14.43,34.4a240.4,240.4,0,0,0-9.34,32.23,110.06,110.06,0,0,0-2.6,28.21c0,.44.87,1.16,2.6,2.17a54.27,54.27,0,0,0,7,3.26q-8.68,1.72-14.33,3.25c-3.77,1-6,2.1-6.77,3.23a11.87,11.87,0,0,0-1.63,8.6A42.07,42.07,0,0,0,12,227.82Z"/></svg>