<svg id="Layer_1" data-name="Layer 1" xmlns="http://www.w3.org/2000/svg" viewBox="0 0 368 137"><defs><style>.cls-1{fill:#fff;}</style></defs><title>text-white</title><polygon class="cls-1" points="11.96 10.73 10.42 10.73 10.42 67.63 48.37 67.63 48.37 66.19 11.96 66.19 11.96 10.73"/><polygon class="cls-1" points="104.24 66.11 67.91 66.11 67.91 39.26 101.72 39.26 101.72 37.74 67.91 37.74 67.91 12.25 104.24 12.25 104.24 10.73 66.37 10.73 66.37 67.63 104.24 67.63 104.24 66.11"/><path class="cls-1" d="M145.1,10.74H122.23V67.63H145c16.78,0,30.41-12.74,30.41-28.45S161.8,10.81,145.1,10.74Zm-.24,55.38h-21V12.25h21c16,0,28.86,12,28.86,26.93S160.83,66.12,144.86,66.12Z"/><polygon class="cls-1" points="192.77 10.73 192.77 67.63 194.31 67.63 194.31 45.41 202.26 37.97 234.04 67.63 236.48 67.63 203.56 36.76 231.45 10.73 229.18 10.73 194.31 43.13 194.31 10.73 192.77 10.73"/><polygon class="cls-1" points="269.23 45.18 247.99 10.73 246.04 10.73 268.5 46.62 268.5 67.63 270.04 67.63 270.04 46.62 292.5 10.73 290.56 10.73 269.23 45.18"/><path class="cls-1" d="M346.26,37.36a14,14,0,0,0,9.16-12.82c0-7.58-6.65-13.8-14.76-13.8h-30V67.63H342.2c9.08,0,16.46-6.9,16.46-15.4C358.66,45.1,353.39,39,346.26,37.36Zm-34-25.11h28.38c7.22,0,13.14,5.54,13.14,12.29s-5.92,12.29-13.14,12.29H312.28ZM342.2,66.12H312.28V38.35H342.2c8.19,0,14.84,6.22,14.84,13.88S350.39,66.12,342.2,66.12Z"/><path class="cls-1" d="M98.19,104.4c4.12,0,7.42,2.7,7.42,6.07h.81c0-3.72-3.68-6.77-8.23-6.77s-8.23,3-8.23,6.74,3.69,6.73,8.23,6.73c4.12,0,7.42,2.73,7.42,6.1s-3.3,6.06-7.42,6.06-7.42-2.73-7.42-6.1H90C90,127,93.65,130,98.19,130s8.23-3,8.23-6.73-3.68-6.73-8.23-6.73c-4.11,0-7.42-2.7-7.42-6.07S94.08,104.4,98.19,104.4Z"/><polygon class="cls-1" points="111.99 104.37 124.25 104.37 124.25 130 125.07 130 125.07 104.37 137.37 104.37 137.37 103.7 111.99 103.7 111.99 104.37"/><path class="cls-1" d="M167.64,119.66c0,5.33-5.4,9.6-11.88,9.6s-11.83-4.31-11.83-9.64V103.7h-.86v15.92c0,5.75,5.66,10.38,12.69,10.38s12.74-4.63,12.74-10.38V103.7h-.86Z"/><path class="cls-1" d="M188.17,103.7H176.08V130h12c8.87,0,16.08-5.89,16.08-13.15S197,103.74,188.17,103.7ZM188,129.3H176.9V104.4H188c8.45,0,15.26,5.54,15.26,12.45S196.49,129.3,188,129.3Z"/><rect class="cls-1" x="211.96" y="103.7" width="0.81" height="26.3"/><path class="cls-1" d="M237.25,103.7c-8.91,0-16.07,5.86-16.07,13.15S228.34,130,237.25,130s16.12-5.86,16.12-13.15S246.17,103.7,237.25,103.7Zm0,25.63c-8.48,0-15.26-5.54-15.26-12.48s6.78-12.48,15.26-12.48,15.31,5.54,15.31,12.48S245.74,129.33,237.25,129.33Z"/><path class="cls-1" d="M267.18,104.4c4.11,0,7.41,2.7,7.41,6.07h.82c0-3.72-3.69-6.77-8.23-6.77s-8.24,3-8.24,6.74,3.69,6.73,8.24,6.73c4.11,0,7.41,2.73,7.41,6.1s-3.3,6.06-7.41,6.06-7.42-2.73-7.42-6.1h-.82c0,3.72,3.69,6.77,8.24,6.77s8.23-3,8.23-6.73-3.69-6.73-8.23-6.73c-4.12,0-7.42-2.7-7.42-6.07S263.06,104.4,267.18,104.4Z"/></svg>