<svg id="Layer_1" data-name="Layer 1" xmlns="http://www.w3.org/2000/svg" viewBox="0 0 368 399"><defs><style>.cls-1{fill:#fff;}</style></defs><title>logo-white</title><polygon class="cls-1" points="11.96 272.74 10.42 272.74 10.42 329.63 48.37 329.63 48.37 328.19 11.96 328.19 11.96 272.74"/><polygon class="cls-1" points="104.24 328.12 67.91 328.12 67.91 301.26 101.72 301.26 101.72 299.74 67.91 299.74 67.91 274.25 104.24 274.25 104.24 272.74 66.37 272.74 66.37 329.63 104.24 329.63 104.24 328.12"/><path class="cls-1" d="M145.1,272.74H122.23v56.89H145c16.78,0,30.41-12.74,30.41-28.45S161.8,272.81,145.1,272.74Zm-.24,55.38h-21V274.25h21c16,0,28.86,12,28.86,26.93S160.83,328.12,144.86,328.12Z"/><polygon class="cls-1" points="192.77 272.74 192.77 329.63 194.31 329.63 194.31 307.4 202.26 299.97 234.04 329.63 236.48 329.63 203.56 298.76 231.45 272.74 229.18 272.74 194.31 305.13 194.31 272.74 192.77 272.74"/><polygon class="cls-1" points="269.23 307.18 247.99 272.74 246.04 272.74 268.5 308.62 268.5 329.63 270.04 329.63 270.04 308.62 292.5 272.74 290.56 272.74 269.23 307.18"/><path class="cls-1" d="M346.26,299.36a14,14,0,0,0,9.16-12.82c0-7.58-6.65-13.8-14.76-13.8h-30v56.89H342.2c9.08,0,16.46-6.9,16.46-15.4C358.66,307.1,353.39,301,346.26,299.36Zm-34-25.11h28.38c7.22,0,13.14,5.54,13.14,12.29s-5.92,12.29-13.14,12.29H312.28Zm29.92,53.87h-29.9V300.35H342.2c8.19,0,14.84,6.22,14.84,13.88s-6.65,13.89-14.84,13.89Z"/><path class="cls-1" d="M98.19,366.4c4.12,0,7.42,2.7,7.42,6.07h.81c0-3.72-3.68-6.77-8.23-6.77s-8.23,3-8.23,6.74,3.69,6.73,8.23,6.73c4.12,0,7.42,2.73,7.42,6.1s-3.3,6.06-7.42,6.06-7.42-2.73-7.42-6.1H90C90,389,93.65,392,98.19,392s8.23-3,8.23-6.73-3.68-6.73-8.23-6.73c-4.11,0-7.42-2.7-7.42-6.07S94.08,366.4,98.19,366.4Z"/><polygon class="cls-1" points="111.99 366.37 124.25 366.37 124.25 392 125.07 392 125.07 366.37 137.37 366.37 137.37 365.7 111.99 365.7 111.99 366.37"/><path class="cls-1" d="M167.64,381.66c0,5.33-5.4,9.6-11.88,9.6s-11.83-4.31-11.83-9.64V365.7h-.86v15.92c0,5.75,5.66,10.38,12.69,10.38s12.74-4.63,12.74-10.38V365.7h-.86Z"/><path class="cls-1" d="M188.17,365.7H176.08V392h12c8.87,0,16.08-5.89,16.08-13.15S197,365.74,188.17,365.7ZM188,391.3H176.9V366.4H188c8.45,0,15.26,5.54,15.26,12.45S196.49,391.3,188,391.3Z"/><rect class="cls-1" x="211.96" y="365.7" width="0.81" height="26.3"/><path class="cls-1" d="M237.25,365.7c-8.91,0-16.07,5.86-16.07,13.15S228.34,392,237.25,392s16.12-5.86,16.12-13.15S246.17,365.7,237.25,365.7Zm0,25.63c-8.48,0-15.26-5.54-15.26-12.48s6.78-12.48,15.26-12.48,15.31,5.54,15.31,12.48S245.74,391.33,237.25,391.33Z"/><path class="cls-1" d="M267.18,366.4c4.11,0,7.41,2.7,7.41,6.07h.82c0-3.72-3.69-6.77-8.23-6.77s-8.24,3-8.24,6.74,3.69,6.73,8.24,6.73c4.11,0,7.41,2.73,7.41,6.1s-3.3,6.06-7.41,6.06-7.42-2.73-7.42-6.1h-.82c0,3.72,3.69,6.77,8.24,6.77s8.23-3,8.23-6.73-3.69-6.73-8.23-6.73c-4.12,0-7.42-2.7-7.42-6.07S263.06,366.4,267.18,366.4Z"/><path class="cls-1" d="M275.34,122a63.46,63.46,0,0,1-12.15,8.54,101.9,101.9,0,0,1-.95-14.71,63,63,0,0,1,2.28-16.61,60.43,60.43,0,0,1,7.4-16.42,48.5,48.5,0,0,1,14.62-14.33c1.14-.76,1.36-1.83.67-3.23a18.7,18.7,0,0,0-3.61-4.64,60.51,60.51,0,0,0-6.08-5.23q-3.51-2.65-6.64-4.74c-2.09-1.4-4.52-3-7.3-4.75a57.51,57.51,0,0,0-13.87,9.78A71.33,71.33,0,0,0,238.8,70.24q-5.42,9.21-7.88,23.44a17.07,17.07,0,0,0-9.2,2.1,35.74,35.74,0,0,0-9.3,7,62.07,62.07,0,0,0-8.26,10.63,57.78,57.78,0,0,0-6,12.81,46.94,46.94,0,0,0-2.28,13.86,32.93,32.93,0,0,0,2.66,13.57,35.74,35.74,0,0,0,8.73,12.06q6,5.59,16,9.2a21.26,21.26,0,0,0,8,1,45.17,45.17,0,0,0,10-1.61,60.47,60.47,0,0,0,10.34-3.89,36.42,36.42,0,0,0,8.93-6,22.18,22.18,0,0,0,5.6-8,15.52,15.52,0,0,0,.47-9.78.56.56,0,0,1-.19-.38,55.17,55.17,0,0,0,19.55-10q9.5-7.32,17.66-20.6l-16.9-6.45A74.13,74.13,0,0,1,275.34,122Zm-51.82-3.23q.94-4.35,2.28-8.54A62.28,62.28,0,0,1,229,102l.75-1.33-.19.19a3.59,3.59,0,0,1,.39-1q-1.71,14.81,1.32,34.36a14.23,14.23,0,0,1-6.07-6,17.42,17.42,0,0,1-1.68-9.48Zm7.12,33.32a17.71,17.71,0,0,1-2.75,5.12,6,6,0,0,1-3.14,2.19A2.48,2.48,0,0,1,222,158q-1.51-1.91-1.9-7.5a95.19,95.19,0,0,1,.19-13.19,45,45,0,0,0,12,7,29.37,29.37,0,0,1-1.65,7.75Z"/><path class="cls-1" d="M69,228.82a67.66,67.66,0,0,0,5.64,10.64q32.76-5,59.68-8.9,11.51-1.74,22.79-3.36T178,224.27c6.36-.87,36.83-4.92,41.31-5.42s7.52-.84,9.12-1c2.89-.15,4.51-1.74,4.88-4.77a30.91,30.91,0,0,0-.65-10.1,98.75,98.75,0,0,0-2.82-10.41q-1.64-4.89-1.41-5.76c-.73.3-3.69.69-8.9,1.2s-36.73,4.52-44.47,5.31-16.27,1.74-25.61,2.82-18.55,2.21-27.67,3.37a377.73,377.73,0,0,1,13.13-41.67q8.58-23,20-47.21t24.85-48.18q13.45-24,27.78-44.6c.29-.29-.62-.83-2.71-1.63a83,83,0,0,0-8.14-2.49q-5-1.31-11.07-2.61T174.26,8.65Q169,7.45,162.1,6.15,152.77,20,142.89,36.21t-19.2,33.31Q114.35,86.68,106,104.25t-14.43,34.4a240.4,240.4,0,0,0-9.34,32.23,110.06,110.06,0,0,0-2.6,28.21c0,.44.87,1.16,2.6,2.17a54.27,54.27,0,0,0,7,3.26q-8.69,1.72-14.33,3.25T68.13,211a11.9,11.9,0,0,0-1.63,8.57A42.33,42.33,0,0,0,69,228.82Z"/></svg>