<svg id="Layer_1" data-name="Layer 1" xmlns="http://www.w3.org/2000/svg" xmlns:xlink="http://www.w3.org/1999/xlink" viewBox="0 0 368 399"><defs><style>.cls-1{fill:url(#New_Gradient_Swatch_1);}.cls-2{fill:url(#New_Gradient_Swatch_1-2);}.cls-3{fill:url(#New_Gradient_Swatch_1-3);}.cls-4{fill:url(#New_Gradient_Swatch_1-4);}.cls-5{fill:url(#New_Gradient_Swatch_1-5);}.cls-6{fill:url(#New_Gradient_Swatch_1-6);}.cls-7{fill:url(#New_Gradient_Swatch_1-7);}.cls-8{fill:url(#New_Gradient_Swatch_1-8);}.cls-9{fill:url(#New_Gradient_Swatch_1-9);}.cls-10{fill:url(#New_Gradient_Swatch_1-10);}.cls-11{fill:url(#New_Gradient_Swatch_1-11);}.cls-12{fill:url(#New_Gradient_Swatch_1-12);}.cls-13{fill:url(#New_Gradient_Swatch_1-13);}.cls-14{fill:url(#New_Gradient_Swatch_1-14);}.cls-15{fill:url(#New_Gradient_Swatch_1-15);}</style><linearGradient id="New_Gradient_Swatch_1" x1="358.67" y1="320.65" x2="-480.53" y2="273.63" gradientUnits="userSpaceOnUse"><stop offset="0" stop-color="#f39042"/><stop offset="0.46" stop-color="#e6332a"/><stop offset="1" stop-color="#981c1f"/></linearGradient><linearGradient id="New_Gradient_Swatch_1-2" x1="358.9" y1="316.51" x2="-480.3" y2="269.49" xlink:href="#New_Gradient_Swatch_1"/><linearGradient id="New_Gradient_Swatch_1-3" x1="359.05" y1="313.79" x2="-480.14" y2="266.77" xlink:href="#New_Gradient_Swatch_1"/><linearGradient id="New_Gradient_Swatch_1-4" x1="359.3" y1="309.43" x2="-479.9" y2="262.41" xlink:href="#New_Gradient_Swatch_1"/><linearGradient id="New_Gradient_Swatch_1-5" x1="359.51" y1="305.61" x2="-479.68" y2="258.59" xlink:href="#New_Gradient_Swatch_1"/><linearGradient id="New_Gradient_Swatch_1-6" x1="359.65" y1="303.08" x2="-479.54" y2="256.06" xlink:href="#New_Gradient_Swatch_1"/><linearGradient id="New_Gradient_Swatch_1-7" x1="354.6" y1="393.22" x2="-484.59" y2="346.2" xlink:href="#New_Gradient_Swatch_1"/><linearGradient id="New_Gradient_Swatch_1-8" x1="354.7" y1="391.4" x2="-484.49" y2="344.38" xlink:href="#New_Gradient_Swatch_1"/><linearGradient id="New_Gradient_Swatch_1-9" x1="354.8" y1="389.66" x2="-484.39" y2="342.64" xlink:href="#New_Gradient_Swatch_1"/><linearGradient id="New_Gradient_Swatch_1-10" x1="354.86" y1="388.52" x2="-484.33" y2="341.5" xlink:href="#New_Gradient_Swatch_1"/><linearGradient id="New_Gradient_Swatch_1-11" x1="354.96" y1="386.84" x2="-484.24" y2="339.82" xlink:href="#New_Gradient_Swatch_1"/><linearGradient id="New_Gradient_Swatch_1-12" x1="355.04" y1="385.45" x2="-484.16" y2="338.43" xlink:href="#New_Gradient_Swatch_1"/><linearGradient id="New_Gradient_Swatch_1-13" x1="355.13" y1="383.78" x2="-484.06" y2="336.76" xlink:href="#New_Gradient_Swatch_1"/><linearGradient id="New_Gradient_Swatch_1-14" x1="370.03" y1="117.81" x2="-469.16" y2="70.79" xlink:href="#New_Gradient_Swatch_1"/><linearGradient id="New_Gradient_Swatch_1-15" x1="368.97" y1="136.85" x2="-470.23" y2="89.83" xlink:href="#New_Gradient_Swatch_1"/></defs><title>logo-color</title><polygon class="cls-1" points="11.96 272.74 10.42 272.74 10.42 329.63 48.37 329.63 48.37 328.19 11.96 328.19 11.96 272.74"/><polygon class="cls-2" points="104.24 328.12 67.91 328.12 67.91 301.26 101.72 301.26 101.72 299.74 67.91 299.74 67.91 274.25 104.24 274.25 104.24 272.74 66.37 272.74 66.37 329.63 104.24 329.63 104.24 328.12"/><path class="cls-3" d="M145.1,272.74H122.23v56.89H145c16.78,0,30.41-12.74,30.41-28.45S161.8,272.81,145.1,272.74Zm-.24,55.38h-21V274.25h21c16,0,28.86,12,28.86,26.93S160.83,328.12,144.86,328.12Z"/><polygon class="cls-4" points="192.77 272.74 192.77 329.63 194.31 329.63 194.31 307.4 202.26 299.97 234.04 329.63 236.48 329.63 203.56 298.76 231.45 272.74 229.18 272.74 194.31 305.13 194.31 272.74 192.77 272.74"/><polygon class="cls-5" points="269.23 307.18 247.99 272.74 246.04 272.74 268.5 308.62 268.5 329.63 270.04 329.63 270.04 308.62 292.5 272.74 290.56 272.74 269.23 307.18"/><path class="cls-6" d="M346.26,299.36a14,14,0,0,0,9.16-12.82c0-7.58-6.65-13.8-14.76-13.8h-30v56.89H342.2c9.08,0,16.46-6.9,16.46-15.4C358.66,307.1,353.39,301,346.26,299.36Zm-34-25.11h28.38c7.22,0,13.14,5.54,13.14,12.29s-5.92,12.29-13.14,12.29H312.28Zm29.92,53.87H312.28V300.35H342.2c8.19,0,14.84,6.22,14.84,13.88S350.39,328.12,342.2,328.12Z"/><path class="cls-7" d="M98.19,366.4c4.12,0,7.42,2.7,7.42,6.07h.81c0-3.72-3.68-6.77-8.23-6.77s-8.23,3-8.23,6.74,3.69,6.73,8.23,6.73c4.12,0,7.42,2.73,7.42,6.1s-3.3,6.06-7.42,6.06-7.42-2.73-7.42-6.1H90C90,389,93.65,392,98.19,392s8.23-3,8.23-6.73-3.68-6.73-8.23-6.73c-4.11,0-7.42-2.7-7.42-6.07S94.08,366.4,98.19,366.4Z"/><polygon class="cls-8" points="111.99 366.37 124.25 366.37 124.25 392 125.07 392 125.07 366.37 137.37 366.37 137.37 365.7 111.99 365.7 111.99 366.37"/><path class="cls-9" d="M167.64,381.66c0,5.33-5.4,9.6-11.88,9.6s-11.83-4.31-11.83-9.64V365.7h-.86v15.92c0,5.75,5.66,10.38,12.69,10.38s12.74-4.63,12.74-10.38V365.7h-.86Z"/><path class="cls-10" d="M188.17,365.7H176.08V392h12c8.87,0,16.08-5.89,16.08-13.15S197,365.74,188.17,365.7ZM188,391.3h-11.1V366.4H188c8.45,0,15.26,5.54,15.26,12.45S196.49,391.3,188,391.3Z"/><rect class="cls-11" x="211.96" y="365.7" width="0.81" height="26.3"/><path class="cls-12" d="M237.25,365.7c-8.91,0-16.07,5.86-16.07,13.15S228.34,392,237.25,392s16.12-5.86,16.12-13.15S246.17,365.7,237.25,365.7Zm0,25.63c-8.48,0-15.26-5.54-15.26-12.48s6.78-12.48,15.26-12.48,15.31,5.54,15.31,12.48S245.74,391.33,237.25,391.33Z"/><path class="cls-13" d="M267.18,366.4c4.11,0,7.41,2.7,7.41,6.07h.82c0-3.72-3.69-6.77-8.23-6.77s-8.24,3-8.24,6.74,3.69,6.73,8.24,6.73c4.11,0,7.41,2.73,7.41,6.1s-3.3,6.06-7.41,6.06-7.42-2.73-7.42-6.1h-.82c0,3.72,3.69,6.77,8.24,6.77s8.23-3,8.23-6.73-3.69-6.73-8.23-6.73c-4.12,0-7.42-2.7-7.42-6.07S263.06,366.4,267.18,366.4Z"/><path class="cls-14" d="M275.34,122a63.84,63.84,0,0,1-12.15,8.54,102.27,102.27,0,0,1-.95-14.71,62.89,62.89,0,0,1,2.28-16.61,60.47,60.47,0,0,1,7.4-16.42,48.6,48.6,0,0,1,14.62-14.33c1.14-.76,1.36-1.83.67-3.23a18.87,18.87,0,0,0-3.61-4.64,59.85,59.85,0,0,0-6.08-5.23q-3.51-2.66-6.64-4.74c-2.09-1.4-4.52-3-7.3-4.75a57.56,57.56,0,0,0-13.87,9.78A71.41,71.41,0,0,0,238.8,70.24q-5.42,9.21-7.88,23.44a17,17,0,0,0-9.2,2.1,35.7,35.7,0,0,0-9.3,7,61.7,61.7,0,0,0-8.26,10.63,57.86,57.86,0,0,0-6,12.81,46.89,46.89,0,0,0-2.28,13.86,33,33,0,0,0,2.66,13.57,35.83,35.83,0,0,0,8.73,12.06q6,5.6,16,9.2a21.44,21.44,0,0,0,8,.95,44.92,44.92,0,0,0,10-1.61,60.8,60.8,0,0,0,10.34-3.89,36.4,36.4,0,0,0,8.93-6,22.19,22.19,0,0,0,5.6-8,15.56,15.56,0,0,0,.47-9.78.55.55,0,0,1-.19-.38,55.16,55.16,0,0,0,19.55-10q9.5-7.32,17.66-20.6l-16.9-6.45A74.44,74.44,0,0,1,275.34,122Zm-51.82-3.23q.94-4.35,2.28-8.54A63.19,63.19,0,0,1,229,102l.75-1.33-.19.19a3.4,3.4,0,0,1,.39-1q-1.71,14.8,1.32,34.36a14.24,14.24,0,0,1-6.07-6A17.49,17.49,0,0,1,223.52,118.74Zm7.12,33.32a17.62,17.62,0,0,1-2.75,5.12,6.1,6.1,0,0,1-3.14,2.19A2.49,2.49,0,0,1,222,158q-1.51-1.9-1.9-7.5a96.1,96.1,0,0,1,.19-13.19,45.14,45.14,0,0,0,12,7A29.38,29.38,0,0,1,230.64,152.06Z"/><path class="cls-15" d="M69,228.82a68,68,0,0,0,5.64,10.64q32.76-5,59.68-8.9,11.51-1.74,22.79-3.36T178,224.27c6.36-.87,36.83-4.92,41.31-5.42s7.52-.84,9.12-1q4.34-.23,4.88-4.77a31,31,0,0,0-.65-10.1,100.64,100.64,0,0,0-2.82-10.41q-1.64-4.89-1.41-5.76c-.73.3-3.69.69-8.9,1.2s-36.73,4.52-44.47,5.31-16.27,1.74-25.61,2.82-18.55,2.21-27.67,3.37a378.07,378.07,0,0,1,13.13-41.67q8.58-23,20-47.21t24.85-48.18q13.45-24,27.78-44.6c.29-.29-.62-.83-2.71-1.63a84.36,84.36,0,0,0-8.14-2.49q-5-1.3-11.07-2.61T174.26,8.65Q169,7.45,162.1,6.15,152.77,20,142.89,36.21t-19.2,33.31Q114.35,86.68,106,104.25t-14.43,34.4a241.63,241.63,0,0,0-9.34,32.23,110.28,110.28,0,0,0-2.6,28.21c0,.44.87,1.16,2.6,2.17a54.47,54.47,0,0,0,7,3.26q-8.69,1.72-14.33,3.25T68.13,211a11.88,11.88,0,0,0-1.63,8.57A42.13,42.13,0,0,0,69,228.82Z"/></svg>