<svg xmlns="http://www.w3.org/2000/svg" xmlns:xlink="http://www.w3.org/1999/xlink" viewBox="0 0 301.17 296.2"><defs><style>.cls-1,.cls-4{fill:none;}.cls-2{clip-path:url(#clip-path);}.cls-3{clip-path:url(#clip-path-2);}.cls-4{stroke:#000;stroke-linejoin:round;stroke-width:7px;}</style><clipPath id="clip-path" transform="translate(0 0)"><rect class="cls-1" width="301.17" height="296.2"/></clipPath><clipPath id="clip-path-2" transform="translate(0 0)"><rect class="cls-1" width="301.17" height="296.2"/></clipPath></defs><title>git</title><g id="Layer_2" data-name="Layer 2"><g id="Layer_1-2" data-name="Layer 1"><g id="Artwork_5" data-name="Artwork 5"><g class="cls-2"><g class="cls-3"><path class="cls-4" d="M188,292.7a9,9,0,0,1-.92-3.77c0-4.87.18-21.05.18-41.18,0-14-4.68-23.17-10-27.76,32.82-3.77,67.2-16.46,67.2-74.19,0-16.36-5.7-29.79-15.17-40.26,1.56-3.77,6.62-19-1.47-39.72,0,0-12.32-4-40.36,15.36a136.46,136.46,0,0,0-73.63,0C85.68,61.78,73.36,65.82,73.36,65.82c-8,20.69-3,36-1.47,39.72A58.85,58.85,0,0,0,56.72,145.8c0,57.64,34.39,70.51,67,74.28-4.23,3.77-8,10.38-9.37,20C106,244,85.81,248.91,72.76,226c0,0-7.82-14.42-22.53-15.53,0,0-14.43-.18-1,9.19,0,0,9.65,4.59,16.27,22,0,0,13.94,29.11,48.41,21.81l.19,25.46a9.14,9.14,0,0,1-.92,3.77C50.11,276.06,3.5,218.89,3.5,150.58a147.08,147.08,0,0,1,294.16,0C297.66,218.89,251.06,276.06,188,292.7Z" transform="translate(0 0)"/></g></g></g></g></g></svg>