<svg xmlns="http://www.w3.org/2000/svg" xmlns:xlink="http://www.w3.org/1999/xlink" viewBox="0 0 301.17 301.17"><defs><style>.cls-1,.cls-3,.cls-4{fill:none;}.cls-2{clip-path:url(#clip-path);}.cls-3,.cls-4{stroke:#000;stroke-width:7px;}.cls-3{stroke-linejoin:round;}.cls-4{stroke-miterlimit:10;}</style><clipPath id="clip-path" transform="translate(0 0)"><rect class="cls-1" width="301.17" height="301.17"/></clipPath></defs><title>li</title><g id="Layer_2" data-name="Layer 2"><g id="Layer_1-2" data-name="Layer 1"><g id="Artwork_7" data-name="Artwork 7"><g class="cls-2"><g class="cls-2"><path class="cls-3" d="M190.38,110.1c-17.12,0-28.61,9.22-33.31,18h-.48v-16h-32V224.12h32V168.69c0-14.62,2.84-28.78,21.44-28.78,18.35,0,18.58,16.72,18.58,29.71v54.5h36v-61C232.62,133.14,226,110.1,190.38,110.1Z" transform="translate(0 0)"/><rect class="cls-3" x="68.54" y="112.06" width="36.02" height="112.06"/><path class="cls-3" d="M88.56,56a20,20,0,1,0,20,20A20,20,0,0,0,88.56,56Z" transform="translate(0 0)"/><circle class="cls-4" cx="150.58" cy="150.58" r="147.08"/></g></g></g></g></g></svg>