<svg xmlns="http://www.w3.org/2000/svg" xmlns:xlink="http://www.w3.org/1999/xlink" viewBox="0 0 301.17 301.17"><defs><style>.cls-1,.cls-3,.cls-4{fill:none;}.cls-2{clip-path:url(#clip-path);}.cls-3,.cls-4{stroke:#000;stroke-width:7px;}.cls-3{stroke-linejoin:round;}.cls-4{stroke-miterlimit:10;}</style><clipPath id="clip-path" transform="translate(0 0)"><rect class="cls-1" width="301.17" height="301.17"/></clipPath></defs><title>tw</title><g id="Layer_2" data-name="Layer 2"><g id="Layer_1-2" data-name="Layer 1"><g id="Artwork_9" data-name="Artwork 9"><g class="cls-2"><g class="cls-2"><path class="cls-3" d="M241.63,96.15a72.12,72.12,0,0,1-21.46,6.13A38.76,38.76,0,0,0,236.6,80.74a72.9,72.9,0,0,1-23.72,9.45A36.63,36.63,0,0,0,185.61,77.9c-20.63,0-37.36,17.43-37.36,38.93a39.86,39.86,0,0,0,1,8.87c-31.06-1.62-58.58-17.12-77-40.68a40.08,40.08,0,0,0-5.06,19.58A39.38,39.38,0,0,0,83.77,137a36.11,36.11,0,0,1-16.92-4.88c-.22,19.08,12.73,35.06,30,38.67a35.83,35.83,0,0,1-16.86.67c4.75,15.46,18.55,26.72,34.89,27a73,73,0,0,1-55.31,16.13,102.68,102.68,0,0,0,57.27,17.49c68.72,0,106.3-59.33,106.3-110.77,0-1.69,0-3.37-.11-5A77.4,77.4,0,0,0,241.63,96.15Z" transform="translate(0 0)"/><circle class="cls-4" cx="150.58" cy="150.58" r="147.08"/></g></g></g></g></g></svg>