<?xml version="1.0" encoding="utf-8"?>
<!-- Generator: Adobe Illustrator 23.0.1, SVG Export Plug-In . SVG Version: 6.00 Build 0)  -->
<svg version="1.1" id="Layer_1" xmlns="http://www.w3.org/2000/svg" xmlns:xlink="http://www.w3.org/1999/xlink" x="0px" y="0px"
	 viewBox="0 0 334.7 185.8" style="enable-background:new 0 0 334.7 185.8;" xml:space="preserve">
<style type="text/css">
	.st0{fill:#FF7F41;}
	.st1{fill:#EF3C24;}
	.st2{fill:#30363D;}
	.st3{fill:#484F59;}
	.st4{fill:#E5E8EC;}
	.st5{fill:#F1FAFC;}
	.st6{fill:#212322;}
</style>
<title>Asset 12</title>
<g>
	<g id="Layer_1-2_1_">
		<path class="st0" d="M155.4,30.9c12.3,15.8,21.6,34.3,27,54.9c8.5,38.5,3.3,81.6-18.9,122.1l-8.1-13.2l-8.1-13.2
			c19-25.1,28.2-57.9,24.4-92.2C170.5,70.4,165.3,50.5,155.4,30.9z"/>
		<path class="st1" d="M155.7,32.3c11.8,15.7,20.4,34,25.3,54.1c7.9,37.6,2.3,79.5-19.7,118.6l-5.6-11.7c-1.9-3.9-3.7-7.8-5.6-11.7
			c18.5-25.4,27.1-58.1,22.9-92.1C171.4,70.9,165.8,51.4,155.7,32.3z"/>
		<path class="st0" d="M156.3,34.6c10.9,15.6,18.6,33.4,22.6,52.8c6.9,36.2,0.6,76.2-21,112.9c-0.6-3.1-1.1-6.2-1.7-9.3
			c-0.6-3.1-1.1-6.2-1.7-9.3c17.8-25.9,25.4-58.5,20.5-91.9C172.8,71.7,166.7,52.8,156.3,34.6z"/>
		<path class="st2" d="M158.6,39.6c2.7-1.8,7.3,0.5,10.2,5.1c0.4,0.6,0.7,1.1,1,1.7l-9.7,6.2c-0.4-0.5-0.8-1.1-1.2-1.6
			C156,46.4,155.9,41.3,158.6,39.6z"/>
		<path class="st3" d="M159.9,38.7c2-1.3,6,1.3,8.9,5.9c0.4,0.6,0.7,1.2,1,1.7l-7.2,4.6c-0.4-0.5-0.8-1.1-1.2-1.6
			C158.6,44.8,157.9,40,159.9,38.7z"/>
		<path class="st3" d="M150.7,16.8c5.6,8.8,15,13.5,24.2,13.2c0.3,0.1,0.6,0.1,0.9,0.2c1.9,0.3,4.9,5.9,4.9,5.9l-12.6,8.1
			c0,0-17.6-27.5-19.6-30.6c0.4,0.6,0.8,1.1,1.2,1.7C150,15.8,150.3,16.3,150.7,16.8z"/>
		<path class="st4" d="M157.1,27.1c5.3,3.8,11.8,5.7,18.3,5.2c0.3,0,0.7,0.1,1,0.1c1.3,0.2,2.8,2.3,3.9,3.9l-12.3,7.8
			C168.1,44.2,162.4,35.3,157.1,27.1z"/>
		<path class="st5" d="M178.8,36.4c0.3,0,0.6,0.1,0.9,0.3l-11.6,7.4l-6.5-10.1c4.9,2.2,10.5,3,16.2,2.3
			C178.1,36.4,178.5,36.4,178.8,36.4z"/>
		<path class="st3" d="M141.3,22.8c5.6,8.8,6,19.3,1.9,27.5c-0.1,0.3-0.2,0.6-0.2,0.9c-0.5,1.9,3.3,6.9,3.3,6.9l12.6-8.1l-19.6-30.6
			c0.4,0.6,0.7,1.2,1,1.8C140.6,21.8,141,22.3,141.3,22.8z"/>
		<path class="st4" d="M147.9,33c1.3,6.4,0.2,13.1-3,18.8c-0.1,0.3-0.2,0.6-0.3,1c-0.4,1.2,0.9,3.5,1.9,5.2l12.3-7.8L147.9,33z"/>
		<path class="st5" d="M147.3,56.6c-0.1,0.3-0.1,0.6-0.1,0.9l11.6-7.4L152.4,40c0,5.3-1.7,10.8-4.7,15.6
			C147.5,56,147.4,56.3,147.3,56.6z"/>
		<path class="st5" d="M158.5,50.3l-20.2-31.6c-1.9-2.9-5.7-13.7-3.9-17c3.8-0.2,11.9,7.8,13.8,10.7L168.4,44L158.5,50.3z"/>
		<path class="st4" d="M134.4,1.7c0,0,0.1,0,0.1,0l29,45.4l-5,3.2l-20.2-31.6C136.4,15.8,132.6,5,134.4,1.7z"/>
		<path class="st3" d="M142,5.9l-7.1,4.5c-1-3.5-1.5-7-0.6-8.7C136.3,1.6,139.3,3.6,142,5.9z"/>
		<path class="st6" d="M138.6,8.1l-3.6,2.3c-1-3.5-1.5-7-0.6-8.7c0,0,0.1,0,0.1,0L138.6,8.1z"/>
		<path class="st3" d="M138.8,15.3c0.5,0.3,1.1-0.3,1.7-1.1c0.7-0.9,1.7-1.6,2.8-1.8c1-0.2,1.8-0.5,1.7-1.1l0,0
			c-0.1-0.6-1.3-1.4-2.5-1.1c-1.4,0.3-2.7,1.1-3.5,2.3C138.1,13.6,138.3,15,138.8,15.3z"/>
		<path class="st6" d="M168.7,33.1c1.2-0.8,4.5,2.3,7.4,6.8c0.4,0.6,0.7,1.2,1,1.7l-4.2,2.7c-0.4-0.5-0.8-1.1-1.1-1.7
			C168.9,38.2,167.5,33.9,168.7,33.1z"/>
		<path class="st6" d="M168.7,33.1c0.3-0.2,0.8-0.1,1.3,0.1c-0.6,1.2,0.7,4.9,3.1,8.7c0.3,0.5,0.7,1.1,1.1,1.6l-1.3,0.8
			c-0.4-0.5-0.8-1.1-1.1-1.7C168.9,38.2,167.5,33.9,168.7,33.1z"/>
		<path class="st6" d="M148.5,46c1.2-0.8,4.5,2.3,7.4,6.8c0.4,0.6,0.7,1.2,1,1.7l-4.2,2.7c-0.4-0.5-0.8-1.1-1.1-1.7
			C148.7,51.1,147.3,46.8,148.5,46z"/>
		<path class="st6" d="M148.5,46c0.3-0.2,0.8-0.1,1.3,0.1c-0.6,1.2,0.7,4.9,3.1,8.7c0.3,0.5,0.7,1.1,1.1,1.6l-1.3,0.8
			c-0.4-0.5-0.8-1.1-1.1-1.7C148.7,51.1,147.3,46.8,148.5,46z"/>
	</g>
</g>
<g>
	<g id="Layer_1-2">
		<path class="st0" d="M132.6,167.3c0.1-0.8,0.1-1.5,0.2-2.3c0-10.8-8.9-19.5-20-19.5c-3,0-6.1,0.7-8.8,2
			c-3.9-13-17.8-20.4-31.2-16.6c-9.3,2.6-16.2,10.2-17.8,19.5c-6.3,1-12,4.3-16.1,9.1c-1.4-0.4-2.8-0.7-4.2-0.6
			c-7.5-0.1-13.6,5.8-13.7,13C21,179.1,27,185,34.5,185.1h97.1c0,0,0,0,0-0.1c0.3,0,0.5,0.1,0.8,0.1c5.1,0,9.2-4,9.1-8.9
			C141.5,171.4,137.6,167.4,132.6,167.3L132.6,167.3z"/>
		<path class="st0" d="M188.4,168.9c-4.9,0.2-8.8,4.1-8.9,8.9c0,4.9,4.1,8.9,9.1,8.9c0.3,0,0.5-0.1,0.8-0.1c0,0,0,0,0,0.1h97.1
			c3.8,0,9.1,2.8,11.6,0.3c2.3-2.4,2.4-10.5,1.8-13.8c-1.1-7.2-6.2-12.9-13.7-12.8c-1.4,0-2.8,0.2-4.2,0.6c-4.1-4.8-9.8-8-16.1-9.1
			c-1.6-9.3-8.5-16.9-17.8-19.5c-13.3-3.8-27.3,3.7-31.2,16.6c-2.8-1.3-5.8-2-8.8-2c-11.1,0-20,8.8-20,19.5
			C188.2,167.4,188.3,168.2,188.4,168.9L188.4,168.9z"/>
		<path class="st1" d="M194.7,187.3c0.5-1.1,0.8-2.4,0.8-3.6c0-4.6-4.9-8.3-9.5-8.3c-4.6,0-8.3,3.7-8.3,8.3c0,1.3,0.3,2.5,0.8,3.7
			H194.7z"/>
		<path class="st0" d="M150.3,180c0.5-1.1,0.8-2.4,0.8-3.6c0-4.6-4.9-8.3-9.5-8.3c-4.6,0-8.3,3.7-8.3,8.3c0,1.3,0.3,2.5,0.8,3.7
			H150.3z"/>
		<path class="st1" d="M203.5,187.7c2.2,0,4.3,0.6,6.2,1.7c0.1-9.4,8.2-16.9,18.1-16.8c7.5,0.1,14.1,4.5,16.7,11.1
			c9.2-3.2,19.4,1.2,22.9,9.9c-1.7,1.2-3.7,1.9-5.7,1.9v0h-69.2c0,0,0,0,0-0.1l-0.1,0C193.9,190.8,198.4,187.7,203.5,187.7z"/>
		<path class="st0" d="M181.7,180c0-0.4,0.1-0.7,0.1-1.1c0-5.1-4.1-9.3-9.2-9.3c-1.4,0-2.8,0.3-4.1,0.9c-1.8-6.2-8.2-9.7-14.4-7.9
			c-4.3,1.3-7.5,4.9-8.2,9.3c-2.9,0.5-5.5,2-7.4,4.3c-0.6-0.2-1.3-0.3-1.9-0.3c-3.5,0-6.3,2.7-6.3,6.2c0,3.5,2.7,6.3,6.2,6.3h44.8
			c0,0,0,0,0,0c0.1,0,0.2,0,0.3,0c2.3,0,4.2-1.9,4.3-4.2C185.9,182,184,180.1,181.7,180L181.7,180z"/>
		<path class="st0" d="M328,180c0-0.4,0.1-0.7,0.1-1.1c0-5.1-4.1-9.3-9.2-9.3c-1.4,0-2.8,0.3-4.1,0.9c-1.8-6.2-8.2-9.7-14.4-7.9
			c-4.3,1.3-7.5,4.9-8.2,9.3c-2.9,0.5-5.5,2-7.4,4.3c-0.6-0.2-1.3-0.3-1.9-0.3c-3.5,0-6.3,2.7-6.3,6.2c0,3.5,2.7,6.3,6.2,6.3h44.8
			c0,0,0,0,0,0c0.1,0,0.2,0,0.3,0c2.3,0,4.2-1.9,4.3-4.2C332.1,182,330.3,180.1,328,180L328,180z"/>
		<path class="st1" d="M136.9,189.6c2.5-5.2,0.4-11.5-4.9-14c-1.4-0.7-3-1.1-4.6-1.1c-5.8,0-12.1,4.7-12.1,10.5
			c0,1.6,0.4,3.1,1.1,4.6H136.9z"/>
		<path class="st1" d="M88.3,165.9c-6.3,0-12.5,1.8-17.8,5.1c-0.2-28.3-23.4-51-51.6-50.8c-21.3,0.2-40.3,13.5-47.7,33.6
			c-26.3-9.6-55.4,3.7-65.3,29.8c4.7,3.6,10.4,5.6,16.3,5.7v0H120c0-0.1,0-0.1,0.1-0.2l0.4,0C115.9,175.4,102.9,165.9,88.3,165.9z"
			/>
		<path class="st1" d="M229.9,189.4l0.1,0c0,0,0,0,0,0.1h76.2v0c2.3,0,4.5-0.8,6.3-2.2c-3.8-10.1-15-15.2-25.2-11.5
			c-2.8-7.7-10.1-12.9-18.4-12.9c-10.9-0.1-19.8,8.7-19.9,19.6c-2.1-1.3-4.4-2-6.9-2C236.6,180.4,231.6,184,229.9,189.4z"/>
		<path class="st1" d="M150.6,197.8c2.5-5.2,0.4-11.5-4.9-14c-1.4-0.7-3-1.1-4.6-1.1c-5.8,0-12.1,4.7-12.1,10.5
			c0,1.6,0.4,3.1,1.1,4.6H150.6z"/>
	</g>
</g>
</svg>
