<svg xmlns="http://www.w3.org/2000/svg" xmlns:xlink="http://www.w3.org/1999/xlink" viewBox="0 0 302.17 297.2"><defs><style>.cls-1,.cls-4{fill:none;stroke:#fff;}.cls-1{stroke-miterlimit:10;}.cls-2{clip-path:url(#clip-path);}.cls-3{clip-path:url(#clip-path-2);}.cls-4{stroke-linejoin:round;stroke-width:7px;}</style><clipPath id="clip-path"><rect class="cls-1" x="0.5" y="0.5" width="301.17" height="296.2"/></clipPath><clipPath id="clip-path-2"><rect class="cls-1" x="0.5" y="0.5" width="301.17" height="296.2"/></clipPath></defs><title>git</title><g id="Layer_2" data-name="Layer 2"><g id="Layer_1-2" data-name="Layer 1"><g id="Artwork_5" data-name="Artwork 5"><g class="cls-2"><g class="cls-3"><path class="cls-4" d="M188.5,293.2a9,9,0,0,1-.92-3.77c0-4.87.18-21.05.18-41.18,0-14-4.68-23.17-10-27.76,32.82-3.77,67.2-16.46,67.2-74.19,0-16.36-5.7-29.79-15.17-40.26,1.56-3.77,6.62-19-1.47-39.72,0,0-12.32-4-40.36,15.36a136.46,136.46,0,0,0-73.63,0C86.18,62.28,73.86,66.32,73.86,66.32c-8,20.69-3,36-1.47,39.72A58.85,58.85,0,0,0,57.22,146.3c0,57.64,34.39,70.51,67,74.28-4.23,3.77-8,10.38-9.37,20-8.37,3.86-28.56,8.79-41.61-14.1,0,0-7.82-14.42-22.53-15.53,0,0-14.43-.18-1,9.19,0,0,9.65,4.59,16.27,22,0,0,13.94,29.11,48.41,21.81l.19,25.46a9.14,9.14,0,0,1-.92,3.77C50.61,276.56,4,219.39,4,151.08a147.08,147.08,0,0,1,294.16,0C298.16,219.39,251.56,276.56,188.5,293.2Z"/></g><rect class="cls-1" x="0.5" y="0.5" width="301.17" height="296.2"/></g><rect class="cls-1" x="0.5" y="0.5" width="301.17" height="296.2"/></g></g></g></svg>