<svg xmlns="http://www.w3.org/2000/svg" xmlns:xlink="http://www.w3.org/1999/xlink" viewBox="0 0 302.17 302.17"><defs><style>.cls-1,.cls-3,.cls-4{fill:none;stroke:#fff;}.cls-1,.cls-4{stroke-miterlimit:10;}.cls-2{clip-path:url(#clip-path);}.cls-3{stroke-linejoin:round;}.cls-3,.cls-4{stroke-width:7px;}</style><clipPath id="clip-path"><rect class="cls-1" x="0.5" y="0.5" width="301.17" height="301.17"/></clipPath></defs><title>li</title><g id="Layer_2" data-name="Layer 2"><g id="Layer_1-2" data-name="Layer 1"><g id="Artwork_7" data-name="Artwork 7"><g class="cls-2"><g class="cls-2"><path class="cls-3" d="M190.88,110.6c-17.12,0-28.61,9.22-33.31,18h-.48v-16h-32V224.62h32V169.19c0-14.62,2.84-28.78,21.44-28.78,18.35,0,18.58,16.72,18.58,29.71v54.5h36v-61C233.12,133.64,226.54,110.6,190.88,110.6Z"/><rect class="cls-3" x="69.04" y="112.56" width="36.02" height="112.06"/><path class="cls-3" d="M89.06,56.53a20,20,0,1,0,20,20A20,20,0,0,0,89.06,56.53Z"/><circle class="cls-4" cx="151.08" cy="151.08" r="147.08"/></g><rect class="cls-1" x="0.5" y="0.5" width="301.17" height="301.17"/></g><rect class="cls-1" x="0.5" y="0.5" width="301.17" height="301.17"/></g></g></g></svg>