<svg id="Layer_1" data-name="Layer 1" xmlns="http://www.w3.org/2000/svg" xmlns:xlink="http://www.w3.org/1999/xlink" viewBox="0 0 253 245"><defs><style>.cls-1{fill:url(#New_Gradient_Swatch_1);}.cls-2{fill:url(#New_Gradient_Swatch_1-2);}</style><linearGradient id="New_Gradient_Swatch_1" x1="313.03" y1="116.81" x2="-526.16" y2="69.79" gradientUnits="userSpaceOnUse"><stop offset="0" stop-color="#f39042"/><stop offset="0.46" stop-color="#e6332a"/><stop offset="1" stop-color="#981c1f"/></linearGradient><linearGradient id="New_Gradient_Swatch_1-2" x1="311.97" y1="135.85" x2="-527.23" y2="88.83" xlink:href="#New_Gradient_Swatch_1"/></defs><title>Artboard 1</title><path class="cls-1" d="M218.34,121a63.84,63.84,0,0,1-12.15,8.54,102.27,102.27,0,0,1-.95-14.71,62.89,62.89,0,0,1,2.28-16.61,60.47,60.47,0,0,1,7.4-16.42,48.6,48.6,0,0,1,14.62-14.33c1.14-.76,1.36-1.83.67-3.23a18.87,18.87,0,0,0-3.61-4.64,59.85,59.85,0,0,0-6.08-5.23q-3.51-2.66-6.64-4.74c-2.09-1.4-4.52-3-7.3-4.75a57.56,57.56,0,0,0-13.87,9.78A71.41,71.41,0,0,0,181.8,69.24q-5.42,9.21-7.88,23.44a17,17,0,0,0-9.2,2.1,35.7,35.7,0,0,0-9.3,7,61.7,61.7,0,0,0-8.26,10.63,57.86,57.86,0,0,0-6,12.81,46.89,46.89,0,0,0-2.28,13.86,33,33,0,0,0,2.66,13.57,35.83,35.83,0,0,0,8.73,12.06q6,5.6,16,9.2a21.44,21.44,0,0,0,8,.95,44.92,44.92,0,0,0,10-1.61,60.8,60.8,0,0,0,10.34-3.89,36.4,36.4,0,0,0,8.93-6,22.19,22.19,0,0,0,5.6-8,15.56,15.56,0,0,0,.47-9.78.55.55,0,0,1-.19-.38,55.16,55.16,0,0,0,19.55-10q9.5-7.32,17.66-20.6l-16.9-6.45A74.44,74.44,0,0,1,218.34,121Zm-51.82-3.23q.94-4.35,2.28-8.54A63.19,63.19,0,0,1,172,101l.75-1.33-.19.19a3.4,3.4,0,0,1,.39-1q-1.71,14.8,1.32,34.36a14.24,14.24,0,0,1-6.07-6A17.49,17.49,0,0,1,166.52,117.74Zm7.12,33.32a17.62,17.62,0,0,1-2.75,5.12,6.1,6.1,0,0,1-3.14,2.19A2.49,2.49,0,0,1,165,157q-1.51-1.9-1.9-7.5a96.1,96.1,0,0,1,.19-13.19,45.14,45.14,0,0,0,12,7A29.38,29.38,0,0,1,173.64,151.06Z"/><path class="cls-2" d="M12,227.82a68,68,0,0,0,5.64,10.64q32.76-5,59.68-8.9,11.5-1.74,22.79-3.36T121,223.27c6.36-.87,36.83-4.92,41.31-5.42s7.52-.84,9.12-1q4.34-.23,4.88-4.77a31,31,0,0,0-.65-10.1,100.64,100.64,0,0,0-2.82-10.41q-1.64-4.89-1.41-5.76c-.73.3-3.69.69-8.9,1.2s-36.73,4.52-44.47,5.31-16.27,1.74-25.61,2.82-18.55,2.21-27.67,3.37a378.07,378.07,0,0,1,13.13-41.67q8.58-23,20-47.21t24.85-48.18q13.45-24,27.78-44.6c.29-.29-.62-.83-2.71-1.63a84.36,84.36,0,0,0-8.14-2.49q-5-1.3-11.07-2.61T117.26,7.65Q112,6.45,105.1,5.15,95.77,19,85.89,35.21T66.69,68.52Q57.35,85.68,49,103.25t-14.43,34.4a241.63,241.63,0,0,0-9.34,32.23,110.28,110.28,0,0,0-2.6,28.21c0,.44.87,1.16,2.6,2.17a54.47,54.47,0,0,0,7,3.26q-8.68,1.72-14.33,3.25T11.13,210A11.88,11.88,0,0,0,9.5,218.6,42.13,42.13,0,0,0,12,227.82Z"/></svg>