<svg xmlns="http://www.w3.org/2000/svg" xmlns:xlink="http://www.w3.org/1999/xlink" viewBox="0 0 302.17 302.17"><defs><style>.cls-1,.cls-3{fill:none;stroke:#fff;stroke-miterlimit:10;}.cls-2{clip-path:url(#clip-path);}.cls-3{stroke-width:7px;}</style><clipPath id="clip-path"><rect class="cls-1" x="0.5" y="0.5" width="301.17" height="301.17"/></clipPath></defs><title>in</title><g id="Layer_2" data-name="Layer 2"><g id="Layer_1-2" data-name="Layer 1"><g id="Artwork_8" data-name="Artwork 8"><g class="cls-2"><g class="cls-2"><path class="cls-3" d="M234.62,116.43c-.4-8.94-1.82-15.05-3.9-20.4a43,43,0,0,0-24.58-24.58c-5.35-2.08-11.46-3.5-20.4-3.91s-11.83-.5-34.66-.5-25.68.09-34.65.5S101.37,69.37,96,71.45A42.92,42.92,0,0,0,71.45,96c-2.08,5.35-3.5,11.46-3.9,20.4S67,128.26,67,151.08s.1,25.69.52,34.66,1.82,15,3.9,20.4A42.92,42.92,0,0,0,96,230.72c5.34,2.07,11.45,3.49,20.4,3.9s11.83.51,34.65.51,25.69-.1,34.66-.51,15-1.83,20.4-3.9a43,43,0,0,0,24.58-24.58c2.08-5.35,3.5-11.46,3.9-20.4s.51-11.83.51-34.66S235,125.39,234.62,116.43Z"/><circle class="cls-3" cx="151.08" cy="151.08" r="38.52"/><circle class="cls-3" cx="200.11" cy="102.06" r="3.5"/><circle class="cls-3" cx="151.08" cy="151.08" r="147.08"/></g><rect class="cls-1" x="0.5" y="0.5" width="301.17" height="301.17"/></g><rect class="cls-1" x="0.5" y="0.5" width="301.17" height="301.17"/></g></g></g></svg>