<svg id="Layer_1" data-name="Layer 1" xmlns="http://www.w3.org/2000/svg" xmlns:xlink="http://www.w3.org/1999/xlink" viewBox="0 0 800 800"><defs><style>.cls-1{fill:url(#New_Gradient_Swatch_1);}.cls-2{fill:#fff;}</style><linearGradient id="New_Gradient_Swatch_1" x1="1364.9" y1="454.96" x2="-5418.39" y2="74.89" gradientUnits="userSpaceOnUse"><stop offset="0" stop-color="#f39042"/><stop offset="0.46" stop-color="#e6332a"/><stop offset="1" stop-color="#981c1f"/></linearGradient></defs><title>app-icon</title><rect class="cls-1" x="-7.17" y="-3.68" width="814.71" height="809.18"/><path class="cls-2" d="M633.38,397.7a165.81,165.81,0,0,1-31.08,21.85,260.7,260.7,0,0,1-2.43-37.64,161.13,161.13,0,0,1,5.83-42.47,154.31,154.31,0,0,1,18.93-42Q637.76,276.83,662,260.8q4.37-2.93,1.7-8.25t-9.23-11.89A151.85,151.85,0,0,0,639,227.3q-9-6.78-17-12.13T603.28,203q-21.37,11.16-35.45,25t-27.91,37.38Q526.09,289,519.77,325.36q-11.17-.94-23.53,5.35a92.33,92.33,0,0,0-23.8,18,158.94,158.94,0,0,0-21.11,27.18A148,148,0,0,0,436,408.62a119.62,119.62,0,0,0-5.83,35.44A84.62,84.62,0,0,0,437,478.77q7,16.53,22.34,30.83t41,23.55q8.26,2.9,20.4,2.43a115.2,115.2,0,0,0,25.48-4.13,155.8,155.8,0,0,0,26.46-10,92.39,92.39,0,0,0,22.82-15.3,56.49,56.49,0,0,0,14.32-20.38q4.6-11.4,1.21-25a1.4,1.4,0,0,1-.48-1q25.73-6.78,50-25.48t45.15-52.68l-43.21-16.5A190.1,190.1,0,0,1,633.38,397.7Zm-132.54-8.26q2.43-11.15,5.83-21.85a163.78,163.78,0,0,1,8.25-20.86l1.94-3.39-.49.47a8.69,8.69,0,0,1,1-2.43q-4.36,37.88,3.4,87.89A36.51,36.51,0,0,1,505.21,414Q499.87,404,500.84,389.44Zm18.21,85.2q-3.16,8.5-7,13.11c-2.6,3.09-5.27,4.94-8,5.6s-5.1-.5-7-3.4q-3.88-4.86-4.85-19.18a240.42,240.42,0,0,1,.48-33.74,115,115,0,0,0,30.58,18A75.73,75.73,0,0,1,519.05,474.64Z"/><path class="cls-2" d="M105.65,671a177.37,177.37,0,0,0,14.43,27.2q83.81-12.78,152.64-22.76,29.41-4.45,58.28-8.6t53.29-7.5c16.27-2.22,94.19-12.57,105.67-13.86s19.23-2.14,23.31-2.5q11.09-.56,12.49-12.21a78.93,78.93,0,0,0-1.67-25.81,254.63,254.63,0,0,0-7.21-26.64q-4.17-12.49-3.61-14.71-2.79,1.11-22.76,3c-13.32,1.3-93.93,11.56-113.72,13.59s-41.63,4.44-65.5,7.21-47.45,5.65-70.76,8.61q11.66-47.73,33.58-106.57t51.06-120.73q29.15-61.87,63.55-123.22t71-114.06q1.11-1.11-6.94-4.17A211.54,211.54,0,0,0,432,120.92q-12.78-3.33-28.31-6.66t-28.86-6.38q-13.32-3-31.09-6.38Q319.9,137,294.65,178.37t-49.13,85.2q-23.86,43.86-45.24,88.81t-36.91,88a621,621,0,0,0-23.86,82.42q-8.32,39.42-6.66,72.16c0,1.11,2.22,2.95,6.66,5.55a139.88,139.88,0,0,0,17.76,8.32q-22.22,4.44-36.64,8.33t-17.2,8.32q-6.11,9.43-4.17,21.93A109.09,109.09,0,0,0,105.65,671Z"/></svg>